704.ufo
<glyph name="uni3447" format="2">
	<advance width="1000"/>
	<unicode hex="3447"/>
	<note>
		uni3447
	</note>
	<outline>
		<contour>
			<point x="469" y="635" type="qcurve" smooth="yes"/>
			<point x="406" y="536"/>
			<point x="327" y="456" type="qcurve" smooth="yes"/>
			<point x="315" y="443"/>
			<point x="315" y="427"/>
			<point x="328" y="427"/>
			<point x="360" y="449" type="qcurve" smooth="yes"/>
			<point x="440" y="506"/>
			<point x="524" y="611" type="qcurve"/>
			<point x="753" y="624" type="line"/>
			<point x="683" y="527"/>
			<point x="628" y="470" type="qcurve" smooth="yes"/>
			<point x="607" y="446"/>
			<point x="607" y="430"/>
			<point x="611" y="430" type="qcurve" smooth="yes"/>
			<point x="633" y="430"/>
			<point x="779" y="553"/>
			<point x="830" y="622"/>
			<point x="845" y="634"/>
			<point x="845" y="650"/>
			<point x="819" y="679"/>
			<point x="798" y="679" type="qcurve" smooth="yes"/>
			<point x="788" y="679" type="line"/>
			<point x="563" y="666" type="line"/>
			<point x="603" y="731"/>
			<point x="603" y="741" type="qcurve" smooth="yes"/>
			<point x="603" y="765"/>
			<point x="549" y="784" type="qcurve" smooth="yes"/>
			<point x="531" y="790"/>
			<point x="531" y="790" type="qcurve"/>
			<point x="526" y="790"/>
			<point x="528" y="768"/>
			<point x="528" y="747"/>
			<point x="496" y="678"/>
		</contour>
		<contour>
			<point x="369" y="428"/>
			<point x="369" y="424" type="qcurve" smooth="yes"/>
			<point x="369" y="422"/>
			<point x="370" y="420" type="qcurve" smooth="yes"/>
			<point x="384" y="384"/>
			<point x="417" y="367"/>
			<point x="434" y="367" type="qcurve" smooth="yes"/>
			<point x="446" y="367" type="line" smooth="yes"/>
			<point x="453" y="367"/>
			<point x="461" y="368" type="qcurve" smooth="yes"/>
			<point x="839" y="392" type="line"/>
			<point x="829" y="238" type="line"/>
			<point x="478" y="224" type="line"/>
			<point x="468" y="224" type="line" smooth="yes"/>
			<point x="455" y="224"/>
			<point x="408" y="232" type="qcurve"/>
			<point x="405" y="232"/>
			<point x="405" y="224"/>
			<point x="415" y="193"/>
			<point x="446" y="167"/>
			<point x="475" y="167" type="qcurve" smooth="yes"/>
			<point x="499" y="168" type="line"/>
			<point x="825" y="184" type="line"/>
			<point x="813" y="15" type="line"/>
			<point x="418" y="3" type="line"/>
			<point x="410" y="3" type="line" smooth="yes"/>
			<point x="398" y="3"/>
			<point x="373" y="8"/>
			<point x="361" y="10" type="qcurve"/>
			<point x="361" y="10" type="line"/>
			<point x="354" y="10"/>
			<point x="354" y="4" type="qcurve" smooth="yes"/>
			<point x="354" y="0"/>
			<point x="355" y="-2" type="qcurve" smooth="yes"/>
			<point x="371" y="-39"/>
			<point x="399" y="-56"/>
			<point x="413" y="-56" type="qcurve" smooth="yes"/>
			<point x="441" y="-55" type="line"/>
			<point x="877" y="-44" type="line" smooth="yes"/>
			<point x="890" y="-43"/>
			<point x="905" y="-40"/>
			<point x="905" y="-18"/>
			<point x="874" y="23" type="qcurve"/>
			<point x="905" y="372" type="line" smooth="yes"/>
			<point x="906" y="383"/>
			<point x="915" y="399"/>
			<point x="915" y="418"/>
			<point x="879" y="450"/>
			<point x="861" y="450" type="qcurve" smooth="yes"/>
			<point x="855" y="450" type="line"/>
			<point x="454" y="423" type="line" smooth="yes"/>
			<point x="448" y="422"/>
			<point x="443" y="422" type="qcurve" smooth="yes"/>
			<point x="428" y="422" type="line" smooth="yes"/>
			<point x="419" y="422"/>
			<point x="375" y="428" type="qcurve"/>
		</contour>
		<contour>
			<point x="208" y="532"/>
			<point x="47" y="323" type="qcurve" smooth="yes"/>
			<point x="34" y="306"/>
			<point x="34" y="289"/>
			<point x="40" y="289" type="qcurve" smooth="yes"/>
			<point x="48" y="289"/>
			<point x="72" y="309" type="qcurve" smooth="yes"/>
			<point x="130" y="357"/>
			<point x="202" y="454" type="qcurve"/>
			<point x="198" y="25" type="line" smooth="yes"/>
			<point x="198" y="-8"/>
			<point x="192" y="-34"/>
			<point x="192" y="-37" type="qcurve" smooth="yes"/>
			<point x="192" y="-42" type="line" smooth="yes"/>
			<point x="192" y="-62"/>
			<point x="229" y="-84"/>
			<point x="242" y="-84" type="qcurve" smooth="yes"/>
			<point x="259" y="-84"/>
			<point x="259" y="-64" type="qcurve" smooth="yes"/>
			<point x="259" y="539" type="line"/>
			<point x="291" y="592"/>
			<point x="359" y="731"/>
			<point x="359" y="745" type="qcurve" smooth="yes"/>
			<point x="359" y="762"/>
			<point x="320" y="780" type="qcurve" smooth="yes"/>
			<point x="304" y="787"/>
			<point x="282" y="787"/>
			<point x="282" y="777" type="qcurve"/>
			<point x="285" y="765"/>
			<point x="285" y="742"/>
			<point x="280" y="727" type="qcurve" smooth="yes"/>
		</contour>
	</outline>
</glyph>
<glyph name="uni344A" format="2">
	<advance width="1000"/>
	<unicode hex="344A"/>
	<note>
		uni344A
	</note>
	<outline>
		<contour>
			<point x="522" y="543" type="line"/>
			<point x="522" y="532" type="line" smooth="yes"/>
			<point x="522" y="402"/>
			<point x="491" y="205"/>
			<point x="417" y="47"/>
			<point x="351" y="-27" type="qcurve" smooth="yes"/>
			<point x="334" y="-45"/>
			<point x="334" y="-56" type="qcurve" smooth="yes"/>
			<point x="334" y="-62"/>
			<point x="361" y="-62"/>
			<point x="412" y="-22"/>
			<point x="443" y="12" type="qcurve" smooth="yes"/>
			<point x="515" y="93"/>
			<point x="547" y="195" type="qcurve" smooth="yes"/>
			<point x="588" y="328"/>
			<point x="588" y="536" type="qcurve" smooth="yes"/>
			<point x="588" y="543" type="line"/>
		</contour>
		<contour>
			<point x="676" y="573" type="line"/>
			<point x="678" y="-18" type="line"/>
			<point x="630" y="2"/>
			<point x="567" y="41"/>
			<point x="541" y="41"/>
			<point x="541" y="25"/>
			<point x="617" y="-60"/>
			<point x="676" y="-100"/>
			<point x="714" y="-100"/>
			<point x="744" y="-56"/>
			<point x="744" y="-35" type="qcurve" smooth="yes"/>
			<point x="743" y="3" type="line"/>
			<point x="738" y="573" type="line"/>
		</contour>
		<contour>
			<point x="402" y="232"/>
			<point x="451" y="370" type="qcurve" smooth="yes"/>
			<point x="460" y="394"/>
			<point x="460" y="395" type="qcurve" smooth="yes"/>
			<point x="460" y="416"/>
			<point x="425" y="437" type="qcurve" smooth="yes"/>
			<point x="410" y="446"/>
			<point x="403" y="446" type="qcurve" smooth="yes"/>
			<point x="390" y="446"/>
			<point x="390" y="432" type="qcurve" smooth="yes"/>
			<point x="390" y="420" type="line" smooth="yes"/>
			<point x="390" y="376"/>
			<point x="330" y="232"/>
			<point x="279" y="149" type="qcurve" smooth="yes"/>
			<point x="273" y="138"/>
			<point x="273" y="123"/>
			<point x="295" y="123"/>
			<point x="307" y="136" type="qcurve" smooth="yes"/>
		</contour>
		<contour>
			<point x="942" y="198"/>
			<point x="917" y="254"/>
			<point x="878" y="330"/>
			<point x="837" y="404"/>
			<point x="814" y="443"/>
			<point x="786" y="443"/>
			<point x="767" y="419"/>
			<point x="767" y="411"/>
			<point x="771" y="402"/>
			<point x="774" y="395" type="qcurve"/>
			<point x="790" y="368"/>
			<point x="854" y="234"/>
			<point x="878" y="167" type="qcurve" smooth="yes"/>
			<point x="885" y="148"/>
			<point x="917" y="148"/>
			<point x="942" y="178"/>
		</contour>
		<contour>
			<point x="167" y="-63"/>
			<point x="192" y="-82"/>
			<point x="204" y="-84" type="qcurve" smooth="yes"/>
			<point x="217" y="-86" type="line"/>
			<point x="225" y="-86"/>
			<point x="237" y="-76"/>
			<point x="237" y="-65" type="qcurve" smooth="yes"/>
			<point x="237" y="538" type="line"/>
			<point x="254" y="568"/>
			<point x="271" y="602" type="qcurve" smooth="yes"/>
			<point x="333" y="724"/>
			<point x="333" y="768"/>
			<point x="293" y="786" type="qcurve" smooth="yes"/>
			<point x="278" y="792"/>
			<point x="256" y="792"/>
			<point x="256" y="782" type="qcurve"/>
			<point x="259" y="766" type="line"/>
			<point x="259" y="751" type="line" smooth="yes"/>
			<point x="259" y="741"/>
			<point x="244" y="700" type="qcurve" smooth="yes"/>
			<point x="182" y="526"/>
			<point x="38" y="326" type="qcurve" smooth="yes"/>
			<point x="26" y="311"/>
			<point x="26" y="291"/>
			<point x="37" y="291"/>
			<point x="44" y="294" type="qcurve" smooth="yes"/>
			<point x="67" y="307"/>
			<point x="177" y="452" type="qcurve"/>
			<point x="173" y="23" type="line"/>
			<point x="167" y="-50" type="line"/>
		</contour>
		<contour>
			<point x="900" y="562" type="line" smooth="yes"/>
			<point x="925" y="564"/>
			<point x="925" y="578" type="qcurve" smooth="yes"/>
			<point x="925" y="597"/>
			<point x="891" y="618" type="qcurve" smooth="yes"/>
			<point x="878" y="626"/>
			<point x="864" y="626"/>
			<point x="838" y="615"/>
			<point x="809" y="613" type="qcurve" smooth="yes"/>
			<point x="641" y="603" type="line"/>
			<point x="642" y="742" type="line" smooth="yes"/>
			<point x="642" y="753"/>
			<point x="631" y="765"/>
			<point x="585" y="782"/>
			<point x="560" y="782"/>
			<point x="560" y="774" type="qcurve" smooth="yes"/>
			<point x="560" y="769"/>
			<point x="576" y="740"/>
			<point x="576" y="720" type="qcurve" smooth="yes"/>
			<point x="579" y="599" type="line"/>
			<point x="379" y="587" type="line"/>
			<point x="372" y="587" type="line" smooth="yes"/>
			<point x="354" y="587"/>
			<point x="329" y="593"/>
			<point x="318" y="593"/>
			<point x="318" y="582"/>
			<point x="332" y="550"/>
			<point x="351" y="531"/>
			<point x="371" y="531" type="qcurve" smooth="yes"/>
			<point x="384" y="531" type="line" smooth="yes"/>
			<point x="391" y="531"/>
			<point x="399" y="532" type="qcurve" smooth="yes"/>
		</contour>
	</outline>
</glyph>
<glyph name="uni356E" format="2">
	<advance width="1000"/>
	<unicode hex="356E"/>
	<note>
		uni356E
	</note>
	<outline>
		<contour>
			<point x="922" y="551"/>
			<point x="808" y="689"/>
			<point x="735" y="757"/>
			<point x="716" y="757"/>
			<point x="697" y="730"/>
			<point x="697" y="711"/>
			<point x="706" y="701" type="qcurve" smooth="yes"/>
			<point x="802" y="592"/>
			<point x="856" y="509" type="qcurve" smooth="yes"/>
			<point x="870" y="488"/>
			<point x="897" y="488"/>
			<point x="922" y="527"/>
		</contour>
		<contour>
			<point x="512" y="749"/>
			<point x="512" y="732" type="qcurve" smooth="yes"/>
			<point x="512" y="651"/>
			<point x="379" y="473" type="qcurve" smooth="yes"/>
			<point x="364" y="453"/>
			<point x="364" y="446" type="qcurve" smooth="yes"/>
			<point x="364" y="445"/>
			<point x="371" y="445" type="qcurve" smooth="yes"/>
			<point x="398" y="445"/>
			<point x="532" y="594"/>
			<point x="587" y="681"/>
			<point x="587" y="697"/>
			<point x="577" y="710" type="qcurve" smooth="yes"/>
			<point x="546" y="749"/>
			<point x="523" y="749" type="qcurve" smooth="yes"/>
		</contour>
		<contour>
			<point x="726" y="533" type="line" smooth="yes"/>
			<point x="726" y="520"/>
			<point x="696" y="402"/>
			<point x="643" y="308" type="qcurve"/>
			<point x="581" y="413"/>
			<point x="551" y="500" type="qcurve" smooth="yes"/>
			<point x="543" y="520"/>
			<point x="521" y="520"/>
			<point x="492" y="498"/>
			<point x="492" y="482"/>
			<point x="545" y="345"/>
			<point x="605" y="244" type="qcurve"/>
			<point x="552" y="173"/>
			<point x="399" y="18"/>
			<point x="299" y="-47" type="qcurve" smooth="yes"/>
			<point x="280" y="-59"/>
			<point x="280" y="-69" type="qcurve" smooth="yes"/>
			<point x="280" y="-72"/>
			<point x="302" y="-72"/>
			<point x="313" y="-68" type="qcurve" smooth="yes"/>
			<point x="519" y="19"/>
			<point x="643" y="185" type="qcurve"/>
			<point x="709" y="90"/>
			<point x="815" y="-2" type="qcurve" smooth="yes"/>
			<point x="857" y="-39"/>
			<point x="914" y="-80"/>
			<point x="920" y="-80" type="qcurve" smooth="yes"/>
			<point x="938" y="-80"/>
			<point x="968" y="-43" type="qcurve" smooth="yes"/>
			<point x="977" y="-30"/>
			<point x="977" y="-20"/>
			<point x="960" y="-10" type="qcurve" smooth="yes"/>
			<point x="787" y="103"/>
			<point x="682" y="241" type="qcurve"/>
			<point x="732" y="323"/>
			<point x="799" y="496"/>
			<point x="799" y="505" type="qcurve" smooth="yes"/>
			<point x="799" y="524"/>
			<point x="761" y="551" type="qcurve" smooth="yes"/>
			<point x="746" y="562"/>
			<point x="726" y="562"/>
			<point x="726" y="545" type="qcurve" smooth="yes"/>
		</contour>
		<contour>
			<point x="336" y="545" type="line"/>
			<point x="337" y="550"/>
			<point x="342" y="561"/>
			<point x="342" y="579"/>
			<point x="321" y="603"/>
			<point x="301" y="603" type="qcurve" smooth="yes"/>
			<point x="292" y="603" type="line" smooth="yes"/>
			<point x="287" y="603"/>
			<point x="281" y="602" type="qcurve" smooth="yes"/>
			<point x="151" y="593" type="line"/>
			<point x="100" y="612"/>
			<point x="77" y="612"/>
			<point x="77" y="600"/>
			<point x="94" y="573"/>
			<point x="96" y="534" type="qcurve" smooth="yes"/>
			<point x="107" y="254" type="line"/>
			<point x="103" y="212" type="line"/>
			<point x="103" y="198"/>
			<point x="130" y="172"/>
			<point x="167" y="172"/>
			<point x="167" y="190" type="qcurve" smooth="yes"/>
			<point x="167" y="193" type="line"/>
			<point x="165" y="247" type="line"/>
			<point x="318" y="256" type="line" smooth="yes"/>
			<point x="330" y="257"/>
			<point x="346" y="260"/>
			<point x="346" y="281"/>
			<point x="322" y="310" type="qcurve"/>
		</contour>
		<contour>
			<point x="263" y="310" type="line"/>
			<point x="162" y="304" type="line"/>
			<point x="153" y="538" type="line"/>
			<point x="275" y="545" type="line"/>
		</contour>
	</outline>
</glyph>
<glyph name="uni360E" format="2">
	<advance width="1000"/>
	<unicode hex="360E"/>
	<note>
		uni360E
	</note>
	<outline>
		<contour>
			<point x="506" y="226" type="line"/>
			<point x="556" y="232" type="line"/>
			<point x="556" y="182" type="line"/>
			<point x="506" y="155" type="line"/>
		</contour>
		<contour>
			<point x="556" y="274" type="line"/>
			<point x="506" y="269" type="line"/>
			<point x="507" y="320" type="line"/>
			<point x="556" y="326" type="line"/>
		</contour>
		<contour>
			<point x="556" y="368" type="line"/>
			<point x="507" y="362" type="line"/>
			<point x="508" y="413" type="line"/>
			<point x="557" y="418" type="line"/>
		</contour>
		<contour>
			<point x="444" y="567"/>
			<point x="444" y="554"/>
			<point x="447" y="545" type="qcurve" smooth="yes"/>
			<point x="456" y="520"/>
			<point x="479" y="520" type="qcurve"/>
			<point x="511" y="523" type="line"/>
			<point x="510" y="458" type="line"/>
			<point x="453" y="452" type="line"/>
			<point x="451" y="452" type="line" smooth="yes"/>
			<point x="444" y="452"/>
			<point x="434" y="458"/>
			<point x="419" y="458"/>
			<point x="419" y="447" type="qcurve"/>
			<point x="421" y="439"/>
			<point x="434" y="409"/>
			<point x="449" y="409" type="qcurve" smooth="yes"/>
			<point x="456" y="409" type="line" smooth="yes"/>
			<point x="460" y="409"/>
			<point x="464" y="410" type="qcurve" smooth="yes"/>
			<point x="465" y="410" type="line"/>
			<point x="465" y="137" type="line"/>
			<point x="429" y="120"/>
			<point x="422" y="120"/>
			<point x="417" y="122" type="qcurve"/>
			<point x="414" y="122" type="line" smooth="yes"/>
			<point x="404" y="122"/>
			<point x="404" y="106"/>
			<point x="406" y="106" type="qcurve"/>
			<point x="411" y="89"/>
			<point x="433" y="67"/>
			<point x="440" y="67" type="qcurve" smooth="yes"/>
			<point x="462" y="67"/>
			<point x="555" y="138" type="qcurve"/>
			<point x="555" y="64" type="line" smooth="yes"/>
			<point x="555" y="44"/>
			<point x="551" y="18"/>
			<point x="551" y="1"/>
			<point x="569" y="-21"/>
			<point x="599" y="-21"/>
			<point x="599" y="-6" type="qcurve" smooth="yes"/>
			<point x="599" y="421" type="line"/>
			<point x="634" y="426" type="line" smooth="yes"/>
			<point x="652" y="427"/>
			<point x="652" y="447"/>
			<point x="631" y="473"/>
			<point x="615" y="473"/>
			<point x="607" y="467"/>
			<point x="594" y="466" type="qcurve" smooth="yes"/>
			<point x="554" y="462" type="line"/>
			<point x="555" y="527" type="line"/>
			<point x="611" y="532" type="line" smooth="yes"/>
			<point x="628" y="533"/>
			<point x="628" y="556"/>
			<point x="609" y="580"/>
			<point x="600" y="580" type="qcurve" smooth="yes"/>
			<point x="595" y="580" type="line" smooth="yes"/>
			<point x="590" y="580"/>
			<point x="581" y="573"/>
			<point x="573" y="573" type="qcurve" smooth="yes"/>
			<point x="479" y="564" type="line"/>
			<point x="474" y="564" type="line"/>
			<point x="453" y="567" type="line"/>
		</contour>
		<contour>
			<point x="787" y="317"/>
			<point x="799" y="413" type="qcurve"/>
			<point x="826" y="415" type="line"/>
			<point x="841" y="419"/>
			<point x="841" y="442"/>
			<point x="818" y="466"/>
			<point x="803" y="466"/>
			<point x="790" y="458"/>
			<point x="782" y="458" type="qcurve" smooth="yes"/>
			<point x="708" y="451" type="line"/>
			<point x="716" y="481"/>
			<point x="736" y="567"/>
			<point x="736" y="579"/>
			<point x="724" y="596"/>
			<point x="707" y="610"/>
			<point x="685" y="610"/>
			<point x="687" y="596"/>
			<point x="687" y="590"/>
			<point x="687" y="588" type="qcurve" smooth="yes"/>
			<point x="687" y="560"/>
			<point x="647" y="379"/>
			<point x="612" y="272"/>
			<point x="612" y="256"/>
			<point x="621" y="256" type="qcurve" smooth="yes"/>
			<point x="639" y="256"/>
			<point x="675" y="348" type="qcurve" smooth="yes"/>
			<point x="691" y="396" type="line" smooth="yes"/>
			<point x="692" y="399"/>
			<point x="694" y="403" type="qcurve"/>
			<point x="754" y="409" type="line"/>
			<point x="746" y="338"/>
			<point x="735" y="291" type="qcurve"/>
			<point x="726" y="306"/>
			<point x="696" y="353"/>
			<point x="679" y="329" type="qcurve" smooth="yes"/>
			<point x="673" y="320"/>
			<point x="671" y="306"/>
			<point x="696" y="264"/>
			<point x="717" y="222" type="qcurve"/>
			<point x="714" y="211" type="line" smooth="yes"/>
			<point x="696" y="157"/>
			<point x="651" y="63"/>
			<point x="622" y="18"/>
			<point x="622" y="2"/>
			<point x="644" y="2"/>
			<point x="657" y="18" type="qcurve" smooth="yes"/>
			<point x="715" y="84"/>
			<point x="743" y="168" type="qcurve"/>
			<point x="755" y="143"/>
			<point x="775" y="94"/>
			<point x="781" y="83"/>
			<point x="797" y="79"/>
			<point x="819" y="102"/>
			<point x="820" y="110" type="qcurve" smooth="yes"/>
			<point x="821" y="131"/>
			<point x="766" y="238" type="qcurve"/>
		</contour>
		<contour>
			<point x="895" y="-26" type="qcurve" smooth="yes"/>
			<point x="895" y="51"/>
			<point x="902" y="686"/>
			<point x="907" y="696"/>
			<point x="907" y="709"/>
			<point x="889" y="732"/>
			<point x="862" y="732" type="qcurve"/>
			<point x="600" y="712" type="line"/>
			<point x="577" y="712"/>
			<point x="552" y="719" type="qcurve"/>
			<point x="550" y="719"/>
			<point x="550" y="701"/>
			<point x="573" y="668"/>
			<point x="583" y="656"/>
			<point x="610" y="656"/>
			<point x="623" y="658" type="qcurve" smooth="yes"/>
			<point x="847" y="677" type="line"/>
			<point x="840" y="-14" type="line"/>
			<point x="766" y="10"/>
			<point x="741" y="24" type="qcurve" smooth="yes"/>
			<point x="724" y="32"/>
			<point x="714" y="32"/>
			<point x="714" y="27" type="qcurve" smooth="yes"/>
			<point x="714" y="14"/>
			<point x="787" y="-57"/>
			<point x="846" y="-91"/>
			<point x="866" y="-91"/>
			<point x="895" y="-64"/>
		</contour>
		<contour>
			<point x="222" y="321" type="line"/>
			<point x="150" y="313" type="line"/>
			<point x="135" y="555" type="line"/>
			<point x="232" y="564" type="line"/>
		</contour>
		<contour>
			<point x="293" y="564" type="line" smooth="yes"/>
			<point x="294" y="571"/>
			<point x="298" y="582"/>
			<point x="298" y="596"/>
			<point x="279" y="622"/>
			<point x="256" y="622" type="qcurve" smooth="yes"/>
			<point x="252" y="622"/>
			<point x="244" y="622"/>
			<point x="239" y="621" type="qcurve" smooth="yes"/>
			<point x="133" y="610" type="line"/>
			<point x="82" y="629"/>
			<point x="57" y="629"/>
			<point x="57" y="617"/>
			<point x="77" y="583"/>
			<point x="79" y="551" type="qcurve" smooth="yes"/>
			<point x="97" y="265" type="line"/>
			<point x="93" y="221" type="line"/>
			<point x="93" y="207"/>
			<point x="120" y="181"/>
			<point x="141" y="181" type="qcurve" smooth="yes"/>
			<point x="157" y="181"/>
			<point x="157" y="201" type="qcurve" smooth="yes"/>
			<point x="157" y="204" type="line"/>
			<point x="154" y="256" type="line"/>
			<point x="276" y="267" type="line" smooth="yes"/>
			<point x="288" y="268"/>
			<point x="304" y="274"/>
			<point x="304" y="295"/>
			<point x="277" y="322" type="qcurve"/>
		</contour>
		<contour>
			<point x="389" y="-77"/>
			<point x="389" y="-53" type="qcurve" smooth="yes"/>
			<point x="389" y="582" type="line" smooth="yes"/>
			<point x="389" y="594"/>
			<point x="381" y="604"/>
			<point x="347" y="617"/>
			<point x="326" y="617"/>
			<point x="326" y="607"/>
			<point x="336" y="592"/>
			<point x="339" y="569"/>
			<point x="338" y="26"/>
			<point x="335" y="-5"/>
			<point x="332" y="-24"/>
			<point x="332" y="-47"/>
			<point x="351" y="-68"/>
			<point x="373" y="-77"/>
			<point x="375" y="-77" type="qcurve" smooth="yes"/>
		</contour>
		<contour>
			<point x="508" y="608"/>
			<point x="524" y="631" type="qcurve"/>
			<point x="532" y="639"/>
			<point x="531" y="647"/>
			<point x="503" y="684" type="qcurve" smooth="yes"/>
			<point x="433" y="775"/>
			<point x="413" y="771" type="qcurve"/>
			<point x="382" y="755"/>
			<point x="386" y="737" type="qcurve" smooth="yes"/>
			<point x="387" y="730"/>
			<point x="397" y="721" type="qcurve" smooth="yes"/>
			<point x="436" y="683"/>
			<point x="471" y="624" type="qcurve" smooth="yes"/>
			<point x="482" y="604"/>
			<point x="493" y="606" type="qcurve" smooth="yes"/>
		</contour>
	</outline>
</glyph>
<glyph name="uni364D" format="2">
	<advance width="1000"/>
	<unicode hex="364D"/>
	<note>
		uni364D
	</note>
	<outline>
		<contour>
			<point x="672" y="653"/>
			<point x="646" y="635"/>
			<point x="646" y="618"/>
			<point x="653" y="611" type="qcurve" smooth="yes"/>
			<point x="704" y="568"/>
			<point x="747" y="522" type="qcurve"/>
			<point x="698" y="445"/>
			<point x="639" y="394" type="qcurve" smooth="yes"/>
			<point x="612" y="371"/>
			<point x="612" y="358"/>
			<point x="625" y="358"/>
			<point x="671" y="377"/>
			<point x="742" y="432"/>
			<point x="782" y="484" type="qcurve"/>
			<point x="825" y="438"/>
			<point x="866" y="383"/>
			<point x="887" y="383"/>
			<point x="914" y="410"/>
			<point x="914" y="428"/>
			<point x="823" y="528"/>
			<point x="817" y="531" type="qcurve"/>
			<point x="864" y="608"/>
			<point x="887" y="690" type="qcurve" smooth="yes"/>
			<point x="889" y="695"/>
			<point x="897" y="707"/>
			<point x="897" y="723"/>
			<point x="869" y="745"/>
			<point x="850" y="745" type="qcurve" smooth="yes"/>
			<point x="842" y="745" type="line" smooth="yes"/>
			<point x="838" y="745"/>
			<point x="834" y="744" type="qcurve"/>
			<point x="701" y="731" type="line" smooth="yes"/>
			<point x="695" y="730"/>
			<point x="688" y="730" type="qcurve" smooth="yes"/>
			<point x="671" y="730" type="line" smooth="yes"/>
			<point x="660" y="730"/>
			<point x="639" y="732" type="qcurve" smooth="yes"/>
			<point x="634" y="732" type="line" smooth="yes"/>
			<point x="629" y="732"/>
			<point x="629" y="725"/>
			<point x="642" y="699"/>
			<point x="662" y="680"/>
			<point x="688" y="680"/>
			<point x="707" y="682" type="qcurve" smooth="yes"/>
			<point x="826" y="692" type="line"/>
			<point x="812" y="628"/>
			<point x="778" y="567" type="qcurve"/>
			<point x="691" y="653"/>
			<point x="677" y="653" type="qcurve" smooth="yes"/>
		</contour>
		<contour>
			<point x="345" y="718"/>
			<point x="345" y="710"/>
			<point x="346" y="708" type="qcurve" smooth="yes"/>
			<point x="355" y="682"/>
			<point x="371" y="671" type="qcurve"/>
			<point x="380" y="663"/>
			<point x="405" y="663"/>
			<point x="420" y="665" type="qcurve" smooth="yes"/>
			<point x="546" y="674" type="line"/>
			<point x="535" y="625"/>
			<point x="503" y="566" type="qcurve"/>
			<point x="421" y="644"/>
			<point x="394" y="644"/>
			<point x="376" y="617"/>
			<point x="376" y="610"/>
			<point x="383" y="602" type="qcurve"/>
			<point x="414" y="577"/>
			<point x="473" y="520" type="qcurve"/>
			<point x="422" y="442"/>
			<point x="367" y="396" type="qcurve" smooth="yes"/>
			<point x="339" y="374"/>
			<point x="339" y="360"/>
			<point x="351" y="360"/>
			<point x="359" y="362"/>
			<point x="366" y="364" type="qcurve"/>
			<point x="376" y="369" type="line" smooth="yes"/>
			<point x="449" y="410"/>
			<point x="507" y="486" type="qcurve"/>
			<point x="549" y="439"/>
			<point x="578" y="402"/>
			<point x="597" y="402"/>
			<point x="621" y="427"/>
			<point x="621" y="441"/>
			<point x="607" y="463"/>
			<point x="540" y="528" type="qcurve"/>
			<point x="581" y="593"/>
			<point x="610" y="681"/>
			<point x="620" y="691"/>
			<point x="620" y="706"/>
			<point x="585" y="726"/>
			<point x="570" y="726" type="qcurve" smooth="yes"/>
			<point x="563" y="726" type="line" smooth="yes"/>
			<point x="558" y="726"/>
			<point x="552" y="725" type="qcurve" smooth="yes"/>
			<point x="414" y="716" type="line"/>
			<point x="387" y="715" type="line" smooth="yes"/>
			<point x="371" y="715"/>
			<point x="351" y="718" type="qcurve"/>
		</contour>
		<contour>
			<point x="705" y="350" type="line" smooth="yes"/>
			<point x="697" y="349"/>
			<point x="689" y="349" type="qcurve" smooth="yes"/>
			<point x="669" y="349" type="line" smooth="yes"/>
			<point x="658" y="349"/>
			<point x="643" y="351" type="qcurve" smooth="yes"/>
			<point x="639" y="351" type="line" smooth="yes"/>
			<point x="634" y="351"/>
			<point x="634" y="340"/>
			<point x="643" y="322" type="qcurve" smooth="yes"/>
			<point x="656" y="296"/>
			<point x="690" y="296" type="qcurve" smooth="yes"/>
			<point x="708" y="297" type="line"/>
			<point x="835" y="306" type="line"/>
			<point x="817" y="234"/>
			<point x="768" y="153" type="qcurve"/>
			<point x="724" y="212"/>
			<point x="696" y="265" type="qcurve" smooth="yes"/>
			<point x="690" y="276"/>
			<point x="669" y="276"/>
			<point x="644" y="262"/>
			<point x="644" y="249"/>
			<point x="648" y="243"/>
			<point x="648" y="239" type="qcurve"/>
			<point x="683" y="172"/>
			<point x="733" y="106" type="qcurve"/>
			<point x="658" y="4"/>
			<point x="570" y="-55" type="qcurve" smooth="yes"/>
			<point x="548" y="-69"/>
			<point x="548" y="-78" type="qcurve" smooth="yes"/>
			<point x="548" y="-84"/>
			<point x="563" y="-84"/>
			<point x="622" y="-60"/>
			<point x="713" y="4"/>
			<point x="765" y="64" type="qcurve"/>
			<point x="806" y="19"/>
			<point x="928" y="-83"/>
			<point x="939" y="-83" type="qcurve" smooth="yes"/>
			<point x="959" y="-83"/>
			<point x="984" y="-55" type="qcurve" smooth="yes"/>
			<point x="993" y="-44"/>
			<point x="993" y="-36"/>
			<point x="986" y="-34" type="qcurve"/>
			<point x="897" y="16"/>
			<point x="803" y="109" type="qcurve"/>
			<point x="861" y="191"/>
			<point x="895" y="299" type="qcurve" smooth="yes"/>
			<point x="897" y="304"/>
			<point x="906" y="318"/>
			<point x="906" y="336"/>
			<point x="878" y="360"/>
			<point x="859" y="360" type="qcurve" smooth="yes"/>
			<point x="846" y="359" type="line"/>
		</contour>
		<contour>
			<point x="403" y="239"/>
			<point x="382" y="213"/>
			<point x="382" y="203"/>
			<point x="390" y="196" type="qcurve" smooth="yes"/>
			<point x="412" y="178"/>
			<point x="457" y="130" type="qcurve"/>
			<point x="385" y="35"/>
			<point x="323" y="-14" type="qcurve" smooth="yes"/>
			<point x="292" y="-40"/>
			<point x="292" y="-49" type="qcurve" smooth="yes"/>
			<point x="292" y="-54"/>
			<point x="306" y="-54"/>
			<point x="337" y="-39" type="qcurve" smooth="yes"/>
			<point x="423" y="3"/>
			<point x="495" y="93" type="qcurve"/>
			<point x="511" y="74"/>
			<point x="543" y="39"/>
			<point x="566" y="9"/>
			<point x="589" y="9"/>
			<point x="611" y="37"/>
			<point x="611" y="49"/>
			<point x="597" y="71"/>
			<point x="527" y="137" type="qcurve"/>
			<point x="570" y="198"/>
			<point x="603" y="290" type="qcurve" smooth="yes"/>
			<point x="605" y="294"/>
			<point x="613" y="303"/>
			<point x="613" y="320"/>
			<point x="585" y="342"/>
			<point x="568" y="342" type="qcurve" smooth="yes"/>
			<point x="548" y="341" type="line"/>
			<point x="411" y="331" type="line" smooth="yes"/>
			<point x="401" y="330"/>
			<point x="394" y="330" type="qcurve" smooth="yes"/>
			<point x="376" y="330" type="line" smooth="yes"/>
			<point x="367" y="330"/>
			<point x="350" y="332" type="qcurve" smooth="yes"/>
			<point x="345" y="332" type="line" smooth="yes"/>
			<point x="339" y="332"/>
			<point x="339" y="326"/>
			<point x="348" y="301"/>
			<point x="372" y="279"/>
			<point x="395" y="279" type="qcurve" smooth="yes"/>
			<point x="412" y="280" type="line"/>
			<point x="542" y="290" type="line"/>
			<point x="524" y="233"/>
			<point x="488" y="175" type="qcurve"/>
			<point x="425" y="239"/>
			<point x="410" y="239" type="qcurve" smooth="yes"/>
		</contour>
		<contour>
			<point x="186" y="169" type="line"/>
			<point x="111" y="129"/>
			<point x="69" y="118"/>
			<point x="39" y="116"/>
			<point x="39" y="109" type="qcurve" smooth="yes"/>
			<point x="39" y="100"/>
			<point x="65" y="68"/>
			<point x="79" y="61" type="qcurve"/>
			<point x="90" y="50"/>
			<point x="103" y="50" type="qcurve" smooth="yes"/>
			<point x="124" y="50"/>
			<point x="211" y="114" type="qcurve" smooth="yes"/>
			<point x="262" y="153"/>
			<point x="363" y="246"/>
			<point x="363" y="261" type="qcurve" smooth="yes"/>
			<point x="363" y="267"/>
			<point x="346" y="267"/>
			<point x="309" y="243"/>
			<point x="266" y="215"/>
			<point x="244" y="203" type="qcurve"/>
			<point x="246" y="447" type="line"/>
			<point x="349" y="455" type="line" smooth="yes"/>
			<point x="370" y="457"/>
			<point x="370" y="470" type="qcurve" smooth="yes"/>
			<point x="370" y="476"/>
			<point x="352" y="499"/>
			<point x="327" y="517"/>
			<point x="313" y="517"/>
			<point x="294" y="508"/>
			<point x="270" y="506" type="qcurve" smooth="yes"/>
			<point x="246" y="504" type="line"/>
			<point x="248" y="713" type="line" smooth="yes"/>
			<point x="248" y="734"/>
			<point x="204" y="745" type="qcurve" smooth="yes"/>
			<point x="188" y="749"/>
			<point x="168" y="749"/>
			<point x="168" y="741" type="qcurve" smooth="yes"/>
			<point x="168" y="736"/>
			<point x="186" y="708"/>
			<point x="186" y="684" type="qcurve" smooth="yes"/>
			<point x="186" y="499" type="line"/>
			<point x="119" y="494" type="line"/>
			<point x="107" y="494" type="line" smooth="yes"/>
			<point x="84" y="494"/>
			<point x="63" y="500"/>
			<point x="54" y="500"/>
			<point x="54" y="492"/>
			<point x="57" y="486" type="qcurve" smooth="yes"/>
			<point x="71" y="450"/>
			<point x="104" y="437"/>
			<point x="114" y="437" type="qcurve" smooth="yes"/>
			<point x="125" y="437" type="line" smooth="yes"/>
			<point x="131" y="437"/>
			<point x="138" y="438" type="qcurve" smooth="yes"/>
			<point x="186" y="442" type="line"/>
		</contour>
	</outline>
</glyph>
<glyph name="uni3666" format="2">
	<advance width="1000"/>
	<unicode hex="3666"/>
	<note>
		uni3666
	</note>
	<outline>
		<contour>
			<point x="337" y="733" type="line"/>
			<point x="345" y="747"/>
			<point x="352" y="755" type="qcurve"/>
			<point x="354" y="759"/>
			<point x="354" y="768"/>
			<point x="334" y="793"/>
			<point x="307" y="814"/>
			<point x="286" y="814"/>
			<point x="286" y="802" type="qcurve" smooth="yes"/>
			<point x="286" y="792" type="line" smooth="yes"/>
			<point x="286" y="771"/>
			<point x="275" y="752" type="qcurve" smooth="yes"/>
			<point x="240" y="694"/>
			<point x="127" y="562"/>
			<point x="62" y="505" type="qcurve" smooth="yes"/>
			<point x="45" y="490"/>
			<point x="45" y="483" type="qcurve" smooth="yes"/>
			<point x="45" y="478"/>
			<point x="62" y="478"/>
			<point x="88" y="493" type="qcurve" smooth="yes"/>
			<point x="155" y="530"/>
			<point x="223" y="597" type="qcurve" smooth="yes"/>
			<point x="277" y="650"/>
			<point x="310" y="697" type="qcurve" smooth="yes"/>
		</contour>
		<contour>
			<point x="53" y="270"/>
			<point x="53" y="262" type="qcurve" smooth="yes"/>
			<point x="53" y="256"/>
			<point x="64" y="256" type="qcurve" smooth="yes"/>
			<point x="94" y="256"/>
			<point x="180" y="320" type="qcurve" smooth="yes"/>
			<point x="227" y="356"/>
			<point x="227" y="367" type="qcurve" smooth="yes"/>
			<point x="227" y="382"/>
			<point x="198" y="402" type="qcurve" smooth="yes"/>
			<point x="186" y="411"/>
			<point x="170" y="411"/>
			<point x="166" y="389"/>
			<point x="161" y="375" type="qcurve" smooth="yes"/>
			<point x="149" y="342"/>
			<point x="70" y="282" type="qcurve" smooth="yes"/>
		</contour>
		<contour>
			<point x="187" y="584" type="line"/>
			<point x="187" y="581"/>
			<point x="191" y="571" type="qcurve" smooth="yes"/>
			<point x="195" y="560"/>
			<point x="208" y="547" type="qcurve" smooth="yes"/>
			<point x="213" y="542"/>
			<point x="228" y="542" type="qcurve" smooth="yes"/>
			<point x="251" y="543" type="line"/>
			<point x="287" y="545" type="line"/>
			<point x="288" y="484" type="line"/>
			<point x="162" y="476" type="line"/>
			<point x="152" y="476" type="line"/>
			<point x="118" y="480" type="line"/>
			<point x="110" y="480"/>
			<point x="110" y="475" type="qcurve" smooth="yes"/>
			<point x="110" y="468"/>
			<point x="123" y="444"/>
			<point x="137" y="428"/>
			<point x="152" y="428" type="qcurve" smooth="yes"/>
			<point x="175" y="429" type="line"/>
			<point x="288" y="436" type="line"/>
			<point x="289" y="280" type="line"/>
			<point x="257" y="285"/>
			<point x="212" y="304"/>
			<point x="192" y="304"/>
			<point x="192" y="294"/>
			<point x="219" y="268"/>
			<point x="257" y="239"/>
			<point x="296" y="218"/>
			<point x="318" y="218"/>
			<point x="342" y="239"/>
			<point x="342" y="259" type="qcurve" smooth="yes"/>
			<point x="342" y="288" type="line"/>
			<point x="340" y="439" type="line"/>
			<point x="507" y="450" type="line" smooth="yes"/>
			<point x="525" y="451"/>
			<point x="525" y="462" type="qcurve" smooth="yes"/>
			<point x="525" y="475"/>
			<point x="504" y="494" type="qcurve"/>
			<point x="493" y="501"/>
			<point x="482" y="501"/>
			<point x="466" y="495"/>
			<point x="443" y="492" type="qcurve"/>
			<point x="340" y="486" type="line"/>
			<point x="339" y="549" type="line"/>
			<point x="421" y="554" type="line"/>
			<point x="439" y="557"/>
			<point x="439" y="566" type="qcurve" smooth="yes"/>
			<point x="439" y="580"/>
			<point x="416" y="597" type="qcurve"/>
			<point x="408" y="605"/>
			<point x="396" y="605"/>
			<point x="380" y="600"/>
			<point x="357" y="597" type="qcurve"/>
			<point x="238" y="589" type="line"/>
			<point x="228" y="589" type="line" smooth="yes"/>
			<point x="208" y="589"/>
			<point x="196" y="593" type="qcurve"/>
		</contour>
		<contour>
			<point x="799" y="455" type="line"/>
			<point x="600" y="410" type="line" smooth="yes"/>
			<point x="584" y="407"/>
			<point x="569" y="407" type="qcurve" smooth="yes"/>
			<point x="556" y="407" type="line" smooth="yes"/>
			<point x="549" y="407"/>
			<point x="549" y="401" type="qcurve" smooth="yes"/>
			<point x="549" y="400"/>
			<point x="552" y="394"/>
			<point x="552" y="389" type="qcurve"/>
			<point x="573" y="353"/>
			<point x="596" y="353"/>
			<point x="611" y="357"/>
			<point x="620" y="359" type="qcurve" smooth="yes"/>
			<point x="798" y="401" type="line"/>
		</contour>
		<contour>
			<point x="750" y="391" type="line"/>
			<point x="750" y="324" type="line" smooth="yes"/>
			<point x="750" y="295"/>
			<point x="745" y="261"/>
			<point x="745" y="257" type="qcurve" smooth="yes"/>
			<point x="745" y="251" type="line" smooth="yes"/>
			<point x="745" y="227"/>
			<point x="775" y="218" type="qcurve" smooth="yes"/>
			<point x="787" y="215"/>
			<point x="788" y="215" type="qcurve" smooth="yes"/>
			<point x="802" y="215"/>
			<point x="802" y="235" type="qcurve" smooth="yes"/>
			<point x="802" y="403" type="line"/>
			<point x="920" y="430" type="line" smooth="yes"/>
			<point x="940" y="435"/>
			<point x="940" y="459"/>
			<point x="907" y="485"/>
			<point x="888" y="485"/>
			<point x="860" y="470"/>
			<point x="850" y="468" type="qcurve" smooth="yes"/>
			<point x="802" y="457" type="line"/>
			<point x="803" y="765" type="line" smooth="yes"/>
			<point x="803" y="791"/>
			<point x="763" y="798" type="qcurve" smooth="yes"/>
			<point x="750" y="801"/>
			<point x="738" y="801"/>
			<point x="738" y="790"/>
			<point x="751" y="765"/>
			<point x="751" y="746" type="qcurve" smooth="yes"/>
			<point x="751" y="446" type="line"/>
		</contour>
		<contour>
			<point x="713" y="616"/>
			<point x="724" y="644" type="qcurve" smooth="yes"/>
			<point x="727" y="654" type="line"/>
			<point x="727" y="672"/>
			<point x="623" y="752"/>
			<point x="603" y="752"/>
			<point x="588" y="728"/>
			<point x="588" y="713"/>
			<point x="601" y="704" type="qcurve" smooth="yes"/>
			<point x="647" y="668"/>
			<point x="691" y="616"/>
			<point x="700" y="616" type="qcurve" smooth="yes"/>
		</contour>
		<contour>
			<point x="678" y="468"/>
			<point x="700" y="496"/>
			<point x="700" y="521"/>
			<point x="659" y="555" type="qcurve" smooth="yes"/>
			<point x="591" y="609"/>
			<point x="574" y="609" type="qcurve" smooth="yes"/>
			<point x="571" y="609"/>
			<point x="552" y="591"/>
			<point x="552" y="569"/>
			<point x="566" y="560" type="qcurve" smooth="yes"/>
			<point x="613" y="525"/>
			<point x="665" y="468"/>
		</contour>
		<contour>
			<point x="284" y="728" type="line"/>
			<point x="372" y="670"/>
			<point x="474" y="582" type="qcurve" smooth="yes"/>
			<point x="485" y="573"/>
			<point x="505" y="573"/>
			<point x="525" y="605"/>
			<point x="525" y="623"/>
			<point x="512" y="632" type="qcurve" smooth="yes"/>
			<point x="403" y="710"/>
			<point x="311" y="764" type="qcurve"/>
		</contour>
		<contour>
			<point x="205" y="163"/>
			<point x="205" y="155"/>
			<point x="206" y="153" type="qcurve" smooth="yes"/>
			<point x="218" y="119"/>
			<point x="257" y="106"/>
			<point x="274" y="106" type="qcurve" smooth="yes"/>
			<point x="290" y="106" type="line"/>
			<point x="470" y="112" type="line"/>
			<point x="469" y="10" type="line"/>
			<point x="107" y="0" type="line"/>
			<point x="100" y="0" type="line" smooth="yes"/>
			<point x="79" y="0"/>
			<point x="51" y="8"/>
			<point x="43" y="8"/>
			<point x="43" y="1"/>
			<point x="44" y="-1" type="qcurve" smooth="yes"/>
			<point x="57" y="-38"/>
			<point x="90" y="-53"/>
			<point x="105" y="-53" type="qcurve" smooth="yes"/>
			<point x="127" y="-52" type="line"/>
			<point x="935" y="-31" type="line"/>
			<point x="959" y="-29"/>
			<point x="959" y="-1"/>
			<point x="930" y="21" type="qcurve" smooth="yes"/>
			<point x="919" y="30"/>
			<point x="903" y="30"/>
			<point x="876" y="20"/>
			<point x="851" y="20" type="qcurve" smooth="yes"/>
			<point x="528" y="11" type="line"/>
			<point x="530" y="115" type="line"/>
			<point x="763" y="124" type="line" smooth="yes"/>
			<point x="787" y="126"/>
			<point x="787" y="139" type="qcurve" smooth="yes"/>
			<point x="787" y="155"/>
			<point x="755" y="176" type="qcurve" smooth="yes"/>
			<point x="743" y="184"/>
			<point x="729" y="184"/>
			<point x="703" y="174"/>
			<point x="677" y="172" type="qcurve" smooth="yes"/>
			<point x="531" y="166" type="line"/>
			<point x="532" y="214" type="line" smooth="yes"/>
			<point x="532" y="225"/>
			<point x="518" y="238"/>
			<point x="474" y="254"/>
			<point x="451" y="254"/>
			<point x="451" y="247" type="qcurve" smooth="yes"/>
			<point x="451" y="244"/>
			<point x="456" y="234" type="qcurve"/>
			<point x="470" y="214"/>
			<point x="470" y="190" type="qcurve" smooth="yes"/>
			<point x="470" y="164" type="line"/>
			<point x="267" y="157" type="line"/>
			<point x="257" y="157" type="line" smooth="yes"/>
			<point x="240" y="157"/>
			<point x="210" y="163" type="qcurve"/>
		</contour>
		<contour>
			<point x="502" y="275"/>
			<point x="522" y="275"/>
			<point x="540" y="305"/>
			<point x="540" y="318"/>
			<point x="516" y="343"/>
			<point x="480" y="373"/>
			<point x="441" y="401"/>
			<point x="410" y="419"/>
			<point x="396" y="419"/>
			<point x="381" y="394"/>
			<point x="381" y="381"/>
			<point x="392" y="372" type="qcurve" smooth="yes"/>
			<point x="441" y="336"/>
		</contour>
	</outline>
</glyph>
<glyph name="uni36C3" format="2">
	<advance width="1000"/>
	<unicode hex="36C3"/>
	<note>
		uni36C3
	</note>
	<outline>
		<contour>
			<point x="762" y="370" type="line" smooth="yes"/>
			<point x="707" y="381"/>
			<point x="642" y="412"/>
			<point x="621" y="412"/>
			<point x="621" y="408" type="qcurve" smooth="yes"/>
			<point x="621" y="392"/>
			<point x="687" y="344" type="qcurve" smooth="yes"/>
			<point x="751" y="293"/>
			<point x="780" y="293" type="qcurve" smooth="yes"/>
			<point x="794" y="293"/>
			<point x="828" y="326"/>
			<point x="839" y="364"/>
			<point x="843" y="387" type="qcurve" smooth="yes"/>
			<point x="870" y="515"/>
			<point x="880" y="681" type="qcurve" smooth="yes"/>
			<point x="881" y="687"/>
			<point x="887" y="700"/>
			<point x="887" y="719"/>
			<point x="864" y="737"/>
			<point x="843" y="737" type="qcurve" smooth="yes"/>
			<point x="836" y="737" type="line"/>
			<point x="546" y="715" type="line" smooth="yes"/>
			<point x="537" y="715"/>
			<point x="513" y="719" type="qcurve"/>
			<point x="508" y="719"/>
			<point x="508" y="720" type="qcurve" smooth="yes"/>
			<point x="508" y="715" type="line"/>
			<point x="514" y="691"/>
			<point x="538" y="669" type="qcurve" smooth="yes"/>
			<point x="546" y="661"/>
			<point x="565" y="661" type="qcurve" smooth="yes"/>
			<point x="585" y="662" type="line"/>
			<point x="657" y="669" type="line"/>
			<point x="626" y="540"/>
			<point x="563" y="447" type="qcurve" smooth="yes"/>
			<point x="534" y="404"/>
			<point x="484" y="340"/>
			<point x="484" y="333" type="qcurve" smooth="yes"/>
			<point x="484" y="329"/>
			<point x="502" y="329"/>
			<point x="535" y="354" type="qcurve" smooth="yes"/>
			<point x="670" y="457"/>
			<point x="723" y="675" type="qcurve"/>
			<point x="815" y="682" type="line"/>
			<point x="814" y="632"/>
			<point x="795" y="449"/>
			<point x="771" y="377" type="qcurve"/>
			<point x="771" y="371"/>
			<point x="765" y="369" type="qcurve"/>
		</contour>
		<contour>
			<point x="144" y="595"/>
			<point x="144" y="589" type="qcurve" smooth="yes"/>
			<point x="144" y="586"/>
			<point x="156" y="560"/>
			<point x="178" y="536"/>
			<point x="203" y="536"/>
			<point x="221" y="538" type="qcurve" smooth="yes"/>
			<point x="287" y="543" type="line"/>
			<point x="288" y="457" type="line"/>
			<point x="183" y="436"/>
			<point x="148" y="436" type="qcurve"/>
			<point x="115" y="440" type="line" smooth="yes"/>
			<point x="113" y="440"/>
			<point x="111" y="440" type="qcurve" smooth="yes"/>
			<point x="102" y="440"/>
			<point x="102" y="434" type="qcurve" smooth="yes"/>
			<point x="102" y="411"/>
			<point x="130" y="381" type="qcurve" smooth="yes"/>
			<point x="142" y="369"/>
			<point x="172" y="369"/>
			<point x="238" y="388"/>
			<point x="288" y="402" type="qcurve"/>
			<point x="288" y="394" type="line" smooth="yes"/>
			<point x="288" y="362"/>
			<point x="281" y="334"/>
			<point x="281" y="331" type="qcurve" smooth="yes"/>
			<point x="281" y="326" type="line" smooth="yes"/>
			<point x="281" y="305"/>
			<point x="319" y="283"/>
			<point x="330" y="283" type="qcurve" smooth="yes"/>
			<point x="346" y="283"/>
			<point x="346" y="307" type="qcurve" smooth="yes"/>
			<point x="345" y="420" type="line"/>
			<point x="412" y="442"/>
			<point x="528" y="484"/>
			<point x="528" y="497" type="qcurve" smooth="yes"/>
			<point x="528" y="504"/>
			<point x="507" y="504"/>
			<point x="459" y="492"/>
			<point x="383" y="476"/>
			<point x="345" y="468" type="qcurve"/>
			<point x="344" y="547" type="line"/>
			<point x="472" y="557" type="line"/>
			<point x="492" y="560"/>
			<point x="492" y="569" type="qcurve" smooth="yes"/>
			<point x="492" y="584"/>
			<point x="462" y="604" type="qcurve" smooth="yes"/>
			<point x="451" y="611"/>
			<point x="439" y="611"/>
			<point x="421" y="603"/>
			<point x="406" y="602" type="qcurve" smooth="yes"/>
			<point x="344" y="598" type="line"/>
			<point x="344" y="661" type="line"/>
			<point x="492" y="670" type="line" smooth="yes"/>
			<point x="508" y="672"/>
			<point x="508" y="682" type="qcurve" smooth="yes"/>
			<point x="508" y="697"/>
			<point x="478" y="717" type="qcurve" smooth="yes"/>
			<point x="465" y="725"/>
			<point x="448" y="725"/>
			<point x="425" y="717"/>
			<point x="400" y="715" type="qcurve" smooth="yes"/>
			<point x="343" y="711" type="line"/>
			<point x="343" y="773" type="line" smooth="yes"/>
			<point x="343" y="784"/>
			<point x="333" y="798"/>
			<point x="294" y="810"/>
			<point x="273" y="810"/>
			<point x="273" y="803" type="qcurve" smooth="yes"/>
			<point x="273" y="799"/>
			<point x="286" y="771"/>
			<point x="286" y="749" type="qcurve" smooth="yes"/>
			<point x="286" y="707" type="line"/>
			<point x="177" y="699" type="line"/>
			<point x="167" y="699" type="line" smooth="yes"/>
			<point x="143" y="699"/>
			<point x="116" y="704" type="qcurve" smooth="yes"/>
			<point x="114" y="704" type="line" smooth="yes"/>
			<point x="109" y="704"/>
			<point x="109" y="699" type="qcurve" smooth="yes"/>
			<point x="109" y="698"/>
			<point x="117" y="673"/>
			<point x="138" y="649"/>
			<point x="169" y="649"/>
			<point x="195" y="651" type="qcurve" smooth="yes"/>
			<point x="287" y="657" type="line"/>
			<point x="287" y="594" type="line"/>
			<point x="202" y="588" type="line"/>
			<point x="195" y="588" type="line" smooth="yes"/>
			<point x="177" y="588"/>
			<point x="149" y="595" type="qcurve"/>
		</contour>
		<contour>
			<point x="332" y="80"/>
			<point x="447" y="43" type="qcurve"/>
			<point x="334" y="-27"/>
			<point x="126" y="-60" type="qcurve" smooth="yes"/>
			<point x="96" y="-66"/>
			<point x="96" y="-88"/>
			<point x="125" y="-88" type="qcurve" smooth="yes"/>
			<point x="130" y="-88" type="line" smooth="yes"/>
			<point x="234" y="-83"/>
			<point x="434" y="-36"/>
			<point x="516" y="20" type="qcurve"/>
			<point x="633" y="-20"/>
			<point x="798" y="-90"/>
			<point x="804" y="-90" type="qcurve" smooth="yes"/>
			<point x="822" y="-90"/>
			<point x="828" y="-56" type="qcurve" smooth="yes"/>
			<point x="831" y="-44" type="line"/>
			<point x="831" y="-32"/>
			<point x="814" y="-25" type="qcurve" smooth="yes"/>
			<point x="692" y="24"/>
			<point x="571" y="62" type="qcurve"/>
			<point x="637" y="122"/>
			<point x="686" y="201" type="qcurve"/>
			<point x="929" y="212" type="line"/>
			<point x="952" y="215"/>
			<point x="952" y="225" type="qcurve" smooth="yes"/>
			<point x="952" y="240"/>
			<point x="920" y="263" type="qcurve" smooth="yes"/>
			<point x="907" y="272"/>
			<point x="893" y="272"/>
			<point x="873" y="264"/>
			<point x="848" y="262" type="qcurve" smooth="yes"/>
			<point x="440" y="243" type="line"/>
			<point x="477" y="291"/>
			<point x="477" y="313"/>
			<point x="432" y="351"/>
			<point x="413" y="351"/>
			<point x="413" y="333" type="qcurve" smooth="yes"/>
			<point x="413" y="328"/>
			<point x="405" y="295"/>
			<point x="365" y="240" type="qcurve"/>
			<point x="112" y="228" type="line"/>
			<point x="103" y="228" type="line" smooth="yes"/>
			<point x="81" y="228"/>
			<point x="59" y="236"/>
			<point x="52" y="236"/>
			<point x="52" y="231" type="qcurve" smooth="yes"/>
			<point x="52" y="210"/>
			<point x="78" y="184" type="qcurve" smooth="yes"/>
			<point x="88" y="174"/>
			<point x="113" y="174" type="qcurve" smooth="yes"/>
			<point x="131" y="175" type="line"/>
			<point x="321" y="184" type="line"/>
			<point x="306" y="166"/>
			<point x="275" y="135"/>
			<point x="275" y="121" type="qcurve" smooth="yes"/>
			<point x="275" y="116" type="line" smooth="yes"/>
			<point x="275" y="80"/>
			<point x="315" y="80" type="qcurve" smooth="yes"/>
		</contour>
		<contour>
			<point x="369" y="154"/>
			<point x="397" y="187" type="qcurve"/>
			<point x="608" y="197" type="line"/>
			<point x="565" y="132"/>
			<point x="504" y="83" type="qcurve"/>
			<point x="448" y="101"/>
			<point x="343" y="127" type="qcurve"/>
		</contour>
	</outline>
</glyph>
<glyph name="uni36F9" format="2">
	<advance width="1000"/>
	<unicode hex="36F9"/>
	<note>
		uni36F9
	</note>
	<outline>
		<contour>
			<point x="457" y="712" type="line" smooth="yes"/>
			<point x="439" y="610"/>
			<point x="374" y="419"/>
			<point x="326" y="321"/>
			<point x="326" y="301"/>
			<point x="334" y="301"/>
			<point x="356" y="328"/>
			<point x="396" y="388"/>
			<point x="406" y="417" type="qcurve"/>
			<point x="404" y="56" type="line" smooth="yes"/>
			<point x="404" y="8"/>
			<point x="398" y="-20"/>
			<point x="398" y="-26"/>
			<point x="398" y="-29" type="qcurve" smooth="yes"/>
			<point x="398" y="-53"/>
			<point x="429" y="-63" type="qcurve" smooth="yes"/>
			<point x="440" y="-67"/>
			<point x="450" y="-67"/>
			<point x="460" y="-55"/>
			<point x="460" y="-47" type="qcurve" smooth="yes"/>
			<point x="458" y="515" type="line"/>
			<point x="476" y="564"/>
			<point x="526" y="720"/>
			<point x="526" y="729" type="qcurve" smooth="yes"/>
			<point x="526" y="750"/>
			<point x="485" y="765" type="qcurve" smooth="yes"/>
			<point x="470" y="771"/>
			<point x="458" y="771"/>
			<point x="458" y="763" type="qcurve"/>
			<point x="461" y="751"/>
			<point x="461" y="744" type="qcurve"/>
		</contour>
		<contour>
			<point x="539" y="717"/>
			<point x="539" y="711" type="qcurve" smooth="yes"/>
			<point x="539" y="709"/>
			<point x="549" y="685"/>
			<point x="574" y="664"/>
			<point x="595" y="664" type="qcurve" smooth="yes"/>
			<point x="604" y="664" type="line"/>
			<point x="686" y="669" type="line"/>
			<point x="688" y="631"/>
			<point x="688" y="589" type="qcurve"/>
			<point x="586" y="583" type="line"/>
			<point x="549" y="595"/>
			<point x="520" y="595"/>
			<point x="520" y="588" type="qcurve" smooth="yes"/>
			<point x="520" y="584"/>
			<point x="535" y="554"/>
			<point x="536" y="528" type="qcurve"/>
			<point x="555" y="334" type="line"/>
			<point x="555" y="321" type="line" smooth="yes"/>
			<point x="555" y="303"/>
			<point x="552" y="291" type="qcurve"/>
			<point x="552" y="283" type="line" smooth="yes"/>
			<point x="552" y="265"/>
			<point x="587" y="248"/>
			<point x="596" y="248" type="qcurve" smooth="yes"/>
			<point x="609" y="248"/>
			<point x="609" y="265" type="qcurve" smooth="yes"/>
			<point x="609" y="268" type="line"/>
			<point x="608" y="276" type="line"/>
			<point x="678" y="278" type="line"/>
			<point x="673" y="230"/>
			<point x="655" y="164" type="qcurve"/>
			<point x="647" y="174"/>
			<point x="639" y="180"/>
			<point x="635" y="183" type="qcurve" smooth="yes"/>
			<point x="606" y="211"/>
			<point x="557" y="228"/>
			<point x="522" y="228" type="qcurve" smooth="yes"/>
			<point x="516" y="228" type="line" smooth="yes"/>
			<point x="501" y="228"/>
			<point x="491" y="222"/>
			<point x="490" y="203" type="qcurve" smooth="yes"/>
			<point x="490" y="200" type="line" smooth="yes"/>
			<point x="490" y="183"/>
			<point x="507" y="177"/>
			<point x="541" y="177"/>
			<point x="557" y="174" type="qcurve" smooth="yes"/>
			<point x="591" y="166"/>
			<point x="636" y="118" type="qcurve"/>
			<point x="590" y="20"/>
			<point x="500" y="-49" type="qcurve"/>
			<point x="483" y="-64"/>
			<point x="483" y="-80"/>
			<point x="496" y="-80"/>
			<point x="557" y="-49"/>
			<point x="638" y="22"/>
			<point x="676" y="84" type="qcurve"/>
			<point x="802" y="-16"/>
			<point x="906" y="-65" type="qcurve" smooth="yes"/>
			<point x="946" y="-84"/>
			<point x="953" y="-84" type="qcurve" smooth="yes"/>
			<point x="972" y="-84"/>
			<point x="990" y="-56" type="qcurve" smooth="yes"/>
			<point x="996" y="-46" type="line"/>
			<point x="996" y="-36"/>
			<point x="980" y="-31" type="qcurve"/>
			<point x="821" y="33"/>
			<point x="698" y="132" type="qcurve"/>
			<point x="718" y="182"/>
			<point x="731" y="280" type="qcurve"/>
			<point x="874" y="286" type="line" smooth="yes"/>
			<point x="898" y="288"/>
			<point x="898" y="309"/>
			<point x="873" y="335" type="qcurve"/>
			<point x="899" y="547" type="line" smooth="yes"/>
			<point x="900" y="551"/>
			<point x="908" y="559"/>
			<point x="908" y="578"/>
			<point x="877" y="599"/>
			<point x="864" y="599" type="qcurve" smooth="yes"/>
			<point x="856" y="599" type="line"/>
			<point x="741" y="592" type="line"/>
			<point x="741" y="632" type="line" smooth="yes"/>
			<point x="741" y="653"/>
			<point x="740" y="673" type="qcurve"/>
			<point x="875" y="681" type="line" smooth="yes"/>
			<point x="904" y="683"/>
			<point x="904" y="694" type="qcurve" smooth="yes"/>
			<point x="904" y="711"/>
			<point x="871" y="730" type="qcurve" smooth="yes"/>
			<point x="859" y="736"/>
			<point x="848" y="736"/>
			<point x="823" y="729"/>
			<point x="803" y="728" type="qcurve" smooth="yes"/>
			<point x="593" y="714" type="line"/>
			<point x="580" y="714" type="line"/>
			<point x="545" y="717" type="line" smooth="yes"/>
		</contour>
		<contour>
			<point x="834" y="470" type="line"/>
			<point x="741" y="465" type="line"/>
			<point x="742" y="485"/>
			<point x="742" y="504" type="qcurve" smooth="yes"/>
			<point x="742" y="544" type="line"/>
			<point x="841" y="549" type="line"/>
		</contour>
		<contour>
			<point x="593" y="458" type="line"/>
			<point x="586" y="535" type="line"/>
			<point x="689" y="540" type="line"/>
			<point x="689" y="502" type="line" smooth="yes"/>
			<point x="689" y="482"/>
			<point x="688" y="462" type="qcurve"/>
		</contour>
		<contour>
			<point x="831" y="423" type="line"/>
			<point x="823" y="333" type="line"/>
			<point x="735" y="329" type="line"/>
			<point x="740" y="373"/>
			<point x="740" y="419" type="qcurve"/>
		</contour>
		<contour>
			<point x="603" y="324" type="line"/>
			<point x="598" y="412" type="line"/>
			<point x="687" y="416" type="line"/>
			<point x="687" y="369"/>
			<point x="682" y="327" type="qcurve"/>
		</contour>
		<contour>
			<point x="343" y="552" type="line"/>
			<point x="343" y="554" type="line" smooth="yes"/>
			<point x="343" y="570"/>
			<point x="304" y="581" type="qcurve" smooth="yes"/>
			<point x="290" y="585"/>
			<point x="277" y="585"/>
			<point x="277" y="576"/>
			<point x="283" y="562"/>
			<point x="283" y="546" type="qcurve" smooth="yes"/>
			<point x="283" y="537" type="line"/>
			<point x="281" y="515" type="line"/>
			<point x="213" y="507" type="line"/>
			<point x="233" y="607"/>
			<point x="250" y="733" type="qcurve" smooth="yes"/>
			<point x="250" y="735" type="line" smooth="yes"/>
			<point x="250" y="756"/>
			<point x="208" y="767" type="qcurve" smooth="yes"/>
			<point x="192" y="771"/>
			<point x="178" y="771"/>
			<point x="178" y="765" type="qcurve" smooth="yes"/>
			<point x="178" y="764"/>
			<point x="185" y="746"/>
			<point x="185" y="733" type="qcurve" smooth="yes"/>
			<point x="185" y="728" type="line" smooth="yes"/>
			<point x="185" y="725"/>
			<point x="165" y="575"/>
			<point x="152" y="502" type="qcurve"/>
			<point x="83" y="498" type="line"/>
			<point x="70" y="498" type="line"/>
			<point x="32" y="502" type="line" smooth="yes"/>
			<point x="25" y="502"/>
			<point x="25" y="496" type="qcurve"/>
			<point x="29" y="481"/>
			<point x="44" y="458" type="qcurve" smooth="yes"/>
			<point x="56" y="442"/>
			<point x="78" y="442" type="qcurve" smooth="yes"/>
			<point x="82" y="442"/>
			<point x="142" y="450" type="qcurve"/>
			<point x="124" y="363"/>
			<point x="106" y="292"/>
			<point x="106" y="256"/>
			<point x="121" y="248" type="qcurve" smooth="yes"/>
			<point x="143" y="237"/>
			<point x="183" y="194"/>
			<point x="198" y="180" type="qcurve"/>
			<point x="141" y="67"/>
			<point x="55" y="-7" type="qcurve" smooth="yes"/>
			<point x="36" y="-24"/>
			<point x="36" y="-33" type="qcurve" smooth="yes"/>
			<point x="36" y="-38"/>
			<point x="55" y="-38"/>
			<point x="122" y="4"/>
			<point x="205" y="85"/>
			<point x="238" y="143" type="qcurve"/>
			<point x="265" y="114"/>
			<point x="299" y="72" type="qcurve" smooth="yes"/>
			<point x="311" y="57"/>
			<point x="328" y="57"/>
			<point x="353" y="84"/>
			<point x="353" y="94" type="qcurve" smooth="yes"/>
			<point x="353" y="115"/>
			<point x="265" y="195" type="qcurve"/>
			<point x="286" y="246" type="line" smooth="yes"/>
			<point x="313" y="317"/>
			<point x="336" y="495" type="qcurve"/>
			<point x="346" y="498" type="line" smooth="yes"/>
			<point x="374" y="506"/>
			<point x="374" y="518" type="qcurve" smooth="yes"/>
			<point x="374" y="526"/>
			<point x="350" y="526"/>
			<point x="340" y="524" type="qcurve"/>
		</contour>
		<contour>
			<point x="208" y="244"/>
			<point x="177" y="274"/>
			<point x="161" y="286" type="qcurve"/>
			<point x="182" y="363"/>
			<point x="203" y="461" type="qcurve"/>
			<point x="221" y="465"/>
			<point x="258" y="474"/>
			<point x="277" y="478" type="qcurve"/>
			<point x="260" y="324"/>
			<point x="224" y="231" type="qcurve"/>
		</contour>
	</outline>
</glyph>
<glyph name="uni37C3" format="2">
	<advance width="1000"/>
	<unicode hex="37C3"/>
	<note>
		uni37C3
	</note>
	<outline>
		<contour>
			<point x="333" y="130"/>
			<point x="363" y="110"/>
			<point x="397" y="110"/>
			<point x="397" y="127" type="qcurve" smooth="yes"/>
			<point x="402" y="517" type="line" smooth="yes"/>
			<point x="402" y="529"/>
			<point x="391" y="541"/>
			<point x="351" y="555"/>
			<point x="328" y="555"/>
			<point x="328" y="548" type="qcurve" smooth="yes"/>
			<point x="328" y="545"/>
			<point x="344" y="517"/>
			<point x="344" y="496" type="qcurve" smooth="yes"/>
			<point x="340" y="238" type="line"/>
			<point x="272" y="228" type="line"/>
			<point x="275" y="693" type="line" smooth="yes"/>
			<point x="275" y="719"/>
			<point x="228" y="726" type="qcurve" smooth="yes"/>
			<point x="212" y="729"/>
			<point x="200" y="729"/>
			<point x="200" y="720"/>
			<point x="216" y="699"/>
			<point x="216" y="671" type="qcurve" smooth="yes"/>
			<point x="215" y="220" type="line"/>
			<point x="151" y="210" type="line"/>
			<point x="157" y="487" type="line" smooth="yes"/>
			<point x="157" y="498"/>
			<point x="147" y="510"/>
			<point x="108" y="524"/>
			<point x="84" y="524"/>
			<point x="84" y="513"/>
			<point x="101" y="492"/>
			<point x="101" y="467" type="qcurve" smooth="yes"/>
			<point x="97" y="255" type="line"/>
			<point x="96" y="237" type="line"/>
			<point x="86" y="186" type="line"/>
			<point x="86" y="168"/>
			<point x="119" y="146"/>
			<point x="135" y="146"/>
			<point x="152" y="152"/>
			<point x="164" y="154" type="qcurve" smooth="yes"/>
			<point x="339" y="184" type="line"/>
			<point x="338" y="174"/>
			<point x="337" y="165" type="qcurve" smooth="yes"/>
			<point x="333" y="141" type="line"/>
		</contour>
		<contour>
			<point x="658" y="225" type="line"/>
			<point x="554" y="220" type="line"/>
			<point x="545" y="337" type="line"/>
			<point x="670" y="345" type="line"/>
		</contour>
		<contour>
			<point x="733" y="351" type="line" smooth="yes"/>
			<point x="734" y="355"/>
			<point x="738" y="364"/>
			<point x="738" y="370"/>
			<point x="734" y="378" type="qcurve" smooth="yes"/>
			<point x="725" y="400"/>
			<point x="696" y="400" type="qcurve" smooth="yes"/>
			<point x="689" y="400" type="line"/>
			<point x="540" y="390" type="line"/>
			<point x="490" y="411"/>
			<point x="464" y="411"/>
			<point x="464" y="399"/>
			<point x="484" y="367"/>
			<point x="486" y="332" type="qcurve" smooth="yes"/>
			<point x="496" y="216" type="line" smooth="yes"/>
			<point x="497" y="211"/>
			<point x="497" y="201"/>
			<point x="497" y="196" type="qcurve" smooth="yes"/>
			<point x="494" y="160" type="line" smooth="yes"/>
			<point x="494" y="150"/>
			<point x="525" y="125"/>
			<point x="560" y="125"/>
			<point x="560" y="146" type="qcurve" smooth="yes"/>
			<point x="560" y="149" type="line"/>
			<point x="558" y="168" type="line"/>
			<point x="712" y="176" type="line" smooth="yes"/>
			<point x="724" y="177"/>
			<point x="740" y="181"/>
			<point x="740" y="198"/>
			<point x="714" y="228" type="qcurve"/>
		</contour>
		<contour>
			<point x="443" y="548"/>
			<point x="443" y="542" type="qcurve" smooth="yes"/>
			<point x="443" y="523"/>
			<point x="470" y="494" type="qcurve" smooth="yes"/>
			<point x="479" y="485"/>
			<point x="503" y="485" type="qcurve"/>
			<point x="745" y="501" type="line" smooth="yes"/>
			<point x="767" y="503"/>
			<point x="767" y="513" type="qcurve" smooth="yes"/>
			<point x="767" y="528"/>
			<point x="735" y="550" type="qcurve" smooth="yes"/>
			<point x="723" y="559"/>
			<point x="713" y="559"/>
			<point x="692" y="552"/>
			<point x="675" y="550" type="qcurve" smooth="yes"/>
			<point x="500" y="540" type="line"/>
			<point x="495" y="540" type="line" smooth="yes"/>
			<point x="480" y="540"/>
			<point x="448" y="548" type="qcurve"/>
		</contour>
		<contour>
			<point x="451" y="720"/>
			<point x="451" y="700"/>
			<point x="476" y="666"/>
			<point x="488" y="653"/>
			<point x="518" y="653"/>
			<point x="532" y="655" type="qcurve"/>
			<point x="840" y="675" type="line"/>
			<point x="832" y="-11" type="line"/>
			<point x="756" y="12"/>
			<point x="691" y="45" type="qcurve" smooth="yes"/>
			<point x="673" y="53"/>
			<point x="658" y="53"/>
			<point x="658" y="39"/>
			<point x="691" y="7"/>
			<point x="741" y="-32"/>
			<point x="795" y="-69"/>
			<point x="841" y="-93"/>
			<point x="863" y="-93"/>
			<point x="897" y="-65"/>
			<point x="897" y="-38" type="qcurve" smooth="yes"/>
			<point x="896" y="-13" type="line"/>
			<point x="904" y="678" type="line"/>
			<point x="909" y="702" type="line"/>
			<point x="909" y="710"/>
			<point x="888" y="734"/>
			<point x="868" y="734" type="qcurve" smooth="yes"/>
			<point x="858" y="734" type="line"/>
			<point x="513" y="713" type="line"/>
			<point x="507" y="713" type="line" smooth="yes"/>
			<point x="484" y="713"/>
			<point x="456" y="720" type="qcurve"/>
		</contour>
	</outline>
</glyph>
<glyph name="uni3807" format="2">
	<advance width="1000"/>
	<unicode hex="3807"/>
	<note>
		uni3807
	</note>
	<outline>
		<contour>
			<point x="44" y="459"/>
			<point x="44" y="441"/>
			<point x="60" y="419"/>
			<point x="86" y="403"/>
			<point x="102" y="403" type="qcurve" smooth="yes"/>
			<point x="117" y="404" type="line"/>
			<point x="530" y="427" type="line"/>
			<point x="552" y="430"/>
			<point x="552" y="443" type="qcurve" smooth="yes"/>
			<point x="552" y="452"/>
			<point x="535" y="471"/>
			<point x="514" y="485"/>
			<point x="501" y="484"/>
			<point x="481" y="478"/>
			<point x="462" y="477" type="qcurve" smooth="yes"/>
			<point x="326" y="470" type="line"/>
			<point x="328" y="499" type="line" smooth="yes"/>
			<point x="328" y="515"/>
			<point x="310" y="524"/>
			<point x="270" y="531"/>
			<point x="248" y="531"/>
			<point x="248" y="515"/>
			<point x="265" y="496"/>
			<point x="265" y="486" type="qcurve" smooth="yes"/>
			<point x="267" y="467" type="line"/>
			<point x="103" y="457" type="line"/>
			<point x="92" y="457" type="line"/>
			<point x="51" y="460" type="line"/>
		</contour>
		<contour>
			<point x="720" y="497" type="line" smooth="yes"/>
			<point x="720" y="522"/>
			<point x="673" y="531" type="qcurve" smooth="yes"/>
			<point x="657" y="534"/>
			<point x="636" y="533"/>
			<point x="636" y="522" type="qcurve" smooth="yes"/>
			<point x="636" y="514"/>
			<point x="656" y="490"/>
			<point x="656" y="476" type="qcurve" smooth="yes"/>
			<point x="656" y="459" type="line" smooth="yes"/>
			<point x="656" y="424"/>
			<point x="646" y="358" type="qcurve"/>
			<point x="537" y="351" type="line" smooth="yes"/>
			<point x="517" y="351"/>
			<point x="499" y="355"/>
			<point x="490" y="354"/>
			<point x="490" y="338"/>
			<point x="504" y="315"/>
			<point x="527" y="298"/>
			<point x="553" y="298"/>
			<point x="573" y="300" type="qcurve" smooth="yes"/>
			<point x="636" y="304" type="line"/>
			<point x="630" y="277"/>
			<point x="618" y="232" type="qcurve" smooth="yes"/>
			<point x="573" y="66"/>
			<point x="435" y="-55" type="qcurve" smooth="yes"/>
			<point x="416" y="-73"/>
			<point x="416" y="-97"/>
			<point x="432" y="-96"/>
			<point x="449" y="-85" type="qcurve" smooth="yes"/>
			<point x="522" y="-34"/>
			<point x="568" y="18" type="qcurve" smooth="yes"/>
			<point x="654" y="116"/>
			<point x="690" y="258" type="qcurve"/>
			<point x="705" y="235"/>
			<point x="705" y="219" type="qcurve" smooth="yes"/>
			<point x="705" y="213" type="line"/>
			<point x="698" y="-4" type="line"/>
			<point x="698" y="-6" type="line" smooth="yes"/>
			<point x="698" y="-39"/>
			<point x="742" y="-74"/>
			<point x="795" y="-77"/>
			<point x="836" y="-77" type="qcurve" smooth="yes"/>
			<point x="908" y="-76"/>
			<point x="934" y="-59" type="qcurve" smooth="yes"/>
			<point x="967" y="-36"/>
			<point x="967" y="52" type="qcurve" smooth="yes"/>
			<point x="967" y="98"/>
			<point x="954" y="137"/>
			<point x="949" y="137" type="qcurve" smooth="yes"/>
			<point x="938" y="137"/>
			<point x="932" y="103" type="qcurve" smooth="yes"/>
			<point x="917" y="14"/>
			<point x="884" y="-17"/>
			<point x="822" y="-18" type="qcurve" smooth="yes"/>
			<point x="807" y="-18"/>
			<point x="791" y="-16" type="qcurve" smooth="yes"/>
			<point x="758" y="-13"/>
			<point x="758" y="8" type="qcurve" smooth="yes"/>
			<point x="764" y="234" type="line" smooth="yes"/>
			<point x="764" y="248"/>
			<point x="753" y="264"/>
			<point x="708" y="276"/>
			<point x="696" y="276"/>
			<point x="694" y="275" type="qcurve"/>
			<point x="698" y="291" type="line"/>
			<point x="701" y="307" type="line"/>
			<point x="904" y="320" type="line" smooth="yes"/>
			<point x="927" y="321"/>
			<point x="927" y="337" type="qcurve" smooth="yes"/>
			<point x="927" y="355"/>
			<point x="891" y="372" type="qcurve" smooth="yes"/>
			<point x="879" y="377"/>
			<point x="869" y="377"/>
			<point x="852" y="372"/>
			<point x="829" y="369"/>
			<point x="820" y="367" type="qcurve"/>
			<point x="710" y="361" type="line"/>
			<point x="720" y="443"/>
			<point x="720" y="481" type="qcurve" smooth="yes"/>
		</contour>
		<contour>
			<point x="815" y="485"/>
			<point x="778" y="511"/>
			<point x="767" y="511"/>
			<point x="742" y="494"/>
			<point x="742" y="473"/>
			<point x="755" y="461" type="qcurve" smooth="yes"/>
			<point x="812" y="410"/>
			<point x="841" y="376"/>
			<point x="859" y="376"/>
			<point x="887" y="398"/>
			<point x="887" y="417"/>
			<point x="856" y="449"/>
		</contour>
		<contour>
			<point x="338" y="-26" type="line"/>
			<point x="337" y="-24"/>
			<point x="337" y="-20"/>
			<point x="337" y="-17" type="qcurve" smooth="yes"/>
			<point x="334" y="193" type="line"/>
			<point x="449" y="198" type="line" smooth="yes"/>
			<point x="462" y="199"/>
			<point x="479" y="203"/>
			<point x="479" y="225"/>
			<point x="455" y="244" type="qcurve"/>
			<point x="474" y="329" type="line"/>
			<point x="474" y="332"/>
			<point x="479" y="340"/>
			<point x="479" y="360"/>
			<point x="452" y="377"/>
			<point x="439" y="377" type="qcurve" smooth="yes"/>
			<point x="434" y="377" type="line"/>
			<point x="432" y="376"/>
			<point x="429" y="376" type="qcurve" smooth="yes"/>
			<point x="186" y="362" type="line"/>
			<point x="136" y="372"/>
			<point x="113" y="372"/>
			<point x="113" y="361" type="qcurve" smooth="yes"/>
			<point x="113" y="356"/>
			<point x="116" y="352" type="qcurve" smooth="yes"/>
			<point x="127" y="338"/>
			<point x="131" y="310" type="qcurve" smooth="yes"/>
			<point x="142" y="233" type="line" smooth="yes"/>
			<point x="143" y="229"/>
			<point x="143" y="226" type="qcurve" smooth="yes"/>
			<point x="143" y="210" type="line" smooth="yes"/>
			<point x="143" y="207"/>
			<point x="142" y="202" type="qcurve"/>
			<point x="142" y="195" type="line" smooth="yes"/>
			<point x="142" y="172"/>
			<point x="176" y="163" type="qcurve" smooth="yes"/>
			<point x="187" y="160"/>
			<point x="189" y="160" type="qcurve" smooth="yes"/>
			<point x="205" y="160"/>
			<point x="205" y="182" type="qcurve" smooth="yes"/>
			<point x="205" y="186" type="line"/>
			<point x="205" y="185" type="line"/>
			<point x="276" y="189" type="line"/>
			<point x="277" y="-10" type="line"/>
			<point x="230" y="0"/>
			<point x="169" y="25"/>
			<point x="156" y="25"/>
			<point x="156" y="6"/>
			<point x="170" y="-7" type="qcurve"/>
			<point x="225" y="-51"/>
			<point x="284" y="-81"/>
			<point x="301" y="-80"/>
			<point x="323" y="-70" type="qcurve" smooth="yes"/>
			<point x="338" y="-63"/>
			<point x="338" y="-39" type="qcurve" smooth="yes"/>
		</contour>
		<contour>
			<point x="399" y="245" type="line"/>
			<point x="199" y="234" type="line"/>
			<point x="190" y="310" type="line"/>
			<point x="409" y="321" type="line"/>
		</contour>
		<contour>
			<point x="445" y="147"/>
			<point x="413" y="173"/>
			<point x="403" y="172"/>
			<point x="376" y="160"/>
			<point x="376" y="135"/>
			<point x="427" y="85"/>
			<point x="452" y="47" type="qcurve" smooth="yes"/>
			<point x="460" y="36"/>
			<point x="477" y="36"/>
			<point x="507" y="56"/>
			<point x="507" y="78"/>
			<point x="480" y="111"/>
		</contour>
		<contour>
			<point x="143" y="9"/>
			<point x="223" y="99" type="qcurve"/>
			<point x="227" y="105"/>
			<point x="227" y="110" type="qcurve" smooth="yes"/>
			<point x="227" y="130"/>
			<point x="188" y="146" type="qcurve" smooth="yes"/>
			<point x="175" y="151"/>
			<point x="161" y="151"/>
			<point x="161" y="139" type="qcurve" smooth="yes"/>
			<point x="161" y="123"/>
			<point x="155" y="115" type="qcurve"/>
			<point x="118" y="52"/>
			<point x="61" y="-2" type="qcurve" smooth="yes"/>
			<point x="50" y="-13"/>
			<point x="50" y="-35"/>
			<point x="62" y="-35"/>
			<point x="83" y="-23" type="qcurve" smooth="yes"/>
		</contour>
		<contour>
			<point x="733" y="573" type="line" smooth="yes"/>
			<point x="731" y="565"/>
			<point x="731" y="550"/>
			<point x="761" y="523"/>
			<point x="780" y="523" type="qcurve" smooth="yes"/>
			<point x="793" y="523"/>
			<point x="795" y="546" type="qcurve" smooth="yes"/>
			<point x="807" y="725" type="line"/>
			<point x="807" y="728" type="line" smooth="yes"/>
			<point x="807" y="752"/>
			<point x="764" y="762" type="qcurve" smooth="yes"/>
			<point x="749" y="766"/>
			<point x="734" y="766"/>
			<point x="734" y="759" type="qcurve" smooth="yes"/>
			<point x="734" y="756"/>
			<point x="744" y="734"/>
			<point x="744" y="710" type="qcurve" smooth="yes"/>
			<point x="744" y="702" type="line"/>
			<point x="741" y="634" type="line"/>
			<point x="521" y="621" type="line"/>
			<point x="524" y="781" type="line" smooth="yes"/>
			<point x="524" y="791"/>
			<point x="514" y="802"/>
			<point x="467" y="816"/>
			<point x="447" y="816"/>
			<point x="447" y="806"/>
			<point x="464" y="781"/>
			<point x="464" y="760" type="qcurve" smooth="yes"/>
			<point x="463" y="618" type="line"/>
			<point x="251" y="605" type="line"/>
			<point x="262" y="715" type="line"/>
			<point x="262" y="720" type="line" smooth="yes"/>
			<point x="262" y="739"/>
			<point x="222" y="750" type="qcurve" smooth="yes"/>
			<point x="206" y="755"/>
			<point x="188" y="755"/>
			<point x="188" y="748" type="qcurve" smooth="yes"/>
			<point x="188" y="745"/>
			<point x="199" y="721"/>
			<point x="199" y="701" type="qcurve" smooth="yes"/>
			<point x="199" y="695" type="line"/>
			<point x="194" y="631" type="line" smooth="yes"/>
			<point x="193" y="618"/>
			<point x="186" y="586"/>
			<point x="186" y="571"/>
			<point x="209" y="544"/>
			<point x="232" y="544"/>
			<point x="250" y="551"/>
			<point x="261" y="552" type="qcurve" smooth="yes"/>
			<point x="736" y="585" type="line"/>
		</contour>
	</outline>
</glyph>
<glyph name="uni3813" format="2">
	<advance width="1000"/>
	<unicode hex="3813"/>
	<note>
		uni3813
	</note>
	<outline>
		<contour>
			<point x="688" y="347" type="line"/>
			<point x="884" y="360" type="line" smooth="yes"/>
			<point x="913" y="362"/>
			<point x="913" y="374" type="qcurve" smooth="yes"/>
			<point x="913" y="377"/>
			<point x="901" y="396"/>
			<point x="882" y="412"/>
			<point x="866" y="412"/>
			<point x="851" y="407"/>
			<point x="829" y="404" type="qcurve"/>
			<point x="492" y="383" type="line"/>
			<point x="481" y="383" type="line" smooth="yes"/>
			<point x="466" y="383"/>
			<point x="451" y="387"/>
			<point x="447" y="387"/>
			<point x="445" y="387" type="qcurve" smooth="yes"/>
			<point x="438" y="387"/>
			<point x="438" y="378"/>
			<point x="440" y="373" type="qcurve" smooth="yes"/>
			<point x="450" y="344"/>
			<point x="477" y="334"/>
			<point x="486" y="334" type="qcurve" smooth="yes"/>
			<point x="495" y="334" type="line" smooth="yes"/>
			<point x="499" y="334"/>
			<point x="504" y="335" type="qcurve"/>
			<point x="605" y="341" type="line"/>
			<point x="552" y="298"/>
			<point x="438" y="236" type="qcurve" smooth="yes"/>
			<point x="413" y="224"/>
			<point x="413" y="213" type="qcurve" smooth="yes"/>
			<point x="413" y="207"/>
			<point x="428" y="207"/>
			<point x="458" y="216" type="qcurve" smooth="yes"/>
			<point x="547" y="243"/>
			<point x="621" y="295" type="qcurve"/>
			<point x="632" y="283"/>
			<point x="644" y="267" type="qcurve"/>
			<point x="567" y="198"/>
			<point x="450" y="134" type="qcurve" smooth="yes"/>
			<point x="410" y="112"/>
			<point x="410" y="102" type="qcurve" smooth="yes"/>
			<point x="410" y="97"/>
			<point x="428" y="97"/>
			<point x="462" y="108" type="qcurve" smooth="yes"/>
			<point x="559" y="141"/>
			<point x="667" y="222" type="qcurve"/>
			<point x="674" y="207"/>
			<point x="680" y="183" type="qcurve"/>
			<point x="602" y="109"/>
			<point x="495" y="50" type="qcurve" smooth="yes"/>
			<point x="449" y="25"/>
			<point x="374" y="-16"/>
			<point x="374" y="-26" type="qcurve" smooth="yes"/>
			<point x="374" y="-32"/>
			<point x="385" y="-32" type="qcurve" smooth="yes"/>
			<point x="412" y="-32"/>
			<point x="611" y="57"/>
			<point x="690" y="123" type="qcurve"/>
			<point x="694" y="97"/>
			<point x="694" y="27"/>
			<point x="686" y="-23" type="qcurve"/>
			<point x="684" y="-28"/>
			<point x="683" y="-28" type="qcurve" smooth="yes"/>
			<point x="668" y="-28"/>
			<point x="571" y="21"/>
			<point x="555" y="21"/>
			<point x="555" y="17" type="qcurve" smooth="yes"/>
			<point x="555" y="0"/>
			<point x="666" y="-95"/>
			<point x="697" y="-95" type="qcurve" smooth="yes"/>
			<point x="715" y="-95"/>
			<point x="748" y="-34"/>
			<point x="748" y="88"/>
			<point x="742" y="125" type="qcurve"/>
			<point x="823" y="44"/>
			<point x="907" y="-3" type="qcurve" smooth="yes"/>
			<point x="938" y="-20"/>
			<point x="942" y="-20" type="qcurve" smooth="yes"/>
			<point x="959" y="-20"/>
			<point x="979" y="4" type="qcurve" smooth="yes"/>
			<point x="986" y="14"/>
			<point x="986" y="18" type="qcurve" smooth="yes"/>
			<point x="986" y="25"/>
			<point x="972" y="33" type="qcurve" smooth="yes"/>
			<point x="927" y="55"/>
			<point x="814" y="119"/>
			<point x="738" y="188" type="qcurve"/>
			<point x="813" y="234"/>
			<point x="867" y="279" type="qcurve" smooth="yes"/>
			<point x="873" y="285"/>
			<point x="873" y="292" type="qcurve" smooth="yes"/>
			<point x="873" y="313"/>
			<point x="851" y="335" type="qcurve" smooth="yes"/>
			<point x="842" y="345"/>
			<point x="830" y="345"/>
			<point x="823" y="323"/>
			<point x="777" y="267"/>
			<point x="718" y="230" type="qcurve"/>
			<point x="700" y="281"/>
			<point x="659" y="323" type="qcurve"/>
		</contour>
		<contour>
			<point x="524" y="486"/>
			<point x="524" y="481" type="qcurve" smooth="yes"/>
			<point x="524" y="461"/>
			<point x="545" y="438" type="qcurve" smooth="yes"/>
			<point x="550" y="433"/>
			<point x="569" y="433" type="qcurve" smooth="yes"/>
			<point x="589" y="434" type="line"/>
			<point x="781" y="448" type="line" smooth="yes"/>
			<point x="802" y="450"/>
			<point x="802" y="461" type="qcurve" smooth="yes"/>
			<point x="802" y="475"/>
			<point x="766" y="500"/>
			<point x="755" y="500"/>
			<point x="735" y="492"/>
			<point x="722" y="491" type="qcurve" smooth="yes"/>
			<point x="577" y="481" type="line"/>
			<point x="570" y="481" type="line"/>
			<point x="531" y="486" type="line"/>
		</contour>
		<contour>
			<point x="517" y="601"/>
			<point x="508" y="611"/>
			<point x="483" y="614" type="qcurve"/>
			<point x="470" y="614"/>
			<point x="465" y="603"/>
			<point x="464" y="595" type="qcurve" smooth="yes"/>
			<point x="449" y="505"/>
			<point x="417" y="441"/>
			<point x="417" y="428"/>
			<point x="441" y="408"/>
			<point x="463" y="408"/>
			<point x="472" y="421"/>
			<point x="496" y="483"/>
			<point x="505" y="526" type="qcurve"/>
			<point x="874" y="548" type="line"/>
			<point x="854" y="506"/>
			<point x="817" y="448"/>
			<point x="817" y="432"/>
			<point x="824" y="432" type="qcurve" smooth="yes"/>
			<point x="854" y="432"/>
			<point x="938" y="543" type="qcurve" smooth="yes"/>
			<point x="945" y="552" type="line" smooth="yes"/>
			<point x="951" y="559"/>
			<point x="951" y="571"/>
			<point x="933" y="599"/>
			<point x="912" y="599" type="qcurve" smooth="yes"/>
			<point x="901" y="599" type="line"/>
			<point x="514" y="573" type="line"/>
			<point x="517" y="593" type="line"/>
		</contour>
		<contour>
			<point x="745" y="762" type="line"/>
			<point x="740" y="713" type="line"/>
			<point x="628" y="705" type="line"/>
			<point x="619" y="763" type="line"/>
			<point x="617" y="788"/>
			<point x="574" y="788" type="qcurve" smooth="yes"/>
			<point x="549" y="788"/>
			<point x="549" y="781" type="qcurve" smooth="yes"/>
			<point x="549" y="778"/>
			<point x="566" y="759"/>
			<point x="569" y="742" type="qcurve" smooth="yes"/>
			<point x="575" y="702" type="line"/>
			<point x="485" y="695" type="line"/>
			<point x="466" y="694" type="line"/>
			<point x="439" y="697" type="line"/>
			<point x="432" y="697" type="line" smooth="yes"/>
			<point x="427" y="697"/>
			<point x="427" y="691"/>
			<point x="429" y="686" type="qcurve" smooth="yes"/>
			<point x="445" y="647"/>
			<point x="470" y="647" type="qcurve" smooth="yes"/>
			<point x="479" y="647"/>
			<point x="494" y="649" type="qcurve" smooth="yes"/>
			<point x="583" y="655" type="line"/>
			<point x="585" y="643"/>
			<point x="585" y="633" type="qcurve" smooth="yes"/>
			<point x="585" y="618" type="line" smooth="yes"/>
			<point x="585" y="610"/>
			<point x="612" y="589"/>
			<point x="642" y="589"/>
			<point x="642" y="605" type="qcurve" smooth="yes"/>
			<point x="642" y="614" type="line"/>
			<point x="634" y="659" type="line"/>
			<point x="732" y="666" type="line"/>
			<point x="729" y="647"/>
			<point x="722" y="615"/>
			<point x="722" y="593"/>
			<point x="732" y="593" type="qcurve" smooth="yes"/>
			<point x="750" y="593"/>
			<point x="776" y="669" type="qcurve"/>
			<point x="931" y="680" type="line" smooth="yes"/>
			<point x="954" y="682"/>
			<point x="954" y="693" type="qcurve" smooth="yes"/>
			<point x="954" y="706"/>
			<point x="922" y="732"/>
			<point x="909" y="732"/>
			<point x="890" y="724"/>
			<point x="872" y="723" type="qcurve" smooth="yes"/>
			<point x="793" y="717" type="line"/>
			<point x="810" y="769" type="line" smooth="yes"/>
			<point x="811" y="771"/>
			<point x="811" y="775" type="qcurve" smooth="yes"/>
			<point x="811" y="794"/>
			<point x="771" y="808" type="qcurve" smooth="yes"/>
			<point x="756" y="813"/>
			<point x="740" y="813"/>
			<point x="740" y="807" type="qcurve"/>
			<point x="745" y="771" type="line"/>
		</contour>
		<contour>
			<point x="333" y="130"/>
			<point x="363" y="110"/>
			<point x="397" y="110"/>
			<point x="397" y="127" type="qcurve" smooth="yes"/>
			<point x="402" y="517" type="line" smooth="yes"/>
			<point x="402" y="529"/>
			<point x="391" y="541"/>
			<point x="351" y="555"/>
			<point x="328" y="555"/>
			<point x="328" y="548" type="qcurve" smooth="yes"/>
			<point x="328" y="545"/>
			<point x="344" y="517"/>
			<point x="344" y="496" type="qcurve" smooth="yes"/>
			<point x="340" y="238" type="line"/>
			<point x="272" y="228" type="line"/>
			<point x="275" y="693" type="line" smooth="yes"/>
			<point x="275" y="719"/>
			<point x="228" y="726" type="qcurve" smooth="yes"/>
			<point x="212" y="729"/>
			<point x="200" y="729"/>
			<point x="200" y="720"/>
			<point x="216" y="699"/>
			<point x="216" y="671" type="qcurve" smooth="yes"/>
			<point x="215" y="220" type="line"/>
			<point x="151" y="210" type="line"/>
			<point x="157" y="487" type="line" smooth="yes"/>
			<point x="157" y="498"/>
			<point x="147" y="510"/>
			<point x="108" y="524"/>
			<point x="84" y="524"/>
			<point x="84" y="513"/>
			<point x="101" y="492"/>
			<point x="101" y="467" type="qcurve" smooth="yes"/>
			<point x="97" y="255" type="line"/>
			<point x="96" y="237" type="line"/>
			<point x="86" y="186" type="line"/>
			<point x="86" y="168"/>
			<point x="119" y="146"/>
			<point x="135" y="146"/>
			<point x="152" y="152"/>
			<point x="164" y="154" type="qcurve" smooth="yes"/>
			<point x="339" y="184" type="line"/>
			<point x="338" y="174"/>
			<point x="337" y="165" type="qcurve" smooth="yes"/>
			<point x="333" y="141" type="line"/>
		</contour>
	</outline>
</glyph>
<glyph name="uni3944" format="2">
	<advance width="1000"/>
	<unicode hex="3944"/>
	<note>
		uni3944
	</note>
	<outline>
		<contour>
			<point x="384" y="526"/>
			<point x="384" y="521" type="qcurve" smooth="yes"/>
			<point x="384" y="498"/>
			<point x="413" y="469"/>
			<point x="441" y="469" type="qcurve" smooth="yes"/>
			<point x="458" y="469" type="line"/>
			<point x="513" y="472" type="line"/>
			<point x="496" y="430"/>
			<point x="427" y="357"/>
			<point x="372" y="313"/>
			<point x="372" y="297"/>
			<point x="385" y="297"/>
			<point x="433" y="322"/>
			<point x="464" y="344" type="qcurve" smooth="yes"/>
			<point x="543" y="400"/>
			<point x="579" y="475" type="qcurve"/>
			<point x="689" y="480" type="line"/>
			<point x="688" y="425" type="line"/>
			<point x="688" y="421" type="line" smooth="yes"/>
			<point x="688" y="385"/>
			<point x="719" y="347"/>
			<point x="757" y="345" type="qcurve" smooth="yes"/>
			<point x="786" y="344" type="line" smooth="yes"/>
			<point x="831" y="344"/>
			<point x="925" y="356"/>
			<point x="925" y="369" type="qcurve" smooth="yes"/>
			<point x="925" y="386"/>
			<point x="897" y="404" type="qcurve" smooth="yes"/>
			<point x="887" y="411"/>
			<point x="874" y="411"/>
			<point x="832" y="396"/>
			<point x="763" y="396"/>
			<point x="745" y="412"/>
			<point x="745" y="427" type="qcurve" smooth="yes"/>
			<point x="745" y="433" type="line"/>
			<point x="746" y="483" type="line"/>
			<point x="907" y="491" type="line" smooth="yes"/>
			<point x="918" y="492"/>
			<point x="933" y="496"/>
			<point x="933" y="513"/>
			<point x="912" y="535"/>
			<point x="887" y="549"/>
			<point x="875" y="549"/>
			<point x="858" y="543"/>
			<point x="828" y="541" type="qcurve" smooth="yes"/>
			<point x="659" y="532" type="line"/>
			<point x="660" y="621" type="line"/>
			<point x="813" y="629" type="line"/>
			<point x="837" y="632"/>
			<point x="837" y="641" type="qcurve" smooth="yes"/>
			<point x="837" y="646"/>
			<point x="824" y="668"/>
			<point x="800" y="686"/>
			<point x="780" y="686"/>
			<point x="764" y="681"/>
			<point x="734" y="678" type="qcurve" smooth="yes"/>
			<point x="661" y="674" type="line"/>
			<point x="662" y="776" type="line" smooth="yes"/>
			<point x="662" y="788"/>
			<point x="650" y="801"/>
			<point x="630" y="806" type="qcurve" smooth="yes"/>
			<point x="612" y="810" type="line" smooth="yes"/>
			<point x="604" y="811"/>
			<point x="585" y="811"/>
			<point x="585" y="803" type="qcurve" smooth="yes"/>
			<point x="585" y="799"/>
			<point x="601" y="776"/>
			<point x="601" y="756" type="qcurve" smooth="yes"/>
			<point x="601" y="671" type="line"/>
			<point x="492" y="665" type="line"/>
			<point x="484" y="665" type="line" smooth="yes"/>
			<point x="462" y="665"/>
			<point x="436" y="671"/>
			<point x="429" y="671"/>
			<point x="429" y="652"/>
			<point x="446" y="625"/>
			<point x="463" y="612"/>
			<point x="484" y="612" type="qcurve" smooth="yes"/>
			<point x="512" y="613" type="line"/>
			<point x="602" y="618" type="line"/>
			<point x="602" y="529" type="line"/>
			<point x="444" y="521" type="line"/>
			<point x="434" y="521" type="line" smooth="yes"/>
			<point x="419" y="521"/>
			<point x="387" y="526" type="qcurve" smooth="yes"/>
		</contour>
		<contour>
			<point x="564" y="400"/>
			<point x="551" y="400"/>
			<point x="549" y="383" type="qcurve"/>
			<point x="549" y="361"/>
			<point x="519" y="311" type="qcurve" smooth="yes"/>
			<point x="472" y="231"/>
			<point x="334" y="120" type="qcurve" smooth="yes"/>
			<point x="320" y="110"/>
			<point x="320" y="93"/>
			<point x="332" y="93"/>
			<point x="358" y="105" type="qcurve" smooth="yes"/>
			<point x="426" y="137"/>
			<point x="499" y="207" type="qcurve"/>
			<point x="543" y="148"/>
			<point x="599" y="97" type="qcurve"/>
			<point x="494" y="6"/>
			<point x="339" y="-54" type="qcurve" smooth="yes"/>
			<point x="311" y="-64"/>
			<point x="311" y="-76" type="qcurve" smooth="yes"/>
			<point x="311" y="-83"/>
			<point x="325" y="-83"/>
			<point x="356" y="-76" type="qcurve" smooth="yes"/>
			<point x="515" y="-37"/>
			<point x="639" y="62" type="qcurve"/>
			<point x="722" y="-2"/>
			<point x="828" y="-52" type="qcurve" smooth="yes"/>
			<point x="870" y="-72"/>
			<point x="925" y="-92"/>
			<point x="927" y="-92" type="qcurve" smooth="yes"/>
			<point x="943" y="-92"/>
			<point x="965" y="-71" type="qcurve"/>
			<point x="980" y="-53"/>
			<point x="980" y="-47" type="qcurve" smooth="yes"/>
			<point x="980" y="-38"/>
			<point x="965" y="-33" type="qcurve" smooth="yes"/>
			<point x="804" y="12"/>
			<point x="680" y="97" type="qcurve"/>
			<point x="744" y="158"/>
			<point x="805" y="243"/>
			<point x="822" y="259"/>
			<point x="822" y="280"/>
			<point x="791" y="309"/>
			<point x="764" y="309" type="qcurve" smooth="yes"/>
			<point x="757" y="309" type="line"/>
			<point x="579" y="296" type="line"/>
			<point x="614" y="340"/>
			<point x="614" y="356"/>
			<point x="591" y="381"/>
		</contour>
		<contour>
			<point x="735" y="254" type="line"/>
			<point x="690" y="187"/>
			<point x="637" y="133" type="qcurve"/>
			<point x="586" y="176"/>
			<point x="535" y="244" type="qcurve"/>
		</contour>
		<contour>
			<point x="98" y="592"/>
			<point x="90" y="581"/>
			<point x="85" y="516"/>
			<point x="64" y="395"/>
			<point x="47" y="340"/>
			<point x="47" y="321"/>
			<point x="73" y="304"/>
			<point x="104" y="304"/>
			<point x="108" y="323" type="qcurve" smooth="yes"/>
			<point x="138" y="448"/>
			<point x="144" y="563" type="qcurve" smooth="yes"/>
			<point x="144" y="569" type="line" smooth="yes"/>
			<point x="144" y="578"/>
			<point x="135" y="589"/>
			<point x="120" y="591" type="qcurve" smooth="yes"/>
			<point x="110" y="592" type="line" smooth="yes"/>
		</contour>
		<contour>
			<point x="314" y="618"/>
			<point x="297" y="618"/>
			<point x="268" y="606"/>
			<point x="268" y="596" type="qcurve" smooth="yes"/>
			<point x="268" y="593"/>
			<point x="271" y="587"/>
			<point x="272" y="583" type="qcurve"/>
			<point x="303" y="512"/>
			<point x="320" y="440" type="qcurve" smooth="yes"/>
			<point x="324" y="421"/>
			<point x="353" y="421"/>
			<point x="381" y="437"/>
			<point x="381" y="452"/>
			<point x="355" y="534"/>
			<point x="322" y="602" type="qcurve" smooth="yes"/>
		</contour>
		<contour>
			<point x="189" y="24" type="line" smooth="yes"/>
			<point x="189" y="-14"/>
			<point x="179" y="-47"/>
			<point x="179" y="-53" type="qcurve" smooth="yes"/>
			<point x="179" y="-76"/>
			<point x="207" y="-89" type="qcurve" smooth="yes"/>
			<point x="221" y="-95"/>
			<point x="231" y="-95" type="qcurve" smooth="yes"/>
			<point x="250" y="-95"/>
			<point x="250" y="-75" type="qcurve" smooth="yes"/>
			<point x="253" y="775" type="line" smooth="yes"/>
			<point x="253" y="787"/>
			<point x="244" y="799"/>
			<point x="200" y="815"/>
			<point x="176" y="815"/>
			<point x="176" y="801"/>
			<point x="194" y="775"/>
			<point x="194" y="752" type="qcurve" smooth="yes"/>
		</contour>
	</outline>
</glyph>
<glyph name="uni39D1" format="2">
	<advance width="1000"/>
	<unicode hex="39D1"/>
	<note>
		uni39D1
	</note>
	<outline>
		<contour>
			<point x="534" y="672"/>
			<point x="502" y="721"/>
			<point x="472" y="754"/>
			<point x="459" y="753"/>
			<point x="427" y="737"/>
			<point x="427" y="723"/>
			<point x="435" y="711" type="qcurve" smooth="yes"/>
			<point x="467" y="668"/>
			<point x="489" y="601" type="qcurve"/>
			<point x="494" y="592"/>
			<point x="503" y="578"/>
			<point x="523" y="578"/>
			<point x="556" y="598"/>
			<point x="556" y="620"/>
		</contour>
		<contour>
			<point x="417" y="493" type="line" smooth="yes"/>
			<point x="426" y="474"/>
			<point x="438" y="463" type="qcurve"/>
			<point x="448" y="457"/>
			<point x="481" y="458"/>
			<point x="503" y="461" type="qcurve" smooth="yes"/>
			<point x="580" y="467" type="line"/>
			<point x="554" y="309"/>
			<point x="475" y="141" type="qcurve" smooth="yes"/>
			<point x="431" y="46"/>
			<point x="337" y="-57" type="qcurve" smooth="yes"/>
			<point x="317" y="-77"/>
			<point x="317" y="-94"/>
			<point x="319" y="-94" type="qcurve" smooth="yes"/>
			<point x="325" y="-93"/>
			<point x="375" y="-64"/>
			<point x="412" y="-32" type="qcurve" smooth="yes"/>
			<point x="478" y="25"/>
			<point x="622" y="300"/>
			<point x="649" y="474" type="qcurve"/>
			<point x="848" y="490" type="line"/>
			<point x="848" y="417"/>
			<point x="840" y="331" type="qcurve" smooth="yes"/>
			<point x="825" y="145"/>
			<point x="789" y="19" type="qcurve"/>
			<point x="789" y="11"/>
			<point x="762" y="10"/>
			<point x="669" y="45"/>
			<point x="587" y="82"/>
			<point x="570" y="82"/>
			<point x="570" y="73" type="qcurve" smooth="yes"/>
			<point x="570" y="57"/>
			<point x="708" y="-39"/>
			<point x="785" y="-74"/>
			<point x="809" y="-73"/>
			<point x="856" y="-35"/>
			<point x="866" y="30" type="qcurve"/>
			<point x="907" y="222"/>
			<point x="915" y="493" type="qcurve"/>
			<point x="920" y="519" type="line"/>
			<point x="920" y="537"/>
			<point x="886" y="551"/>
			<point x="870" y="550" type="qcurve" smooth="yes"/>
			<point x="864" y="550" type="line"/>
			<point x="659" y="533" type="line"/>
			<point x="673" y="657"/>
			<point x="673" y="764" type="qcurve" smooth="yes"/>
			<point x="673" y="791"/>
			<point x="632" y="804" type="qcurve" smooth="yes"/>
			<point x="612" y="810"/>
			<point x="588" y="809"/>
			<point x="588" y="800" type="qcurve" smooth="yes"/>
			<point x="588" y="796"/>
			<point x="597" y="775"/>
			<point x="599" y="752"/>
			<point x="599" y="627"/>
			<point x="589" y="527" type="qcurve"/>
			<point x="477" y="518" type="line"/>
			<point x="465" y="518" type="line" smooth="yes"/>
			<point x="439" y="517"/>
			<point x="415" y="521"/>
			<point x="409" y="521"/>
			<point x="409" y="518" type="qcurve" smooth="yes"/>
			<point x="409" y="513" type="line"/>
		</contour>
		<contour>
			<point x="681" y="387"/>
			<point x="653" y="362" type="qcurve"/>
			<point x="634" y="348"/>
			<point x="648" y="330" type="qcurve" smooth="yes"/>
			<point x="693" y="268"/>
			<point x="733" y="178"/>
			<point x="742" y="166"/>
			<point x="764" y="164"/>
			<point x="797" y="189"/>
			<point x="797" y="205"/>
			<point x="742" y="303"/>
			<point x="701" y="359" type="qcurve" smooth="yes"/>
		</contour>
		<contour>
			<point x="61" y="559"/>
			<point x="61" y="550"/>
			<point x="62" y="548" type="qcurve" smooth="yes"/>
			<point x="79" y="500"/>
			<point x="108" y="498" type="qcurve" smooth="yes"/>
			<point x="113" y="498" type="line" smooth="yes"/>
			<point x="127" y="498"/>
			<point x="147" y="500" type="qcurve" smooth="yes"/>
			<point x="217" y="506" type="line"/>
			<point x="216" y="318" type="line"/>
			<point x="167" y="295"/>
			<point x="108" y="267"/>
			<point x="75" y="253"/>
			<point x="54" y="247"/>
			<point x="33" y="245"/>
			<point x="33" y="239" type="qcurve"/>
			<point x="44" y="222" type="line" smooth="yes"/>
			<point x="55" y="206"/>
			<point x="80" y="193" type="qcurve"/>
			<point x="86" y="191"/>
			<point x="92" y="191" type="qcurve" smooth="yes"/>
			<point x="115" y="191"/>
			<point x="215" y="256" type="qcurve"/>
			<point x="214" y="-6" type="line"/>
			<point x="172" y="9"/>
			<point x="100" y="57"/>
			<point x="87" y="57"/>
			<point x="87" y="52" type="qcurve" smooth="yes"/>
			<point x="87" y="31"/>
			<point x="198" y="-84"/>
			<point x="228" y="-84" type="qcurve" smooth="yes"/>
			<point x="243" y="-84"/>
			<point x="277" y="-52"/>
			<point x="277" y="-25" type="qcurve" smooth="yes"/>
			<point x="275" y="12" type="line"/>
			<point x="277" y="296" type="line"/>
			<point x="410" y="384"/>
			<point x="410" y="404" type="qcurve" smooth="yes"/>
			<point x="410" y="410"/>
			<point x="392" y="410"/>
			<point x="357" y="389"/>
			<point x="303" y="362"/>
			<point x="277" y="348" type="qcurve"/>
			<point x="278" y="511" type="line"/>
			<point x="375" y="519" type="line" smooth="yes"/>
			<point x="399" y="521"/>
			<point x="399" y="533" type="qcurve" smooth="yes"/>
			<point x="399" y="552"/>
			<point x="366" y="572" type="qcurve" smooth="yes"/>
			<point x="353" y="580"/>
			<point x="340" y="580"/>
			<point x="314" y="569"/>
			<point x="300" y="568" type="qcurve" smooth="yes"/>
			<point x="278" y="567" type="line"/>
			<point x="279" y="749" type="line" smooth="yes"/>
			<point x="279" y="760"/>
			<point x="266" y="776"/>
			<point x="222" y="792"/>
			<point x="198" y="792"/>
			<point x="198" y="785" type="qcurve" smooth="yes"/>
			<point x="198" y="782"/>
			<point x="201" y="777" type="qcurve" smooth="yes"/>
			<point x="218" y="752"/>
			<point x="218" y="722" type="qcurve" smooth="yes"/>
			<point x="217" y="562" type="line"/>
			<point x="127" y="556" type="line" smooth="yes"/>
			<point x="119" y="555"/>
			<point x="112" y="555" type="qcurve" smooth="yes"/>
			<point x="94" y="555" type="line" smooth="yes"/>
			<point x="82" y="555"/>
			<point x="66" y="559" type="qcurve"/>
		</contour>
	</outline>
</glyph>
<glyph name="uni3AF0" format="2">
	<advance width="1000"/>
	<unicode hex="3AF0"/>
	<note>
		uni3AF0
	</note>
	<outline>
		<contour>
			<point x="806" y="342" type="line" smooth="yes"/>
			<point x="817" y="343"/>
			<point x="830" y="346"/>
			<point x="830" y="363"/>
			<point x="805" y="391" type="qcurve"/>
			<point x="830" y="621" type="line" smooth="yes"/>
			<point x="831" y="629"/>
			<point x="841" y="643"/>
			<point x="841" y="662"/>
			<point x="812" y="682"/>
			<point x="799" y="682" type="qcurve" smooth="yes"/>
			<point x="779" y="681" type="line"/>
			<point x="672" y="673" type="line"/>
			<point x="673" y="787" type="line" smooth="yes"/>
			<point x="673" y="803"/>
			<point x="642" y="813" type="qcurve" smooth="yes"/>
			<point x="628" y="817"/>
			<point x="599" y="817"/>
			<point x="599" y="807" type="qcurve" smooth="yes"/>
			<point x="599" y="805"/>
			<point x="601" y="801" type="qcurve"/>
			<point x="613" y="785"/>
			<point x="613" y="767" type="qcurve" smooth="yes"/>
			<point x="615" y="669" type="line"/>
			<point x="535" y="663" type="line"/>
			<point x="481" y="687"/>
			<point x="462" y="687"/>
			<point x="462" y="680"/>
			<point x="463" y="678" type="qcurve" smooth="yes"/>
			<point x="476" y="645"/>
			<point x="476" y="590" type="qcurve" smooth="yes"/>
			<point x="472" y="-4" type="line"/>
			<point x="460" y="-9" type="line" smooth="yes"/>
			<point x="431" y="-19"/>
			<point x="385" y="-21"/>
			<point x="385" y="-28" type="qcurve" smooth="yes"/>
			<point x="385" y="-38"/>
			<point x="423" y="-80"/>
			<point x="471" y="-80"/>
			<point x="642" y="18"/>
			<point x="688" y="56" type="qcurve" smooth="yes"/>
			<point x="710" y="75"/>
			<point x="710" y="92"/>
			<point x="693" y="92"/>
			<point x="592" y="40"/>
			<point x="531" y="17" type="qcurve"/>
			<point x="533" y="328" type="line"/>
			<point x="577" y="330" type="line"/>
			<point x="644" y="194"/>
			<point x="756" y="87" type="qcurve" smooth="yes"/>
			<point x="844" y="3"/>
			<point x="916" y="-38" type="qcurve" smooth="yes"/>
			<point x="943" y="-53"/>
			<point x="948" y="-53" type="qcurve" smooth="yes"/>
			<point x="967" y="-53"/>
			<point x="990" y="-24" type="qcurve" smooth="yes"/>
			<point x="999" y="-14"/>
			<point x="999" y="-12" type="qcurve" smooth="yes"/>
			<point x="999" y="-6"/>
			<point x="988" y="-1" type="qcurve" smooth="yes"/>
			<point x="899" y="43"/>
			<point x="784" y="129"/>
			<point x="738" y="181" type="qcurve"/>
			<point x="833" y="236"/>
			<point x="896" y="300" type="qcurve" smooth="yes"/>
			<point x="915" y="318"/>
			<point x="915" y="344"/>
			<point x="878" y="383"/>
			<point x="861" y="383"/>
			<point x="853" y="341"/>
			<point x="770" y="258"/>
			<point x="708" y="219" type="qcurve"/>
			<point x="669" y="270"/>
			<point x="633" y="333" type="qcurve"/>
		</contour>
		<contour>
			<point x="762" y="543" type="line"/>
			<point x="534" y="528" type="line"/>
			<point x="534" y="614" type="line"/>
			<point x="770" y="630" type="line"/>
		</contour>
		<contour>
			<point x="749" y="389" type="line"/>
			<point x="533" y="379" type="line"/>
			<point x="533" y="478" type="line"/>
			<point x="758" y="492" type="line"/>
		</contour>
		<contour>
			<point x="354" y="140" type="line" smooth="yes"/>
			<point x="365" y="141"/>
			<point x="383" y="144"/>
			<point x="383" y="163"/>
			<point x="355" y="194" type="qcurve"/>
			<point x="371" y="637" type="line"/>
			<point x="372" y="643"/>
			<point x="377" y="654"/>
			<point x="377" y="674"/>
			<point x="349" y="693"/>
			<point x="335" y="693" type="qcurve" smooth="yes"/>
			<point x="324" y="693" type="line"/>
			<point x="158" y="680" type="line"/>
			<point x="107" y="698"/>
			<point x="87" y="698"/>
			<point x="87" y="692" type="qcurve" smooth="yes"/>
			<point x="87" y="689"/>
			<point x="102" y="654"/>
			<point x="102" y="626" type="qcurve" smooth="yes"/>
			<point x="112" y="157" type="line" smooth="yes"/>
			<point x="112" y="122"/>
			<point x="106" y="97"/>
			<point x="106" y="91" type="qcurve" smooth="yes"/>
			<point x="106" y="68"/>
			<point x="140" y="57" type="qcurve" smooth="yes"/>
			<point x="153" y="53"/>
			<point x="156" y="53" type="qcurve" smooth="yes"/>
			<point x="171" y="53"/>
			<point x="171" y="74" type="qcurve" smooth="yes"/>
			<point x="171" y="78" type="line"/>
			<point x="170" y="134" type="line"/>
		</contour>
		<contour>
			<point x="304" y="445" type="line"/>
			<point x="164" y="438" type="line"/>
			<point x="160" y="627" type="line"/>
			<point x="308" y="639" type="line"/>
		</contour>
		<contour>
			<point x="298" y="192" type="line"/>
			<point x="169" y="188" type="line"/>
			<point x="165" y="387" type="line"/>
			<point x="303" y="394" type="line"/>
		</contour>
	</outline>
</glyph>
<glyph name="uni3B0A" format="2">
	<advance width="1000"/>
	<unicode hex="3B0A"/>
	<note>
		uni3B0A
	</note>
	<outline>
		<contour>
			<point x="212" y="348"/>
			<point x="212" y="335"/>
			<point x="227" y="316"/>
			<point x="238" y="308" type="qcurve" smooth="yes"/>
			<point x="249" y="302"/>
			<point x="273" y="302" type="qcurve" smooth="yes"/>
			<point x="289" y="302" type="line"/>
			<point x="365" y="304" type="line"/>
			<point x="354" y="281"/>
			<point x="342" y="261" type="qcurve"/>
			<point x="158" y="254" type="line"/>
			<point x="144" y="254" type="line" smooth="yes"/>
			<point x="125" y="254"/>
			<point x="97" y="257" type="qcurve" smooth="yes"/>
			<point x="89" y="257"/>
			<point x="89" y="248" type="qcurve" smooth="yes"/>
			<point x="89" y="229"/>
			<point x="115" y="213" type="qcurve" smooth="yes"/>
			<point x="123" y="207"/>
			<point x="149" y="207" type="qcurve" smooth="yes"/>
			<point x="165" y="207" type="line"/>
			<point x="315" y="212" type="line"/>
			<point x="235" y="86"/>
			<point x="73" y="-16" type="qcurve" smooth="yes"/>
			<point x="51" y="-29"/>
			<point x="51" y="-41" type="qcurve" smooth="yes"/>
			<point x="51" y="-52"/>
			<point x="72" y="-52"/>
			<point x="156" y="-12"/>
			<point x="269" y="69"/>
			<point x="323" y="130" type="qcurve"/>
			<point x="649" y="140" type="line"/>
			<point x="626" y="108"/>
			<point x="529" y="61" type="qcurve"/>
			<point x="457" y="90"/>
			<point x="409" y="124" type="qcurve" smooth="yes"/>
			<point x="399" y="131"/>
			<point x="380" y="131"/>
			<point x="357" y="114"/>
			<point x="357" y="104" type="qcurve" smooth="yes"/>
			<point x="357" y="82"/>
			<point x="463" y="32" type="qcurve"/>
			<point x="357" y="-10"/>
			<point x="164" y="-57" type="qcurve" smooth="yes"/>
			<point x="125" y="-65"/>
			<point x="125" y="-79" type="qcurve" smooth="yes"/>
			<point x="125" y="-89"/>
			<point x="146" y="-89" type="qcurve" smooth="yes"/>
			<point x="197" y="-89"/>
			<point x="421" y="-42"/>
			<point x="531" y="3" type="qcurve"/>
			<point x="613" y="-27"/>
			<point x="839" y="-83"/>
			<point x="884" y="-88" type="qcurve"/>
			<point x="905" y="-88"/>
			<point x="932" y="-62" type="qcurve"/>
			<point x="940" y="-56"/>
			<point x="940" y="-48" type="qcurve" smooth="yes"/>
			<point x="940" y="-36"/>
			<point x="913" y="-33" type="qcurve" smooth="yes"/>
			<point x="742" y="-11"/>
			<point x="600" y="35" type="qcurve"/>
			<point x="685" y="77"/>
			<point x="732" y="134" type="qcurve" smooth="yes"/>
			<point x="735" y="137"/>
			<point x="751" y="147"/>
			<point x="751" y="164"/>
			<point x="744" y="173" type="qcurve" smooth="yes"/>
			<point x="729" y="191"/>
			<point x="702" y="191" type="qcurve" smooth="yes"/>
			<point x="689" y="190" type="line"/>
			<point x="364" y="179" type="line"/>
			<point x="374" y="191"/>
			<point x="388" y="215" type="qcurve"/>
			<point x="854" y="231" type="line" smooth="yes"/>
			<point x="889" y="233"/>
			<point x="889" y="262"/>
			<point x="860" y="276" type="qcurve" smooth="yes"/>
			<point x="851" y="281"/>
			<point x="836" y="281"/>
			<point x="813" y="277"/>
			<point x="778" y="276" type="qcurve" smooth="yes"/>
			<point x="416" y="263" type="line"/>
			<point x="427" y="283"/>
			<point x="436" y="307" type="qcurve"/>
			<point x="731" y="319" type="line" smooth="yes"/>
			<point x="761" y="320"/>
			<point x="761" y="334" type="qcurve" smooth="yes"/>
			<point x="761" y="345"/>
			<point x="741" y="360" type="qcurve"/>
			<point x="726" y="368"/>
			<point x="714" y="368" type="qcurve" smooth="yes"/>
			<point x="708" y="368" type="line" smooth="yes"/>
			<point x="705" y="368"/>
			<point x="687" y="364"/>
			<point x="655" y="363" type="qcurve" smooth="yes"/>
			<point x="284" y="346" type="line"/>
			<point x="279" y="345"/>
			<point x="274" y="345" type="qcurve" smooth="yes"/>
			<point x="262" y="345" type="line" smooth="yes"/>
			<point x="254" y="345"/>
			<point x="218" y="348" type="qcurve" smooth="yes"/>
		</contour>
		<contour>
			<point x="240" y="605" type="line" smooth="yes"/>
			<point x="242" y="587"/>
			<point x="242" y="573" type="qcurve" smooth="yes"/>
			<point x="242" y="564" type="line" smooth="yes"/>
			<point x="242" y="558"/>
			<point x="241" y="553" type="qcurve" smooth="yes"/>
			<point x="241" y="549" type="line" smooth="yes"/>
			<point x="241" y="527"/>
			<point x="278" y="518" type="qcurve" smooth="yes"/>
			<point x="290" y="515"/>
			<point x="291" y="515" type="qcurve" smooth="yes"/>
			<point x="307" y="515"/>
			<point x="307" y="533" type="qcurve" smooth="yes"/>
			<point x="307" y="536" type="line"/>
			<point x="306" y="543" type="line"/>
			<point x="741" y="565" type="line" smooth="yes"/>
			<point x="752" y="566"/>
			<point x="768" y="569"/>
			<point x="768" y="586"/>
			<point x="747" y="613" type="qcurve"/>
			<point x="769" y="738" type="line"/>
			<point x="770" y="741"/>
			<point x="774" y="750"/>
			<point x="774" y="761"/>
			<point x="754" y="784"/>
			<point x="730" y="784" type="qcurve" smooth="yes"/>
			<point x="723" y="784" type="line"/>
			<point x="283" y="762" type="line"/>
			<point x="238" y="780"/>
			<point x="207" y="780"/>
			<point x="207" y="766"/>
			<point x="224" y="736"/>
			<point x="227" y="712" type="qcurve" smooth="yes"/>
		</contour>
		<contour>
			<point x="700" y="698" type="line"/>
			<point x="292" y="675" type="line"/>
			<point x="287" y="714" type="line"/>
			<point x="706" y="736" type="line"/>
		</contour>
		<contour>
			<point x="688" y="610" type="line"/>
			<point x="302" y="589" type="line"/>
			<point x="296" y="631" type="line"/>
			<point x="694" y="652" type="line"/>
		</contour>
		<contour>
			<point x="699" y="457"/>
			<point x="596" y="389" type="qcurve" smooth="yes"/>
			<point x="583" y="381"/>
			<point x="583" y="364"/>
			<point x="591" y="364" type="qcurve" smooth="yes"/>
			<point x="622" y="364"/>
			<point x="734" y="429" type="qcurve" smooth="yes"/>
			<point x="775" y="452"/>
			<point x="775" y="463" type="qcurve" smooth="yes"/>
			<point x="775" y="481"/>
			<point x="752" y="492" type="qcurve"/>
			<point x="779" y="496" type="line" smooth="yes"/>
			<point x="782" y="496"/>
			<point x="792" y="502"/>
			<point x="792" y="517"/>
			<point x="776" y="541"/>
			<point x="754" y="560"/>
			<point x="740" y="560"/>
			<point x="722" y="546"/>
			<point x="697" y="541" type="qcurve" smooth="yes"/>
			<point x="502" y="506"/>
			<point x="196" y="475" type="qcurve" smooth="yes"/>
			<point x="160" y="470"/>
			<point x="160" y="444"/>
			<point x="180" y="444" type="qcurve" smooth="yes"/>
			<point x="198" y="444"/>
			<point x="219" y="446" type="qcurve" smooth="yes"/>
			<point x="258" y="449"/>
			<point x="242" y="444"/>
			<point x="242" y="427"/>
			<point x="254" y="419" type="qcurve" smooth="yes"/>
			<point x="283" y="400"/>
			<point x="317" y="366" type="qcurve" smooth="yes"/>
			<point x="329" y="355"/>
			<point x="346" y="355"/>
			<point x="372" y="373"/>
			<point x="372" y="392"/>
			<point x="360" y="403" type="qcurve" smooth="yes"/>
			<point x="319" y="438"/>
			<point x="296" y="450" type="qcurve"/>
			<point x="383" y="455"/>
			<point x="417" y="458" type="qcurve" smooth="yes"/>
			<point x="432" y="459"/>
			<point x="431" y="445"/>
			<point x="461" y="411"/>
			<point x="479" y="376" type="qcurve" smooth="yes"/>
			<point x="485" y="363"/>
			<point x="503" y="363"/>
			<point x="534" y="378"/>
			<point x="534" y="394"/>
			<point x="491" y="456"/>
			<point x="482" y="463" type="qcurve"/>
			<point x="597" y="474"/>
			<point x="713" y="488" type="qcurve"/>
		</contour>
	</outline>
</glyph>
<glyph name="uni3B55" format="2">
	<advance width="1001"/>
	<unicode hex="3B55"/>
	<note>
		uni3B55
	</note>
	<outline>
		<contour>
			<point x="69" y="538"/>
			<point x="69" y="531"/>
			<point x="79" y="503"/>
			<point x="102" y="478"/>
			<point x="134" y="478"/>
			<point x="150" y="480" type="qcurve" smooth="yes"/>
			<point x="233" y="487" type="line"/>
			<point x="206" y="413"/>
			<point x="131" y="246"/>
			<point x="53" y="128" type="qcurve" smooth="yes"/>
			<point x="43" y="112"/>
			<point x="43" y="94"/>
			<point x="50" y="94" type="qcurve" smooth="yes"/>
			<point x="69" y="94"/>
			<point x="125" y="168" type="qcurve" smooth="yes"/>
			<point x="220" y="294"/>
			<point x="248" y="383" type="qcurve"/>
			<point x="248" y="372" type="line" smooth="yes"/>
			<point x="246" y="350"/>
			<point x="246" y="173"/>
			<point x="242" y="49" type="qcurve" smooth="yes"/>
			<point x="242" y="18" type="line" smooth="yes"/>
			<point x="242" y="-11"/>
			<point x="233" y="-48"/>
			<point x="233" y="-72"/>
			<point x="257" y="-90"/>
			<point x="281" y="-97"/>
			<point x="282" y="-97" type="qcurve" smooth="yes"/>
			<point x="301" y="-97"/>
			<point x="301" y="-72" type="qcurve" smooth="yes"/>
			<point x="307" y="337" type="line"/>
			<point x="345" y="304"/>
			<point x="388" y="250" type="qcurve" smooth="yes"/>
			<point x="402" y="233"/>
			<point x="423" y="233"/>
			<point x="450" y="259"/>
			<point x="450" y="281"/>
			<point x="394" y="334" type="qcurve" smooth="yes"/>
			<point x="336" y="387"/>
			<point x="322" y="387" type="qcurve" smooth="yes"/>
			<point x="315" y="387"/>
			<point x="307" y="380" type="qcurve"/>
			<point x="308" y="492" type="line"/>
			<point x="433" y="502" type="line" smooth="yes"/>
			<point x="455" y="504"/>
			<point x="455" y="516" type="qcurve" smooth="yes"/>
			<point x="455" y="535"/>
			<point x="426" y="552" type="qcurve" smooth="yes"/>
			<point x="415" y="559"/>
			<point x="401" y="559"/>
			<point x="383" y="553"/>
			<point x="362" y="551" type="qcurve" smooth="yes"/>
			<point x="309" y="547" type="line"/>
			<point x="312" y="754" type="line" smooth="yes"/>
			<point x="312" y="765"/>
			<point x="301" y="778"/>
			<point x="258" y="794"/>
			<point x="233" y="794"/>
			<point x="233" y="785" type="qcurve" smooth="yes"/>
			<point x="233" y="782"/>
			<point x="251" y="753"/>
			<point x="251" y="733" type="qcurve" smooth="yes"/>
			<point x="249" y="542" type="line"/>
			<point x="130" y="533" type="line"/>
			<point x="118" y="533" type="line" smooth="yes"/>
			<point x="101" y="533"/>
			<point x="76" y="538" type="qcurve"/>
		</contour>
		<contour>
			<point x="475" y="570" type="line"/>
			<point x="468" y="570"/>
			<point x="468" y="560"/>
			<point x="496" y="510"/>
			<point x="527" y="510" type="qcurve" smooth="yes"/>
			<point x="540" y="510" type="line" smooth="yes"/>
			<point x="547" y="510"/>
			<point x="557" y="511" type="qcurve" smooth="yes"/>
			<point x="644" y="517" type="line"/>
			<point x="644" y="365" type="line"/>
			<point x="467" y="355" type="line"/>
			<point x="425" y="360" type="line"/>
			<point x="418" y="360"/>
			<point x="418" y="355" type="qcurve" smooth="yes"/>
			<point x="418" y="335"/>
			<point x="451" y="306" type="qcurve" smooth="yes"/>
			<point x="459" y="300"/>
			<point x="476" y="300" type="qcurve" smooth="yes"/>
			<point x="489" y="300" type="line" smooth="yes"/>
			<point x="496" y="300"/>
			<point x="506" y="301" type="qcurve" smooth="yes"/>
			<point x="619" y="307" type="line"/>
			<point x="563" y="167"/>
			<point x="477" y="20" type="qcurve"/>
			<point x="472" y="19"/>
			<point x="466" y="19" type="qcurve" smooth="yes"/>
			<point x="450" y="19" type="line" smooth="yes"/>
			<point x="438" y="19"/>
			<point x="421" y="22" type="qcurve"/>
			<point x="416" y="22" type="line" smooth="yes"/>
			<point x="409" y="22"/>
			<point x="409" y="16" type="qcurve" smooth="yes"/>
			<point x="409" y="14"/>
			<point x="420" y="-16"/>
			<point x="444" y="-44"/>
			<point x="479" y="-44"/>
			<point x="647" y="-14"/>
			<point x="843" y="37" type="qcurve"/>
			<point x="874" y="-14"/>
			<point x="898" y="-64"/>
			<point x="923" y="-64"/>
			<point x="954" y="-40"/>
			<point x="954" y="-14"/>
			<point x="828" y="178"/>
			<point x="774" y="246" type="qcurve" smooth="yes"/>
			<point x="763" y="259"/>
			<point x="747" y="259"/>
			<point x="720" y="237"/>
			<point x="720" y="221"/>
			<point x="772" y="152"/>
			<point x="815" y="83" type="qcurve"/>
			<point x="647" y="46"/>
			<point x="550" y="30" type="qcurve"/>
			<point x="622" y="155"/>
			<point x="693" y="311" type="qcurve"/>
			<point x="941" y="325" type="line" smooth="yes"/>
			<point x="965" y="327"/>
			<point x="965" y="349"/>
			<point x="941" y="372"/>
			<point x="914" y="388"/>
			<point x="906" y="388"/>
			<point x="890" y="381"/>
			<point x="859" y="378" type="qcurve" smooth="yes"/>
			<point x="706" y="369" type="line"/>
			<point x="706" y="520" type="line"/>
			<point x="856" y="530" type="line" smooth="yes"/>
			<point x="880" y="532"/>
			<point x="880" y="543" type="qcurve" smooth="yes"/>
			<point x="880" y="561"/>
			<point x="844" y="584" type="qcurve" smooth="yes"/>
			<point x="830" y="592"/>
			<point x="821" y="592"/>
			<point x="804" y="584"/>
			<point x="774" y="581" type="qcurve" smooth="yes"/>
			<point x="707" y="577" type="line"/>
			<point x="707" y="735" type="line" smooth="yes"/>
			<point x="707" y="748"/>
			<point x="696" y="761"/>
			<point x="674" y="768" type="qcurve" smooth="yes"/>
			<point x="655" y="776"/>
			<point x="626" y="776"/>
			<point x="626" y="768" type="qcurve" smooth="yes"/>
			<point x="626" y="765"/>
			<point x="628" y="762" type="qcurve" smooth="yes"/>
			<point x="644" y="735"/>
			<point x="644" y="713" type="qcurve" smooth="yes"/>
			<point x="644" y="573" type="line"/>
			<point x="517" y="565" type="line"/>
		</contour>
	</outline>
</glyph>
<glyph name="uni3BBE" format="2">
	<advance width="1000"/>
	<unicode hex="3BBE"/>
	<note>
		uni3BBE
	</note>
	<outline>
		<contour>
			<point x="383" y="404" type="line"/>
			<point x="315" y="378"/>
			<point x="236" y="355" type="qcurve"/>
			<point x="235" y="462" type="line"/>
			<point x="460" y="469" type="line" smooth="yes"/>
			<point x="470" y="469"/>
			<point x="484" y="471"/>
			<point x="484" y="494"/>
			<point x="459" y="513" type="qcurve"/>
			<point x="478" y="669" type="line"/>
			<point x="479" y="672"/>
			<point x="484" y="681"/>
			<point x="484" y="688" type="qcurve" smooth="yes"/>
			<point x="484" y="706"/>
			<point x="450" y="718"/>
			<point x="442" y="718" type="qcurve" smooth="yes"/>
			<point x="432" y="717" type="line"/>
			<point x="352" y="712" type="line"/>
			<point x="353" y="781" type="line" smooth="yes"/>
			<point x="353" y="800"/>
			<point x="323" y="806" type="qcurve" smooth="yes"/>
			<point x="307" y="810"/>
			<point x="281" y="810"/>
			<point x="281" y="797" type="qcurve" smooth="yes"/>
			<point x="281" y="790"/>
			<point x="295" y="775"/>
			<point x="295" y="767" type="qcurve" smooth="yes"/>
			<point x="297" y="710" type="line"/>
			<point x="236" y="706" type="line"/>
			<point x="189" y="722"/>
			<point x="165" y="722"/>
			<point x="165" y="712" type="qcurve" smooth="yes"/>
			<point x="165" y="707"/>
			<point x="176" y="685"/>
			<point x="176" y="655" type="qcurve" smooth="yes"/>
			<point x="178" y="339" type="line"/>
			<point x="156" y="335" type="line" smooth="yes"/>
			<point x="133" y="330"/>
			<point x="103" y="329" type="qcurve" smooth="yes"/>
			<point x="91" y="328"/>
			<point x="91" y="317" type="qcurve" smooth="yes"/>
			<point x="91" y="312"/>
			<point x="110" y="293"/>
			<point x="134" y="278"/>
			<point x="159" y="278"/>
			<point x="278" y="314"/>
			<point x="415" y="368" type="qcurve"/>
		</contour>
		<contour>
			<point x="415" y="616" type="line"/>
			<point x="234" y="608" type="line"/>
			<point x="233" y="660" type="line"/>
			<point x="419" y="670" type="line"/>
		</contour>
		<contour>
			<point x="406" y="513" type="line"/>
			<point x="235" y="508" type="line"/>
			<point x="234" y="563" type="line"/>
			<point x="411" y="570" type="line"/>
		</contour>
		<contour>
			<point x="799" y="629" type="line"/>
			<point x="639" y="622" type="line"/>
			<point x="639" y="692" type="line"/>
			<point x="799" y="702" type="line"/>
		</contour>
		<contour>
			<point x="800" y="512" type="line"/>
			<point x="628" y="506" type="line"/>
			<point x="630" y="523"/>
			<point x="635" y="558"/>
			<point x="636" y="575" type="qcurve"/>
			<point x="800" y="582" type="line"/>
		</contour>
		<contour>
			<point x="370" y="341" type="line" smooth="yes"/>
			<point x="377" y="327"/>
			<point x="386" y="303" type="qcurve" smooth="yes"/>
			<point x="390" y="289"/>
			<point x="413" y="286"/>
			<point x="441" y="305"/>
			<point x="443" y="322"/>
			<point x="415" y="376"/>
			<point x="379" y="431" type="qcurve" smooth="yes"/>
			<point x="373" y="440"/>
			<point x="354" y="443"/>
			<point x="329" y="432"/>
			<point x="327" y="416"/>
			<point x="332" y="407" type="qcurve" smooth="yes"/>
			<point x="352" y="378"/>
			<point x="366" y="350" type="qcurve" smooth="yes"/>
		</contour>
		<contour>
			<point x="100" y="228"/>
			<point x="100" y="221"/>
			<point x="101" y="219" type="qcurve" smooth="yes"/>
			<point x="111" y="186"/>
			<point x="147" y="173"/>
			<point x="156" y="173" type="qcurve" smooth="yes"/>
			<point x="180" y="174" type="line"/>
			<point x="411" y="185" type="line"/>
			<point x="261" y="76"/>
			<point x="73" y="-3" type="qcurve" smooth="yes"/>
			<point x="47" y="-15"/>
			<point x="47" y="-34"/>
			<point x="62" y="-34" type="qcurve" smooth="yes"/>
			<point x="65" y="-34"/>
			<point x="139" y="-13"/>
			<point x="198" y="10" type="qcurve" smooth="yes"/>
			<point x="345" y="67"/>
			<point x="466" y="159" type="qcurve"/>
			<point x="466" y="5" type="line" smooth="yes"/>
			<point x="466" y="-26"/>
			<point x="460" y="-60"/>
			<point x="460" y="-77"/>
			<point x="492" y="-104"/>
			<point x="511" y="-104" type="qcurve" smooth="yes"/>
			<point x="526" y="-104"/>
			<point x="526" y="-81" type="qcurve" smooth="yes"/>
			<point x="526" y="162" type="line"/>
			<point x="640" y="85"/>
			<point x="812" y="16" type="qcurve" smooth="yes"/>
			<point x="898" y="-19"/>
			<point x="945" y="-19"/>
			<point x="966" y="10" type="qcurve" smooth="yes"/>
			<point x="974" y="21"/>
			<point x="974" y="25" type="qcurve" smooth="yes"/>
			<point x="974" y="33"/>
			<point x="958" y="37" type="qcurve" smooth="yes"/>
			<point x="885" y="58"/>
			<point x="709" y="119"/>
			<point x="568" y="192" type="qcurve"/>
			<point x="880" y="206" type="line" smooth="yes"/>
			<point x="906" y="208"/>
			<point x="906" y="219" type="qcurve" smooth="yes"/>
			<point x="906" y="235"/>
			<point x="873" y="256" type="qcurve" smooth="yes"/>
			<point x="861" y="263"/>
			<point x="852" y="263"/>
			<point x="829" y="254"/>
			<point x="805" y="252" type="qcurve" smooth="yes"/>
			<point x="526" y="239" type="line"/>
			<point x="526" y="308" type="line" smooth="yes"/>
			<point x="526" y="315"/>
			<point x="520" y="321" type="qcurve"/>
			<point x="522" y="322"/>
			<point x="539" y="338" type="qcurve" smooth="yes"/>
			<point x="588" y="383"/>
			<point x="616" y="460" type="qcurve"/>
			<point x="800" y="467" type="line"/>
			<point x="801" y="368" type="line"/>
			<point x="747" y="384"/>
			<point x="698" y="409"/>
			<point x="681" y="409"/>
			<point x="681" y="404" type="qcurve" smooth="yes"/>
			<point x="681" y="391"/>
			<point x="794" y="299"/>
			<point x="820" y="299" type="qcurve" smooth="yes"/>
			<point x="833" y="299"/>
			<point x="861" y="318"/>
			<point x="861" y="343" type="qcurve" smooth="yes"/>
			<point x="859" y="376" type="line"/>
			<point x="856" y="701" type="line"/>
			<point x="860" y="722" type="line"/>
			<point x="860" y="734"/>
			<point x="836" y="754"/>
			<point x="815" y="754" type="qcurve" smooth="yes"/>
			<point x="808" y="754" type="line"/>
			<point x="638" y="743" type="line"/>
			<point x="586" y="761"/>
			<point x="565" y="761"/>
			<point x="565" y="747"/>
			<point x="580" y="712"/>
			<point x="580" y="679" type="qcurve" smooth="yes"/>
			<point x="580" y="647" type="line" smooth="yes"/>
			<point x="580" y="604"/>
			<point x="577" y="555" type="qcurve" smooth="yes"/>
			<point x="570" y="440"/>
			<point x="513" y="352" type="qcurve" smooth="yes"/>
			<point x="505" y="338"/>
			<point x="503" y="328" type="qcurve"/>
			<point x="476" y="337"/>
			<point x="452" y="337"/>
			<point x="452" y="329"/>
			<point x="466" y="308"/>
			<point x="466" y="286" type="qcurve" smooth="yes"/>
			<point x="466" y="236" type="line"/>
			<point x="157" y="221" type="line"/>
			<point x="147" y="221" type="line" smooth="yes"/>
			<point x="126" y="221"/>
			<point x="105" y="228" type="qcurve"/>
		</contour>
	</outline>
</glyph>
<glyph name="uni3CC7" format="2">
	<advance width="1000"/>
	<unicode hex="3CC7"/>
	<note>
		uni3CC7
	</note>
	<outline>
		<contour>
			<point x="915" y="573"/>
			<point x="794" y="715"/>
			<point x="716" y="785"/>
			<point x="699" y="785"/>
			<point x="680" y="759"/>
			<point x="680" y="741"/>
			<point x="688" y="732" type="qcurve" smooth="yes"/>
			<point x="792" y="619"/>
			<point x="850" y="533" type="qcurve" smooth="yes"/>
			<point x="864" y="512"/>
			<point x="889" y="512"/>
			<point x="915" y="550"/>
		</contour>
		<contour>
			<point x="481" y="777"/>
			<point x="481" y="762" type="qcurve" smooth="yes"/>
			<point x="481" y="677"/>
			<point x="338" y="492" type="qcurve" smooth="yes"/>
			<point x="322" y="472"/>
			<point x="322" y="466" type="qcurve" smooth="yes"/>
			<point x="322" y="468"/>
			<point x="327" y="468" type="qcurve" smooth="yes"/>
			<point x="354" y="468"/>
			<point x="497" y="621"/>
			<point x="555" y="710"/>
			<point x="555" y="724"/>
			<point x="545" y="738" type="qcurve" smooth="yes"/>
			<point x="513" y="777"/>
			<point x="490" y="777" type="qcurve" smooth="yes"/>
		</contour>
		<contour>
			<point x="711" y="556" type="line" smooth="yes"/>
			<point x="711" y="541"/>
			<point x="679" y="419"/>
			<point x="619" y="317" type="qcurve"/>
			<point x="549" y="430"/>
			<point x="517" y="520" type="qcurve" smooth="yes"/>
			<point x="510" y="540"/>
			<point x="489" y="540"/>
			<point x="460" y="517"/>
			<point x="460" y="503"/>
			<point x="516" y="362"/>
			<point x="582" y="255" type="qcurve"/>
			<point x="523" y="180"/>
			<point x="358" y="20"/>
			<point x="251" y="-48" type="qcurve" smooth="yes"/>
			<point x="232" y="-60"/>
			<point x="232" y="-68" type="qcurve" smooth="yes"/>
			<point x="232" y="-69"/>
			<point x="252" y="-69"/>
			<point x="263" y="-64" type="qcurve" smooth="yes"/>
			<point x="484" y="26"/>
			<point x="619" y="200" type="qcurve"/>
			<point x="692" y="98"/>
			<point x="805" y="3" type="qcurve" smooth="yes"/>
			<point x="850" y="-35"/>
			<point x="911" y="-77"/>
			<point x="916" y="-77" type="qcurve" smooth="yes"/>
			<point x="934" y="-77"/>
			<point x="965" y="-39" type="qcurve" smooth="yes"/>
			<point x="974" y="-27"/>
			<point x="974" y="-20"/>
			<point x="957" y="-10" type="qcurve" smooth="yes"/>
			<point x="771" y="107"/>
			<point x="656" y="253" type="qcurve"/>
			<point x="711" y="339"/>
			<point x="783" y="518"/>
			<point x="783" y="527" type="qcurve" smooth="yes"/>
			<point x="783" y="545"/>
			<point x="744" y="571" type="qcurve" smooth="yes"/>
			<point x="728" y="583"/>
			<point x="711" y="583"/>
			<point x="711" y="568" type="qcurve" smooth="yes"/>
		</contour>
		<contour>
			<point x="326" y="604"/>
			<point x="326" y="632"/>
			<point x="231" y="713"/>
			<point x="164" y="756"/>
			<point x="152" y="756"/>
			<point x="131" y="735"/>
			<point x="131" y="715"/>
			<point x="144" y="705" type="qcurve" smooth="yes"/>
			<point x="211" y="652"/>
			<point x="262" y="599" type="qcurve" smooth="yes"/>
			<point x="283" y="578"/>
			<point x="298" y="578"/>
		</contour>
		<contour>
			<point x="257" y="426"/>
			<point x="200" y="468" type="qcurve" smooth="yes"/>
			<point x="99" y="537"/>
			<point x="81" y="537" type="qcurve" smooth="yes"/>
			<point x="75" y="537"/>
			<point x="58" y="510"/>
			<point x="58" y="492"/>
			<point x="72" y="484" type="qcurve" smooth="yes"/>
			<point x="138" y="440"/>
			<point x="203" y="382" type="qcurve" smooth="yes"/>
			<point x="217" y="370"/>
			<point x="233" y="370"/>
			<point x="257" y="400"/>
		</contour>
		<contour>
			<point x="126" y="-29" type="line" smooth="yes"/>
			<point x="140" y="-29"/>
			<point x="156" y="-6"/>
			<point x="168" y="13" type="qcurve" smooth="yes"/>
			<point x="264" y="168"/>
			<point x="305" y="274" type="qcurve" smooth="yes"/>
			<point x="322" y="318"/>
			<point x="322" y="343"/>
			<point x="315" y="343" type="qcurve" smooth="yes"/>
			<point x="303" y="343"/>
			<point x="287" y="315" type="qcurve" smooth="yes"/>
			<point x="219" y="198"/>
			<point x="110" y="49" type="qcurve" smooth="yes"/>
			<point x="94" y="28"/>
			<point x="64" y="9"/>
			<point x="64" y="5" type="qcurve" smooth="yes"/>
			<point x="64" y="-2"/>
			<point x="104" y="-27"/>
			<point x="123" y="-29" type="qcurve" smooth="yes"/>
		</contour>
	</outline>
</glyph>
<glyph name="uni3CD8" format="2">
	<advance width="1000"/>
	<unicode hex="3CD8"/>
	<note>
		uni3CD8
	</note>
	<outline>
		<contour>
			<point x="941" y="199"/>
			<point x="934" y="165" type="qcurve"/>
			<point x="916" y="36"/>
			<point x="867" y="11"/>
			<point x="744" y="11"/>
			<point x="714" y="27"/>
			<point x="714" y="51" type="qcurve" smooth="yes"/>
			<point x="718" y="370" type="line"/>
			<point x="774" y="378"/>
			<point x="798" y="384" type="qcurve"/>
			<point x="828" y="351"/>
			<point x="851" y="316"/>
			<point x="870" y="316"/>
			<point x="901" y="338"/>
			<point x="901" y="349" type="qcurve" smooth="yes"/>
			<point x="901" y="376"/>
			<point x="758" y="500" type="qcurve" smooth="yes"/>
			<point x="743" y="514" type="line" smooth="yes"/>
			<point x="730" y="524"/>
			<point x="717" y="524"/>
			<point x="691" y="509"/>
			<point x="691" y="487"/>
			<point x="735" y="453"/>
			<point x="763" y="424" type="qcurve"/>
			<point x="646" y="406"/>
			<point x="510" y="397" type="qcurve"/>
			<point x="572" y="465"/>
			<point x="639" y="564"/>
			<point x="639" y="584"/>
			<point x="615" y="598" type="qcurve"/>
			<point x="875" y="612" type="line" smooth="yes"/>
			<point x="902" y="614"/>
			<point x="902" y="624" type="qcurve" smooth="yes"/>
			<point x="902" y="630"/>
			<point x="885" y="651"/>
			<point x="860" y="669"/>
			<point x="840" y="669"/>
			<point x="811" y="663"/>
			<point x="765" y="659" type="qcurve" smooth="yes"/>
			<point x="654" y="653" type="line"/>
			<point x="655" y="762" type="line" smooth="yes"/>
			<point x="655" y="774"/>
			<point x="640" y="787"/>
			<point x="597" y="797"/>
			<point x="574" y="797"/>
			<point x="574" y="786"/>
			<point x="592" y="764"/>
			<point x="592" y="739" type="qcurve" smooth="yes"/>
			<point x="593" y="649" type="line"/>
			<point x="413" y="640" type="line" smooth="yes"/>
			<point x="390" y="640"/>
			<point x="368" y="645"/>
			<point x="359" y="645"/>
			<point x="359" y="638" type="qcurve"/>
			<point x="364" y="626" type="line" smooth="yes"/>
			<point x="370" y="612"/>
			<point x="398" y="588"/>
			<point x="423" y="588" type="qcurve" smooth="yes"/>
			<point x="445" y="589" type="line"/>
			<point x="574" y="596" type="line"/>
			<point x="571" y="580"/>
			<point x="511" y="476"/>
			<point x="438" y="392" type="qcurve"/>
			<point x="429" y="392" type="line"/>
			<point x="410" y="391" type="line" smooth="yes"/>
			<point x="397" y="391"/>
			<point x="377" y="394" type="qcurve"/>
			<point x="370" y="397"/>
			<point x="363" y="397"/>
			<point x="363" y="390" type="qcurve" smooth="yes"/>
			<point x="363" y="364"/>
			<point x="389" y="342" type="qcurve" smooth="yes"/>
			<point x="400" y="332"/>
			<point x="429" y="332"/>
			<point x="523" y="342" type="qcurve"/>
			<point x="508" y="226"/>
			<point x="410" y="34"/>
			<point x="301" y="-46" type="qcurve" smooth="yes"/>
			<point x="281" y="-59"/>
			<point x="281" y="-74" type="qcurve" smooth="yes"/>
			<point x="281" y="-80"/>
			<point x="294" y="-80"/>
			<point x="309" y="-73" type="qcurve" smooth="yes"/>
			<point x="403" y="-24"/>
			<point x="460" y="38" type="qcurve" smooth="yes"/>
			<point x="563" y="150"/>
			<point x="587" y="351" type="qcurve"/>
			<point x="634" y="357"/>
			<point x="656" y="361" type="qcurve"/>
			<point x="654" y="40" type="line" smooth="yes"/>
			<point x="654" y="-4"/>
			<point x="692" y="-44"/>
			<point x="767" y="-51"/>
			<point x="860" y="-51"/>
			<point x="923" y="-40"/>
			<point x="955" y="-8"/>
			<point x="966" y="57"/>
			<point x="966" y="199"/>
			<point x="951" y="199" type="qcurve" smooth="yes"/>
		</contour>
		<contour>
			<point x="326" y="604"/>
			<point x="326" y="632"/>
			<point x="231" y="713"/>
			<point x="164" y="756"/>
			<point x="152" y="756"/>
			<point x="131" y="735"/>
			<point x="131" y="715"/>
			<point x="144" y="705" type="qcurve" smooth="yes"/>
			<point x="211" y="652"/>
			<point x="262" y="599" type="qcurve" smooth="yes"/>
			<point x="283" y="578"/>
			<point x="298" y="578"/>
		</contour>
		<contour>
			<point x="257" y="426"/>
			<point x="200" y="468" type="qcurve" smooth="yes"/>
			<point x="99" y="537"/>
			<point x="81" y="537" type="qcurve" smooth="yes"/>
			<point x="75" y="537"/>
			<point x="58" y="510"/>
			<point x="58" y="492"/>
			<point x="72" y="484" type="qcurve" smooth="yes"/>
			<point x="138" y="440"/>
			<point x="203" y="382" type="qcurve" smooth="yes"/>
			<point x="217" y="370"/>
			<point x="233" y="370"/>
			<point x="257" y="400"/>
		</contour>
		<contour>
			<point x="126" y="-29" type="line" smooth="yes"/>
			<point x="140" y="-29"/>
			<point x="156" y="-6"/>
			<point x="168" y="13" type="qcurve" smooth="yes"/>
			<point x="264" y="168"/>
			<point x="305" y="274" type="qcurve" smooth="yes"/>
			<point x="322" y="318"/>
			<point x="322" y="343"/>
			<point x="315" y="343" type="qcurve" smooth="yes"/>
			<point x="303" y="343"/>
			<point x="287" y="315" type="qcurve" smooth="yes"/>
			<point x="219" y="198"/>
			<point x="110" y="49" type="qcurve" smooth="yes"/>
			<point x="94" y="28"/>
			<point x="64" y="9"/>
			<point x="64" y="5" type="qcurve" smooth="yes"/>
			<point x="64" y="-2"/>
			<point x="104" y="-27"/>
			<point x="123" y="-29" type="qcurve" smooth="yes"/>
		</contour>
	</outline>
</glyph>
<glyph name="uni3CDA" format="2">
	<advance width="1000"/>
	<unicode hex="3CDA"/>
	<note>
		uni3CDA
	</note>
	<outline>
		<contour>
			<point x="602" y="178"/>
			<point x="627" y="207"/>
			<point x="627" y="230"/>
			<point x="540" y="320"/>
			<point x="483" y="366"/>
			<point x="466" y="366"/>
			<point x="445" y="340"/>
			<point x="445" y="322"/>
			<point x="450" y="317" type="qcurve" smooth="yes"/>
			<point x="521" y="255"/>
			<point x="570" y="187" type="qcurve" smooth="yes"/>
			<point x="577" y="178"/>
		</contour>
		<contour>
			<point x="791" y="600"/>
			<point x="810" y="600"/>
			<point x="833" y="622"/>
			<point x="833" y="632" type="qcurve" smooth="yes"/>
			<point x="833" y="651"/>
			<point x="731" y="735" type="qcurve"/>
			<point x="722" y="744"/>
			<point x="704" y="744"/>
			<point x="685" y="725"/>
			<point x="685" y="711"/>
			<point x="692" y="704" type="qcurve" smooth="yes"/>
			<point x="743" y="661"/>
		</contour>
		<contour>
			<point x="389" y="501" type="line"/>
			<point x="402" y="501" type="line" smooth="yes"/>
			<point x="407" y="501"/>
			<point x="413" y="502" type="qcurve"/>
			<point x="614" y="514" type="line"/>
			<point x="627" y="438"/>
			<point x="655" y="289"/>
			<point x="692" y="197" type="qcurve"/>
			<point x="625" y="88"/>
			<point x="513" y="-20" type="qcurve" smooth="yes"/>
			<point x="497" y="-35"/>
			<point x="497" y="-44" type="qcurve" smooth="yes"/>
			<point x="497" y="-50"/>
			<point x="515" y="-50"/>
			<point x="550" y="-25" type="qcurve" smooth="yes"/>
			<point x="641" y="40"/>
			<point x="719" y="140" type="qcurve"/>
			<point x="796" y="-12"/>
			<point x="858" y="-58" type="qcurve" smooth="yes"/>
			<point x="880" y="-74"/>
			<point x="900" y="-84"/>
			<point x="921" y="-84"/>
			<point x="940" y="-75"/>
			<point x="958" y="-35"/>
			<point x="970" y="55"/>
			<point x="970" y="184"/>
			<point x="956" y="184" type="qcurve" smooth="yes"/>
			<point x="945" y="184"/>
			<point x="937" y="143" type="qcurve" smooth="yes"/>
			<point x="911" y="-10"/>
			<point x="900" y="-10" type="qcurve" smooth="yes"/>
			<point x="895" y="-10"/>
			<point x="873" y="15" type="qcurve" smooth="yes"/>
			<point x="812" y="82"/>
			<point x="759" y="198" type="qcurve"/>
			<point x="818" y="292"/>
			<point x="850" y="388" type="qcurve" smooth="yes"/>
			<point x="860" y="420" type="line"/>
			<point x="860" y="443"/>
			<point x="821" y="462" type="qcurve" smooth="yes"/>
			<point x="806" y="470"/>
			<point x="791" y="470"/>
			<point x="791" y="462" type="qcurve"/>
			<point x="794" y="444"/>
			<point x="794" y="432"/>
			<point x="769" y="348"/>
			<point x="731" y="267" type="qcurve"/>
			<point x="705" y="341"/>
			<point x="677" y="517" type="qcurve"/>
			<point x="896" y="530" type="line" smooth="yes"/>
			<point x="923" y="532"/>
			<point x="923" y="545" type="qcurve" smooth="yes"/>
			<point x="923" y="562"/>
			<point x="892" y="580" type="qcurve" smooth="yes"/>
			<point x="880" y="587"/>
			<point x="869" y="587"/>
			<point x="852" y="581"/>
			<point x="831" y="579" type="qcurve" smooth="yes"/>
			<point x="668" y="570" type="line"/>
			<point x="654" y="669"/>
			<point x="647" y="772" type="qcurve" smooth="yes"/>
			<point x="646" y="782"/>
			<point x="634" y="794"/>
			<point x="613" y="798" type="qcurve" smooth="yes"/>
			<point x="591" y="802" type="line" smooth="yes"/>
			<point x="582" y="803"/>
			<point x="562" y="803"/>
			<point x="562" y="794"/>
			<point x="578" y="775"/>
			<point x="586" y="751"/>
			<point x="591" y="686"/>
			<point x="607" y="566" type="qcurve"/>
			<point x="389" y="554" type="line"/>
		</contour>
		<contour>
			<point x="122" y="-35" type="line" smooth="yes"/>
			<point x="134" y="-35"/>
			<point x="151" y="-12"/>
			<point x="163" y="10" type="qcurve" smooth="yes"/>
			<point x="243" y="154"/>
			<point x="281" y="260" type="qcurve" smooth="yes"/>
			<point x="297" y="306"/>
			<point x="297" y="334"/>
			<point x="289" y="334" type="qcurve" smooth="yes"/>
			<point x="278" y="334"/>
			<point x="262" y="304" type="qcurve" smooth="yes"/>
			<point x="207" y="197"/>
			<point x="105" y="43" type="qcurve" smooth="yes"/>
			<point x="93" y="24"/>
			<point x="60" y="3"/>
			<point x="60" y="-9"/>
			<point x="97" y="-32"/>
			<point x="120" y="-35" type="qcurve" smooth="yes"/>
		</contour>
		<contour>
			<point x="207" y="369"/>
			<point x="221" y="369"/>
			<point x="248" y="396"/>
			<point x="248" y="424"/>
			<point x="139" y="502"/>
			<point x="80" y="534"/>
			<point x="65" y="534"/>
			<point x="50" y="506"/>
			<point x="50" y="491"/>
			<point x="64" y="482" type="qcurve" smooth="yes"/>
			<point x="128" y="440"/>
			<point x="193" y="381" type="qcurve" smooth="yes"/>
		</contour>
		<contour>
			<point x="267" y="588"/>
			<point x="283" y="588"/>
			<point x="311" y="616"/>
			<point x="311" y="638"/>
			<point x="211" y="728"/>
			<point x="156" y="765"/>
			<point x="140" y="765"/>
			<point x="122" y="741"/>
			<point x="122" y="725"/>
			<point x="134" y="714" type="qcurve" smooth="yes"/>
			<point x="201" y="661"/>
		</contour>
		<contour>
			<point x="430" y="552" type="line"/>
			<point x="373" y="587"/>
			<point x="342" y="587"/>
			<point x="342" y="570"/>
			<point x="357" y="537"/>
			<point x="360" y="485"/>
			<point x="360" y="447" type="qcurve" smooth="yes"/>
			<point x="360" y="338"/>
			<point x="345" y="245" type="qcurve" smooth="yes"/>
			<point x="318" y="84"/>
			<point x="238" y="-53" type="qcurve" smooth="yes"/>
			<point x="231" y="-64"/>
			<point x="231" y="-78"/>
			<point x="250" y="-78"/>
			<point x="272" y="-55" type="qcurve" smooth="yes"/>
			<point x="329" y="1"/>
			<point x="373" y="108" type="qcurve" smooth="yes"/>
			<point x="426" y="234"/>
			<point x="426" y="465" type="qcurve" smooth="yes"/>
			<point x="426" y="501" type="line"/>
		</contour>
	</outline>
</glyph>
<glyph name="uni3D14" format="2">
	<advance width="1000"/>
	<unicode hex="3D14"/>
	<note>
		uni3D14
	</note>
	<outline>
		<contour>
			<point x="418" y="393"/>
			<point x="418" y="388" type="qcurve" smooth="yes"/>
			<point x="418" y="385" type="line"/>
			<point x="424" y="355"/>
			<point x="446" y="338"/>
			<point x="465" y="338" type="qcurve" smooth="yes"/>
			<point x="485" y="338" type="line"/>
			<point x="773" y="353" type="line"/>
			<point x="767" y="281" type="line"/>
			<point x="420" y="268" type="line" smooth="yes"/>
			<point x="413" y="268"/>
			<point x="378" y="273" type="qcurve" smooth="yes"/>
			<point x="376" y="273"/>
			<point x="376" y="269"/>
			<point x="377" y="267" type="qcurve" smooth="yes"/>
			<point x="389" y="230"/>
			<point x="414" y="218"/>
			<point x="423" y="218" type="qcurve" smooth="yes"/>
			<point x="449" y="219" type="line"/>
			<point x="832" y="235" type="line"/>
			<point x="834" y="235" type="line" smooth="yes"/>
			<point x="850" y="237"/>
			<point x="850" y="246" type="qcurve" smooth="yes"/>
			<point x="850" y="261"/>
			<point x="823" y="287" type="qcurve"/>
			<point x="847" y="465" type="line" smooth="yes"/>
			<point x="848" y="469"/>
			<point x="852" y="478"/>
			<point x="852" y="490"/>
			<point x="838" y="517"/>
			<point x="816" y="517" type="qcurve" smooth="yes"/>
			<point x="810" y="517" type="line" smooth="yes"/>
			<point x="807" y="517"/>
			<point x="805" y="516" type="qcurve"/>
			<point x="675" y="510" type="line"/>
			<point x="701" y="547"/>
			<point x="756" y="632"/>
			<point x="770" y="644"/>
			<point x="770" y="661"/>
			<point x="743" y="686"/>
			<point x="730" y="686" type="qcurve" smooth="yes"/>
			<point x="551" y="674" type="line"/>
			<point x="558" y="684"/>
			<point x="578" y="718" type="qcurve"/>
			<point x="601" y="745"/>
			<point x="543" y="778" type="qcurve"/>
			<point x="528" y="785"/>
			<point x="524" y="786" type="qcurve" smooth="yes"/>
			<point x="522" y="786"/>
			<point x="521" y="776" type="qcurve" smooth="yes"/>
			<point x="521" y="764" type="line" smooth="yes"/>
			<point x="521" y="761"/>
			<point x="496" y="693"/>
			<point x="420" y="576"/>
			<point x="342" y="496" type="qcurve" smooth="yes"/>
			<point x="329" y="483"/>
			<point x="328" y="465"/>
			<point x="343" y="464"/>
			<point x="377" y="490" type="qcurve"/>
			<point x="382" y="469"/>
			<point x="398" y="454" type="qcurve" smooth="yes"/>
			<point x="403" y="449"/>
			<point x="422" y="448" type="qcurve" smooth="yes"/>
			<point x="447" y="449" type="line"/>
			<point x="784" y="466" type="line"/>
			<point x="779" y="399" type="line"/>
			<point x="477" y="387" type="line"/>
			<point x="463" y="387" type="line" smooth="yes"/>
			<point x="451" y="387"/>
			<point x="419" y="393" type="qcurve" smooth="yes"/>
		</contour>
		<contour>
			<point x="969" y="74"/>
			<point x="922" y="123" type="qcurve" smooth="yes"/>
			<point x="877" y="166"/>
			<point x="823" y="205"/>
			<point x="814" y="205"/>
			<point x="788" y="188"/>
			<point x="788" y="168"/>
			<point x="802" y="156" type="qcurve" smooth="yes"/>
			<point x="859" y="108"/>
			<point x="918" y="34" type="qcurve" smooth="yes"/>
			<point x="927" y="23"/>
			<point x="939" y="23"/>
			<point x="969" y="45"/>
		</contour>
		<contour>
			<point x="694" y="108"/>
			<point x="641" y="153" type="qcurve" smooth="yes"/>
			<point x="592" y="198"/>
			<point x="581" y="198" type="qcurve" smooth="yes"/>
			<point x="576" y="198"/>
			<point x="551" y="184"/>
			<point x="551" y="165"/>
			<point x="561" y="155" type="qcurve"/>
			<point x="602" y="122"/>
			<point x="653" y="61"/>
			<point x="667" y="61"/>
			<point x="694" y="81"/>
		</contour>
		<contour>
			<point x="359" y="53"/>
			<point x="383" y="110"/>
			<point x="397" y="155"/>
			<point x="397" y="168"/>
			<point x="377" y="183"/>
			<point x="348" y="183"/>
			<point x="344" y="170" type="qcurve" smooth="yes"/>
			<point x="307" y="73"/>
			<point x="260" y="5"/>
			<point x="260" y="-12"/>
			<point x="292" y="-36"/>
			<point x="307" y="-36"/>
			<point x="332" y="-1"/>
		</contour>
		<contour>
			<point x="572" y="-12"/>
			<point x="522" y="57" type="qcurve" smooth="yes"/>
			<point x="500" y="87"/>
			<point x="481" y="138"/>
			<point x="469" y="138" type="qcurve" smooth="yes"/>
			<point x="463" y="138"/>
			<point x="454" y="135" type="qcurve" smooth="yes"/>
			<point x="435" y="131"/>
			<point x="435" y="118" type="qcurve" smooth="yes"/>
			<point x="435" y="112"/>
			<point x="441" y="90" type="qcurve"/>
			<point x="461" y="36"/>
			<point x="505" y="-6" type="qcurve" smooth="yes"/>
			<point x="567" y="-67"/>
			<point x="703" y="-67" type="qcurve" smooth="yes"/>
			<point x="866" y="-67"/>
			<point x="866" y="-19" type="qcurve" smooth="yes"/>
			<point x="866" y="-5"/>
			<point x="817" y="33"/>
			<point x="768" y="90" type="qcurve" smooth="yes"/>
			<point x="748" y="114"/>
			<point x="738" y="114" type="qcurve" smooth="yes"/>
			<point x="735" y="114"/>
			<point x="735" y="90"/>
			<point x="783" y="-3"/>
			<point x="784" y="-4" type="qcurve"/>
			<point x="784" y="-7"/>
			<point x="776" y="-7" type="qcurve"/>
			<point x="728" y="-12"/>
			<point x="706" y="-12" type="qcurve" smooth="yes"/>
		</contour>
		<contour>
			<point x="511" y="619" type="line"/>
			<point x="685" y="631" type="line"/>
			<point x="648" y="561"/>
			<point x="610" y="507" type="qcurve"/>
			<point x="439" y="499" type="line"/>
			<point x="424" y="499" type="line" smooth="yes"/>
			<point x="410" y="499"/>
			<point x="390" y="500" type="qcurve"/>
			<point x="431" y="533"/>
			<point x="485" y="589" type="qcurve" smooth="yes"/>
		</contour>
		<contour>
			<point x="326" y="604"/>
			<point x="326" y="632"/>
			<point x="231" y="713"/>
			<point x="164" y="756"/>
			<point x="152" y="756"/>
			<point x="131" y="735"/>
			<point x="131" y="715"/>
			<point x="144" y="705" type="qcurve" smooth="yes"/>
			<point x="211" y="652"/>
			<point x="262" y="599" type="qcurve" smooth="yes"/>
			<point x="283" y="578"/>
			<point x="298" y="578"/>
		</contour>
		<contour>
			<point x="257" y="426"/>
			<point x="200" y="468" type="qcurve" smooth="yes"/>
			<point x="99" y="537"/>
			<point x="81" y="537" type="qcurve" smooth="yes"/>
			<point x="75" y="537"/>
			<point x="58" y="510"/>
			<point x="58" y="492"/>
			<point x="72" y="484" type="qcurve" smooth="yes"/>
			<point x="138" y="440"/>
			<point x="203" y="382" type="qcurve" smooth="yes"/>
			<point x="217" y="370"/>
			<point x="233" y="370"/>
			<point x="257" y="400"/>
		</contour>
		<contour>
			<point x="126" y="-29" type="line" smooth="yes"/>
			<point x="140" y="-29"/>
			<point x="156" y="-6"/>
			<point x="168" y="13" type="qcurve" smooth="yes"/>
			<point x="264" y="168"/>
			<point x="305" y="274" type="qcurve" smooth="yes"/>
			<point x="322" y="318"/>
			<point x="322" y="343"/>
			<point x="315" y="343" type="qcurve" smooth="yes"/>
			<point x="303" y="343"/>
			<point x="287" y="315" type="qcurve" smooth="yes"/>
			<point x="219" y="198"/>
			<point x="110" y="49" type="qcurve" smooth="yes"/>
			<point x="94" y="28"/>
			<point x="64" y="9"/>
			<point x="64" y="5" type="qcurve" smooth="yes"/>
			<point x="64" y="-2"/>
			<point x="104" y="-27"/>
			<point x="123" y="-29" type="qcurve" smooth="yes"/>
		</contour>
	</outline>
</glyph>
<glyph name="uni3D50" format="2">
	<advance width="1000"/>
	<unicode hex="3D50"/>
	<note>
		uni3D50
	</note>
	<outline>
		<contour>
			<point x="688" y="-7"/>
			<point x="761" y="97"/>
			<point x="786" y="178" type="qcurve"/>
			<point x="826" y="59"/>
			<point x="933" y="-75" type="qcurve" smooth="yes"/>
			<point x="938" y="-82"/>
			<point x="955" y="-82"/>
			<point x="988" y="-52"/>
			<point x="988" y="-42"/>
			<point x="981" y="-36" type="qcurve"/>
			<point x="923" y="28"/>
			<point x="830" y="172"/>
			<point x="805" y="263" type="qcurve"/>
			<point x="812" y="307"/>
			<point x="815" y="361" type="qcurve" smooth="yes"/>
			<point x="815" y="376"/>
			<point x="802" y="383" type="qcurve" smooth="yes"/>
			<point x="778" y="396"/>
			<point x="744" y="396"/>
			<point x="744" y="386" type="qcurve" smooth="yes"/>
			<point x="744" y="382"/>
			<point x="755" y="358"/>
			<point x="755" y="305"/>
			<point x="737" y="198"/>
			<point x="694" y="77"/>
			<point x="619" y="-18"/>
			<point x="556" y="-72"/>
			<point x="556" y="-86"/>
			<point x="565" y="-86"/>
			<point x="615" y="-64"/>
		</contour>
		<contour>
			<point x="514" y="482"/>
			<point x="542" y="500"/>
			<point x="542" y="521"/>
			<point x="500" y="606"/>
			<point x="473" y="644"/>
			<point x="457" y="644"/>
			<point x="430" y="632"/>
			<point x="430" y="616"/>
			<point x="434" y="610" type="qcurve" smooth="yes"/>
			<point x="472" y="550"/>
			<point x="484" y="502" type="qcurve"/>
			<point x="491" y="482"/>
			<point x="504" y="482" type="qcurve" smooth="yes"/>
		</contour>
		<contour>
			<point x="591" y="615"/>
			<point x="590" y="612" type="qcurve"/>
			<point x="581" y="553"/>
			<point x="550" y="472" type="qcurve"/>
			<point x="458" y="467"/>
			<point x="429" y="467"/>
			<point x="408" y="475"/>
			<point x="406" y="475" type="qcurve" smooth="yes"/>
			<point x="400" y="475"/>
			<point x="400" y="462"/>
			<point x="416" y="434"/>
			<point x="431" y="420"/>
			<point x="466" y="420"/>
			<point x="522" y="423" type="qcurve"/>
			<point x="519" y="218" type="line"/>
			<point x="472" y="210" type="line"/>
			<point x="479" y="358" type="line" smooth="yes"/>
			<point x="479" y="378"/>
			<point x="446" y="384" type="qcurve" smooth="yes"/>
			<point x="434" y="387"/>
			<point x="412" y="387"/>
			<point x="412" y="379" type="qcurve" smooth="yes"/>
			<point x="412" y="374"/>
			<point x="428" y="354"/>
			<point x="428" y="333" type="qcurve" smooth="yes"/>
			<point x="424" y="231" type="line" smooth="yes"/>
			<point x="421" y="199"/>
			<point x="417" y="183"/>
			<point x="417" y="169"/>
			<point x="431" y="158" type="qcurve"/>
			<point x="442" y="153"/>
			<point x="447" y="153" type="qcurve"/>
			<point x="513" y="169" type="line"/>
			<point x="492" y="29"/>
			<point x="394" y="-52" type="qcurve" smooth="yes"/>
			<point x="378" y="-65"/>
			<point x="378" y="-73" type="qcurve" smooth="yes"/>
			<point x="378" y="-78"/>
			<point x="394" y="-78"/>
			<point x="445" y="-52"/>
			<point x="476" y="-22" type="qcurve" smooth="yes"/>
			<point x="552" y="51"/>
			<point x="569" y="180" type="qcurve"/>
			<point x="614" y="189" type="line"/>
			<point x="614" y="185"/>
			<point x="610" y="167"/>
			<point x="610" y="165" type="qcurve" smooth="yes"/>
			<point x="610" y="157"/>
			<point x="643" y="136"/>
			<point x="652" y="136" type="qcurve" smooth="yes"/>
			<point x="666" y="136"/>
			<point x="666" y="152" type="qcurve" smooth="yes"/>
			<point x="671" y="360" type="line" smooth="yes"/>
			<point x="671" y="369"/>
			<point x="662" y="385"/>
			<point x="618" y="397"/>
			<point x="603" y="397"/>
			<point x="603" y="386"/>
			<point x="620" y="359"/>
			<point x="620" y="340" type="qcurve" smooth="yes"/>
			<point x="618" y="235" type="line"/>
			<point x="573" y="227" type="line"/>
			<point x="577" y="426" type="line"/>
			<point x="680" y="431" type="line" smooth="yes"/>
			<point x="698" y="433"/>
			<point x="698" y="444" type="qcurve" smooth="yes"/>
			<point x="698" y="458"/>
			<point x="665" y="482"/>
			<point x="650" y="482"/>
			<point x="631" y="476"/>
			<point x="593" y="474" type="qcurve"/>
			<point x="624" y="527"/>
			<point x="656" y="620" type="qcurve" smooth="yes"/>
			<point x="657" y="624" type="line"/>
			<point x="657" y="642"/>
			<point x="617" y="656" type="qcurve" smooth="yes"/>
			<point x="603" y="662"/>
			<point x="587" y="662"/>
			<point x="587" y="652" type="qcurve"/>
			<point x="591" y="618" type="line" smooth="yes"/>
		</contour>
		<contour>
			<point x="708" y="323"/>
			<point x="758" y="463" type="qcurve"/>
			<point x="885" y="472" type="line"/>
			<point x="871" y="426"/>
			<point x="837" y="359"/>
			<point x="837" y="345"/>
			<point x="840" y="345" type="qcurve" smooth="yes"/>
			<point x="855" y="345"/>
			<point x="925" y="436"/>
			<point x="952" y="483"/>
			<point x="952" y="491"/>
			<point x="933" y="520"/>
			<point x="910" y="520" type="qcurve"/>
			<point x="773" y="509" type="line"/>
			<point x="791" y="567"/>
			<point x="802" y="633" type="qcurve"/>
			<point x="802" y="651"/>
			<point x="767" y="673"/>
			<point x="736" y="673"/>
			<point x="736" y="664"/>
			<point x="742" y="651"/>
			<point x="742" y="623" type="qcurve"/>
			<point x="724" y="471"/>
			<point x="682" y="352" type="qcurve"/>
			<point x="677" y="341"/>
			<point x="677" y="323"/>
			<point x="684" y="323" type="qcurve" smooth="yes"/>
		</contour>
		<contour>
			<point x="336" y="56"/>
			<point x="379" y="196"/>
			<point x="395" y="399"/>
			<point x="395" y="601" type="qcurve" smooth="yes"/>
			<point x="395" y="681" type="line"/>
			<point x="923" y="709" type="line" smooth="yes"/>
			<point x="942" y="711"/>
			<point x="942" y="720" type="qcurve" smooth="yes"/>
			<point x="942" y="732"/>
			<point x="903" y="765"/>
			<point x="892" y="765"/>
			<point x="867" y="757"/>
			<point x="851" y="756" type="qcurve" smooth="yes"/>
			<point x="396" y="731" type="line"/>
			<point x="341" y="755"/>
			<point x="318" y="755"/>
			<point x="318" y="744"/>
			<point x="329" y="719"/>
			<point x="335" y="672"/>
			<point x="335" y="300"/>
			<point x="300" y="75"/>
			<point x="255" y="-22" type="qcurve" smooth="yes"/>
			<point x="238" y="-59"/>
			<point x="238" y="-76"/>
			<point x="248" y="-76"/>
			<point x="288" y="-34"/>
		</contour>
		<contour>
			<point x="210" y="697"/>
			<point x="164" y="735"/>
			<point x="129" y="759"/>
			<point x="110" y="759"/>
			<point x="94" y="731"/>
			<point x="94" y="718"/>
			<point x="107" y="708" type="qcurve" smooth="yes"/>
			<point x="180" y="648"/>
			<point x="222" y="597" type="qcurve" smooth="yes"/>
			<point x="234" y="583"/>
			<point x="252" y="583"/>
			<point x="269" y="598"/>
			<point x="281" y="616"/>
			<point x="281" y="626"/>
			<point x="253" y="658"/>
		</contour>
		<contour>
			<point x="243" y="423"/>
			<point x="227" y="435" type="qcurve" smooth="yes"/>
			<point x="166" y="484"/>
			<point x="79" y="537"/>
			<point x="62" y="537"/>
			<point x="46" y="508"/>
			<point x="46" y="495"/>
			<point x="60" y="486" type="qcurve" smooth="yes"/>
			<point x="115" y="451"/>
			<point x="200" y="374"/>
			<point x="215" y="374"/>
			<point x="243" y="402"/>
		</contour>
		<contour>
			<point x="116" y="-32" type="line" smooth="yes"/>
			<point x="132" y="-32"/>
			<point x="156" y="18" type="qcurve" smooth="yes"/>
			<point x="218" y="149"/>
			<point x="252" y="266" type="qcurve" smooth="yes"/>
			<point x="266" y="311"/>
			<point x="266" y="340"/>
			<point x="257" y="340" type="qcurve" smooth="yes"/>
			<point x="246" y="340"/>
			<point x="231" y="308" type="qcurve" smooth="yes"/>
			<point x="187" y="205"/>
			<point x="96" y="45" type="qcurve" smooth="yes"/>
			<point x="84" y="23"/>
			<point x="52" y="3"/>
			<point x="52" y="-2" type="qcurve" smooth="yes"/>
			<point x="52" y="-12"/>
			<point x="94" y="-30"/>
			<point x="115" y="-32" type="qcurve" smooth="yes"/>
		</contour>
	</outline>
</glyph>
<glyph name="uni3DB2" format="2">
	<advance width="1000"/>
	<unicode hex="3DB2"/>
	<note>
		uni3DB2
	</note>
	<outline>
		<contour>
			<point x="929" y="686" type="line"/>
			<point x="932" y="709" type="line"/>
			<point x="932" y="724"/>
			<point x="909" y="744"/>
			<point x="894" y="744" type="qcurve" smooth="yes"/>
			<point x="886" y="744" type="line"/>
			<point x="517" y="717" type="line"/>
			<point x="471" y="741"/>
			<point x="444" y="741"/>
			<point x="444" y="733"/>
			<point x="458" y="697"/>
			<point x="459" y="628"/>
			<point x="459" y="600" type="qcurve" smooth="yes"/>
			<point x="459" y="544" type="line" smooth="yes"/>
			<point x="459" y="341"/>
			<point x="435" y="170"/>
			<point x="391" y="25"/>
			<point x="342" y="-72"/>
			<point x="342" y="-90"/>
			<point x="363" y="-90"/>
			<point x="402" y="-42"/>
			<point x="426" y="1" type="qcurve" smooth="yes"/>
			<point x="483" y="104"/>
			<point x="506" y="238" type="qcurve"/>
			<point x="653" y="247" type="line"/>
			<point x="653" y="76" type="line" smooth="yes"/>
			<point x="653" y="50"/>
			<point x="645" y="14"/>
			<point x="645" y="11" type="qcurve" smooth="yes"/>
			<point x="645" y="-1" type="line" smooth="yes"/>
			<point x="645" y="-9"/>
			<point x="665" y="-32"/>
			<point x="690" y="-43"/>
			<point x="695" y="-43" type="qcurve" smooth="yes"/>
			<point x="713" y="-43"/>
			<point x="713" y="-17" type="qcurve" smooth="yes"/>
			<point x="713" y="249" type="line"/>
			<point x="866" y="254" type="line"/>
			<point x="866" y="-14" type="line"/>
			<point x="831" y="-1"/>
			<point x="760" y="45"/>
			<point x="737" y="45"/>
			<point x="737" y="38" type="qcurve" smooth="yes"/>
			<point x="737" y="23"/>
			<point x="780" y="-20" type="qcurve" smooth="yes"/>
			<point x="857" y="-99"/>
			<point x="888" y="-99" type="qcurve"/>
			<point x="900" y="-96" type="line"/>
			<point x="911" y="-91"/>
			<point x="931" y="-68"/>
			<point x="931" y="-46" type="qcurve" smooth="yes"/>
			<point x="930" y="-17" type="line"/>
		</contour>
		<contour>
			<point x="866" y="530" type="line"/>
			<point x="713" y="523" type="line"/>
			<point x="713" y="675" type="line"/>
			<point x="866" y="685" type="line"/>
		</contour>
		<contour>
			<point x="653" y="520" type="line"/>
			<point x="522" y="510" type="line"/>
			<point x="522" y="585" type="line" smooth="yes"/>
			<point x="522" y="623"/>
			<point x="521" y="660" type="qcurve"/>
			<point x="653" y="672" type="line"/>
		</contour>
		<contour>
			<point x="866" y="310" type="line"/>
			<point x="713" y="305" type="line"/>
			<point x="713" y="467" type="line"/>
			<point x="866" y="474" type="line"/>
		</contour>
		<contour>
			<point x="653" y="303" type="line"/>
			<point x="514" y="295" type="line"/>
			<point x="520" y="339"/>
			<point x="522" y="454" type="qcurve"/>
			<point x="653" y="464" type="line"/>
		</contour>
		<contour>
			<point x="276" y="748" type="line" smooth="yes"/>
			<point x="276" y="760"/>
			<point x="262" y="773"/>
			<point x="221" y="786"/>
			<point x="199" y="786"/>
			<point x="199" y="773"/>
			<point x="217" y="748"/>
			<point x="217" y="727" type="qcurve" smooth="yes"/>
			<point x="214" y="414" type="line" smooth="yes"/>
			<point x="213" y="281"/>
			<point x="131" y="63"/>
			<point x="55" y="-39" type="qcurve" smooth="yes"/>
			<point x="41" y="-59"/>
			<point x="41" y="-75"/>
			<point x="47" y="-75" type="qcurve" smooth="yes"/>
			<point x="55" y="-75"/>
			<point x="103" y="-34"/>
			<point x="134" y="4" type="qcurve" smooth="yes"/>
			<point x="207" y="94"/>
			<point x="242" y="209" type="qcurve"/>
			<point x="287" y="142"/>
			<point x="326" y="60" type="qcurve" smooth="yes"/>
			<point x="337" y="39"/>
			<point x="358" y="39"/>
			<point x="384" y="63"/>
			<point x="384" y="87"/>
			<point x="317" y="197"/>
			<point x="258" y="276" type="qcurve"/>
			<point x="270" y="333"/>
			<point x="272" y="415" type="qcurve" smooth="yes"/>
			<point x="272" y="432" type="line"/>
			<point x="343" y="495"/>
			<point x="405" y="573"/>
			<point x="405" y="582" type="qcurve" smooth="yes"/>
			<point x="405" y="601"/>
			<point x="376" y="622" type="qcurve" smooth="yes"/>
			<point x="365" y="630"/>
			<point x="351" y="630"/>
			<point x="350" y="619" type="qcurve" smooth="yes"/>
			<point x="350" y="583"/>
			<point x="273" y="497" type="qcurve"/>
		</contour>
		<contour>
			<point x="137" y="348" type="line" smooth="yes"/>
			<point x="153" y="350"/>
			<point x="163" y="360"/>
			<point x="163" y="372" type="qcurve" smooth="yes"/>
			<point x="163" y="381" type="line"/>
			<point x="153" y="483"/>
			<point x="132" y="556" type="qcurve" smooth="yes"/>
			<point x="124" y="587"/>
			<point x="98" y="587"/>
			<point x="79" y="577"/>
			<point x="79" y="563"/>
			<point x="81" y="553" type="qcurve" smooth="yes"/>
			<point x="102" y="463"/>
			<point x="105" y="360"/>
			<point x="115" y="348"/>
			<point x="129" y="348" type="qcurve" smooth="yes"/>
		</contour>
	</outline>
</glyph>
<glyph name="uni3E0C" format="2">
	<advance width="1000"/>
	<unicode hex="3E0C"/>
	<note>
		uni3E0C
	</note>
	<outline>
		<contour>
			<point x="694" y="434"/>
			<point x="694" y="455" type="qcurve" smooth="yes"/>
			<point x="697" y="617" type="line"/>
			<point x="882" y="627" type="line"/>
			<point x="866" y="578"/>
			<point x="842" y="531"/>
			<point x="842" y="520" type="qcurve" smooth="yes"/>
			<point x="842" y="509"/>
			<point x="856" y="509" type="qcurve" smooth="yes"/>
			<point x="883" y="509"/>
			<point x="943" y="615" type="qcurve" smooth="yes"/>
			<point x="950" y="628"/>
			<point x="958" y="638"/>
			<point x="958" y="655"/>
			<point x="939" y="680"/>
			<point x="913" y="680" type="qcurve"/>
			<point x="698" y="666" type="line"/>
			<point x="698" y="718" type="line"/>
			<point x="856" y="729"/>
			<point x="871" y="735"/>
			<point x="871" y="753"/>
			<point x="841" y="783"/>
			<point x="820" y="783"/>
			<point x="807" y="778"/>
			<point x="796" y="776" type="qcurve"/>
			<point x="539" y="758" type="line"/>
			<point x="528" y="758" type="line"/>
			<point x="501" y="763" type="line"/>
			<point x="489" y="763"/>
			<point x="489" y="756" type="qcurve" smooth="yes"/>
			<point x="489" y="740"/>
			<point x="507" y="718" type="qcurve" smooth="yes"/>
			<point x="515" y="706"/>
			<point x="546" y="706" type="qcurve"/>
			<point x="644" y="714" type="line"/>
			<point x="642" y="663" type="line"/>
			<point x="495" y="653" type="line"/>
			<point x="496" y="659"/>
			<point x="498" y="680" type="qcurve" smooth="yes"/>
			<point x="498" y="692"/>
			<point x="471" y="703"/>
			<point x="451" y="703"/>
			<point x="446" y="690"/>
			<point x="445" y="683" type="qcurve" smooth="yes"/>
			<point x="431" y="589"/>
			<point x="382" y="472" type="qcurve"/>
			<point x="380" y="462" type="line"/>
			<point x="380" y="455"/>
			<point x="400" y="430"/>
			<point x="414" y="430" type="qcurve" smooth="yes"/>
			<point x="440" y="430"/>
			<point x="484" y="605" type="qcurve"/>
			<point x="642" y="614" type="line"/>
			<point x="638" y="496"/>
			<point x="635" y="476"/>
			<point x="635" y="471" type="qcurve" smooth="yes"/>
			<point x="635" y="453"/>
			<point x="657" y="439" type="qcurve" smooth="yes"/>
			<point x="667" y="434"/>
			<point x="676" y="434" type="qcurve" smooth="yes"/>
		</contour>
		<contour>
			<point x="838" y="513"/>
			<point x="838" y="543" type="qcurve" smooth="yes"/>
			<point x="838" y="550"/>
			<point x="830" y="559"/>
			<point x="774" y="581"/>
			<point x="732" y="586"/>
			<point x="727" y="588" type="qcurve"/>
			<point x="708" y="588"/>
			<point x="708" y="561" type="qcurve" smooth="yes"/>
			<point x="708" y="552"/>
			<point x="715" y="544"/>
			<point x="799" y="524"/>
			<point x="813" y="513"/>
			<point x="818" y="513" type="qcurve" smooth="yes"/>
		</contour>
		<contour>
			<point x="620" y="509"/>
			<point x="620" y="539" type="qcurve" smooth="yes"/>
			<point x="620" y="553"/>
			<point x="606" y="558" type="qcurve" smooth="yes"/>
			<point x="524" y="583"/>
			<point x="506" y="583" type="qcurve" smooth="yes"/>
			<point x="489" y="583"/>
			<point x="489" y="554" type="qcurve" smooth="yes"/>
			<point x="489" y="542"/>
			<point x="527" y="534"/>
			<point x="597" y="509"/>
			<point x="603" y="509" type="qcurve" smooth="yes"/>
		</contour>
		<contour>
			<point x="838" y="428"/>
			<point x="838" y="460" type="qcurve" smooth="yes"/>
			<point x="838" y="474"/>
			<point x="822" y="479" type="qcurve" smooth="yes"/>
			<point x="757" y="501"/>
			<point x="723" y="505" type="qcurve"/>
			<point x="713" y="505"/>
			<point x="707" y="495"/>
			<point x="706" y="479"/>
			<point x="706" y="467"/>
			<point x="714" y="460"/>
			<point x="768" y="449"/>
			<point x="816" y="428"/>
			<point x="819" y="428" type="qcurve" smooth="yes"/>
		</contour>
		<contour>
			<point x="616" y="432"/>
			<point x="616" y="462" type="qcurve" smooth="yes"/>
			<point x="616" y="476"/>
			<point x="599" y="481" type="qcurve" smooth="yes"/>
			<point x="524" y="506"/>
			<point x="496" y="506" type="qcurve" smooth="yes"/>
			<point x="479" y="506"/>
			<point x="479" y="478" type="qcurve" smooth="yes"/>
			<point x="479" y="463"/>
			<point x="498" y="459" type="qcurve" smooth="yes"/>
			<point x="536" y="453"/>
			<point x="589" y="433" type="qcurve" smooth="yes"/>
			<point x="592" y="432"/>
			<point x="596" y="432" type="qcurve" smooth="yes"/>
		</contour>
		<contour>
			<point x="76" y="550"/>
			<point x="98" y="457"/>
			<point x="103" y="349"/>
			<point x="113" y="337"/>
			<point x="127" y="337" type="qcurve" smooth="yes"/>
			<point x="135" y="337" type="line" smooth="yes"/>
			<point x="151" y="339"/>
			<point x="161" y="349"/>
			<point x="161" y="361" type="qcurve" smooth="yes"/>
			<point x="161" y="370" type="line" smooth="yes"/>
			<point x="153" y="469"/>
			<point x="131" y="552" type="qcurve" smooth="yes"/>
			<point x="124" y="575"/>
			<point x="109" y="575" type="qcurve" smooth="yes"/>
			<point x="76" y="575"/>
			<point x="76" y="555" type="qcurve" smooth="yes"/>
		</contour>
		<contour>
			<point x="265" y="346"/>
			<point x="266" y="413" type="qcurve" smooth="yes"/>
			<point x="266" y="426" type="line"/>
			<point x="301" y="458"/>
			<point x="394" y="562"/>
			<point x="394" y="597"/>
			<point x="363" y="620" type="qcurve" smooth="yes"/>
			<point x="352" y="628"/>
			<point x="341" y="628"/>
			<point x="339" y="616" type="qcurve" smooth="yes"/>
			<point x="333" y="573"/>
			<point x="268" y="494" type="qcurve"/>
			<point x="273" y="736" type="line" smooth="yes"/>
			<point x="273" y="748"/>
			<point x="259" y="761"/>
			<point x="218" y="774"/>
			<point x="196" y="774"/>
			<point x="196" y="761"/>
			<point x="213" y="737"/>
			<point x="213" y="715" type="qcurve" smooth="yes"/>
			<point x="208" y="412" type="line" smooth="yes"/>
			<point x="206" y="279"/>
			<point x="130" y="65"/>
			<point x="53" y="-36" type="qcurve" smooth="yes"/>
			<point x="38" y="-55"/>
			<point x="38" y="-72"/>
			<point x="53" y="-72"/>
			<point x="101" y="-32"/>
			<point x="132" y="6" type="qcurve" smooth="yes"/>
			<point x="207" y="98"/>
			<point x="239" y="214" type="qcurve"/>
			<point x="290" y="134"/>
			<point x="325" y="59" type="qcurve" smooth="yes"/>
			<point x="334" y="38"/>
			<point x="348" y="38" type="qcurve" smooth="yes"/>
			<point x="354" y="38"/>
			<point x="382" y="58"/>
			<point x="382" y="68" type="qcurve" smooth="yes"/>
			<point x="382" y="107"/>
			<point x="254" y="283" type="qcurve"/>
		</contour>
		<contour>
			<point x="662" y="23" type="line"/>
			<point x="512" y="19" type="line"/>
			<point x="513" y="91" type="line"/>
			<point x="663" y="97" type="line"/>
		</contour>
		<contour>
			<point x="663" y="140" type="line"/>
			<point x="513" y="133" type="line"/>
			<point x="513" y="188" type="line"/>
			<point x="664" y="195" type="line"/>
		</contour>
		<contour>
			<point x="664" y="238" type="line"/>
			<point x="513" y="231" type="line"/>
			<point x="514" y="292" type="line"/>
			<point x="665" y="299" type="line"/>
		</contour>
		<contour>
			<point x="832" y="148"/>
			<point x="810" y="146" type="qcurve" smooth="yes"/>
			<point x="718" y="142" type="line"/>
			<point x="718" y="198" type="line"/>
			<point x="875" y="205" type="line"/>
			<point x="877" y="205" type="line"/>
			<point x="891" y="208"/>
			<point x="891" y="230"/>
			<point x="865" y="246" type="qcurve" smooth="yes"/>
			<point x="855" y="252"/>
			<point x="845" y="252"/>
			<point x="830" y="247"/>
			<point x="808" y="245" type="qcurve" smooth="yes"/>
			<point x="718" y="241" type="line"/>
			<point x="719" y="302" type="line"/>
			<point x="905" y="312" type="line" smooth="yes"/>
			<point x="913" y="313"/>
			<point x="923" y="317"/>
			<point x="923" y="334"/>
			<point x="887" y="360"/>
			<point x="879" y="360"/>
			<point x="862" y="353"/>
			<point x="838" y="351" type="qcurve" smooth="yes"/>
			<point x="722" y="345" type="line"/>
			<point x="745" y="368"/>
			<point x="761" y="395"/>
			<point x="761" y="398" type="qcurve" smooth="yes"/>
			<point x="761" y="410"/>
			<point x="729" y="427" type="qcurve" smooth="yes"/>
			<point x="716" y="434"/>
			<point x="701" y="434"/>
			<point x="701" y="419" type="qcurve" smooth="yes"/>
			<point x="701" y="412" type="line" smooth="yes"/>
			<point x="701" y="388"/>
			<point x="665" y="342" type="qcurve"/>
			<point x="549" y="336" type="line"/>
			<point x="589" y="379"/>
			<point x="589" y="388" type="qcurve" smooth="yes"/>
			<point x="589" y="404"/>
			<point x="552" y="422" type="qcurve" smooth="yes"/>
			<point x="539" y="428"/>
			<point x="535" y="428" type="qcurve" smooth="yes"/>
			<point x="525" y="428"/>
			<point x="525" y="389"/>
			<point x="427" y="264"/>
			<point x="371" y="211" type="qcurve" smooth="yes"/>
			<point x="350" y="190"/>
			<point x="350" y="176"/>
			<point x="364" y="176"/>
			<point x="422" y="214"/>
			<point x="461" y="247" type="qcurve"/>
			<point x="457" y="2" type="line" smooth="yes"/>
			<point x="457" y="-33"/>
			<point x="450" y="-65"/>
			<point x="450" y="-68" type="qcurve" smooth="yes"/>
			<point x="450" y="-73" type="line" smooth="yes"/>
			<point x="450" y="-86"/>
			<point x="475" y="-105"/>
			<point x="496" y="-105" type="qcurve" smooth="yes"/>
			<point x="512" y="-105"/>
			<point x="512" y="-82" type="qcurve" smooth="yes"/>
			<point x="512" y="-27" type="line"/>
			<point x="952" y="-11" type="line"/>
			<point x="969" y="-9"/>
			<point x="969" y="0" type="qcurve" smooth="yes"/>
			<point x="969" y="15"/>
			<point x="944" y="31" type="qcurve" smooth="yes"/>
			<point x="934" y="38"/>
			<point x="923" y="38"/>
			<point x="903" y="30"/>
			<point x="884" y="30" type="qcurve" smooth="yes"/>
			<point x="717" y="24" type="line"/>
			<point x="718" y="99" type="line"/>
			<point x="877" y="106" type="line"/>
			<point x="879" y="106" type="line"/>
			<point x="893" y="109"/>
			<point x="893" y="131"/>
			<point x="857" y="153"/>
			<point x="847" y="153"/>
		</contour>
	</outline>
</glyph>
<glyph name="uni3E84" format="2">
	<advance width="1000"/>
	<unicode hex="3E84"/>
	<note>
		uni3E84
	</note>
	<outline>
		<contour>
			<point x="809" y="422"/>
			<point x="809" y="414" type="qcurve" smooth="yes"/>
			<point x="809" y="413"/>
			<point x="812" y="406" type="qcurve"/>
			<point x="825" y="386"/>
			<point x="825" y="355" type="qcurve" smooth="yes"/>
			<point x="826" y="-22" type="line"/>
			<point x="784" y="-11"/>
			<point x="718" y="16"/>
			<point x="703" y="16"/>
			<point x="703" y="5"/>
			<point x="736" y="-27"/>
			<point x="783" y="-65"/>
			<point x="829" y="-91"/>
			<point x="858" y="-91"/>
			<point x="884" y="-59"/>
			<point x="884" y="-36" type="qcurve" smooth="yes"/>
			<point x="882" y="2" type="line"/>
			<point x="877" y="391" type="line" smooth="yes"/>
			<point x="877" y="422"/>
			<point x="820" y="422" type="qcurve" smooth="yes"/>
		</contour>
		<contour>
			<point x="633" y="347" type="line"/>
			<point x="637" y="367" type="line"/>
			<point x="637" y="380"/>
			<point x="609" y="401"/>
			<point x="588" y="401"/>
			<point x="584" y="400" type="qcurve"/>
			<point x="465" y="394" type="line"/>
			<point x="416" y="410"/>
			<point x="394" y="410"/>
			<point x="394" y="397"/>
			<point x="397" y="389" type="qcurve" smooth="yes"/>
			<point x="408" y="367"/>
			<point x="408" y="331" type="qcurve" smooth="yes"/>
			<point x="402" y="15" type="line" smooth="yes"/>
			<point x="402" y="-3"/>
			<point x="394" y="-33"/>
			<point x="392" y="-59"/>
			<point x="422" y="-88"/>
			<point x="439" y="-88" type="qcurve" smooth="yes"/>
			<point x="452" y="-88"/>
			<point x="452" y="-70" type="qcurve" smooth="yes"/>
			<point x="455" y="112" type="line"/>
			<point x="580" y="117" type="line"/>
			<point x="580" y="-9" type="line"/>
			<point x="551" y="-2"/>
			<point x="501" y="22"/>
			<point x="488" y="22"/>
			<point x="488" y="8"/>
			<point x="512" y="-23"/>
			<point x="547" y="-57"/>
			<point x="581" y="-80"/>
			<point x="601" y="-80"/>
			<point x="634" y="-54"/>
			<point x="634" y="-31" type="qcurve" smooth="yes"/>
			<point x="633" y="8" type="line"/>
		</contour>
		<contour>
			<point x="753" y="338" type="line" smooth="yes"/>
			<point x="753" y="361"/>
			<point x="717" y="370" type="qcurve" smooth="yes"/>
			<point x="704" y="374"/>
			<point x="687" y="374"/>
			<point x="687" y="367" type="qcurve" smooth="yes"/>
			<point x="687" y="364"/>
			<point x="689" y="360" type="qcurve" smooth="yes"/>
			<point x="703" y="337"/>
			<point x="703" y="306" type="qcurve" smooth="yes"/>
			<point x="704" y="180" type="line" smooth="yes"/>
			<point x="704" y="142"/>
			<point x="700" y="118" type="qcurve"/>
			<point x="698" y="114"/>
			<point x="698" y="111" type="qcurve" smooth="yes"/>
			<point x="698" y="106" type="line" smooth="yes"/>
			<point x="698" y="92"/>
			<point x="731" y="72"/>
			<point x="742" y="72" type="qcurve" smooth="yes"/>
			<point x="755" y="72"/>
			<point x="755" y="95" type="qcurve" smooth="yes"/>
		</contour>
		<contour>
			<point x="580" y="283" type="line"/>
			<point x="459" y="277" type="line"/>
			<point x="460" y="347" type="line"/>
			<point x="580" y="353" type="line"/>
		</contour>
		<contour>
			<point x="580" y="163" type="line"/>
			<point x="456" y="158" type="line"/>
			<point x="457" y="231" type="line"/>
			<point x="580" y="237" type="line"/>
		</contour>
		<contour>
			<point x="320" y="384" type="line"/>
			<point x="361" y="406"/>
			<point x="441" y="467"/>
			<point x="479" y="503" type="qcurve"/>
			<point x="485" y="494"/>
			<point x="494" y="477"/>
			<point x="514" y="459"/>
			<point x="537" y="459"/>
			<point x="555" y="461" type="qcurve" smooth="yes"/>
			<point x="750" y="473" type="line" smooth="yes"/>
			<point x="776" y="476"/>
			<point x="776" y="491" type="qcurve" smooth="yes"/>
			<point x="776" y="501"/>
			<point x="739" y="528"/>
			<point x="720" y="528"/>
			<point x="703" y="521"/>
			<point x="680" y="520" type="qcurve" smooth="yes"/>
			<point x="542" y="510" type="line"/>
			<point x="531" y="510" type="line" smooth="yes"/>
			<point x="511" y="510"/>
			<point x="494" y="513" type="qcurve"/>
			<point x="491" y="513" type="line"/>
			<point x="564" y="584"/>
			<point x="621" y="664" type="qcurve"/>
			<point x="722" y="563"/>
			<point x="922" y="406"/>
			<point x="950" y="406"/>
			<point x="988" y="436"/>
			<point x="988" y="451"/>
			<point x="973" y="460" type="qcurve" smooth="yes"/>
			<point x="876" y="517"/>
			<point x="726" y="632"/>
			<point x="653" y="707" type="qcurve"/>
			<point x="682" y="753"/>
			<point x="682" y="755" type="qcurve" smooth="yes"/>
			<point x="682" y="774"/>
			<point x="632" y="795" type="qcurve" smooth="yes"/>
			<point x="615" y="802"/>
			<point x="612" y="802" type="qcurve" smooth="yes"/>
			<point x="605" y="802"/>
			<point x="605" y="789" type="qcurve" smooth="yes"/>
			<point x="605" y="780" type="line" smooth="yes"/>
			<point x="605" y="742"/>
			<point x="517" y="625" type="qcurve" smooth="yes"/>
			<point x="477" y="572"/>
			<point x="362" y="446"/>
			<point x="303" y="400" type="qcurve"/>
		</contour>
		<contour>
			<point x="126" y="42"/>
			<point x="162" y="1"/>
			<point x="188" y="-20" type="qcurve" smooth="yes"/>
			<point x="250" y="-73"/>
			<point x="301" y="-73"/>
			<point x="338" y="-1"/>
			<point x="338" y="173" type="qcurve" smooth="yes"/>
			<point x="338" y="417"/>
			<point x="269" y="568" type="qcurve"/>
			<point x="334" y="635"/>
			<point x="391" y="719"/>
			<point x="391" y="730"/>
			<point x="372" y="755"/>
			<point x="346" y="775"/>
			<point x="325" y="775"/>
			<point x="325" y="745"/>
			<point x="305" y="694"/>
			<point x="244" y="619" type="qcurve"/>
			<point x="232" y="643"/>
			<point x="208" y="680" type="qcurve" smooth="yes"/>
			<point x="173" y="735"/>
			<point x="155" y="735" type="qcurve" smooth="yes"/>
			<point x="145" y="735"/>
			<point x="124" y="717"/>
			<point x="124" y="700"/>
			<point x="131" y="693" type="qcurve" smooth="yes"/>
			<point x="175" y="641"/>
			<point x="206" y="575" type="qcurve"/>
			<point x="149" y="510"/>
			<point x="61" y="437"/>
			<point x="61" y="422"/>
			<point x="68" y="422" type="qcurve" smooth="yes"/>
			<point x="71" y="422"/>
			<point x="90" y="430" type="qcurve" smooth="yes"/>
			<point x="142" y="449"/>
			<point x="227" y="527" type="qcurve"/>
			<point x="248" y="476"/>
			<point x="260" y="418" type="qcurve"/>
			<point x="169" y="268"/>
			<point x="52" y="155" type="qcurve" smooth="yes"/>
			<point x="35" y="139"/>
			<point x="35" y="128" type="qcurve" smooth="yes"/>
			<point x="35" y="122"/>
			<point x="53" y="122"/>
			<point x="126" y="171"/>
			<point x="225" y="266"/>
			<point x="273" y="334" type="qcurve"/>
			<point x="280" y="269"/>
			<point x="280" y="84"/>
			<point x="271" y="22" type="qcurve" smooth="yes"/>
			<point x="268" y="2"/>
			<point x="262" y="2" type="qcurve" smooth="yes"/>
			<point x="260" y="2" type="line"/>
			<point x="228" y="10"/>
			<point x="144" y="58"/>
			<point x="126" y="58"/>
			<point x="126" y="51" type="qcurve" smooth="yes"/>
		</contour>
	</outline>
</glyph>
<glyph name="uni3F4F" format="2">
	<advance width="1000"/>
	<unicode hex="3F4F"/>
	<note>
		uni3F4F
	</note>
	<outline>
		<contour>
			<point x="376" y="721"/>
			<point x="306" y="766"/>
			<point x="233" y="806"/>
			<point x="216" y="806"/>
			<point x="203" y="779"/>
			<point x="203" y="764"/>
			<point x="216" y="757" type="qcurve" smooth="yes"/>
			<point x="293" y="710"/>
			<point x="337" y="669"/>
			<point x="353" y="669"/>
			<point x="376" y="700"/>
		</contour>
		<contour>
			<point x="231" y="649"/>
			<point x="140" y="687"/>
			<point x="123" y="687"/>
			<point x="108" y="665"/>
			<point x="108" y="641"/>
			<point x="124" y="635" type="qcurve" smooth="yes"/>
			<point x="196" y="603"/>
			<point x="258" y="561"/>
			<point x="271" y="561"/>
			<point x="294" y="587"/>
			<point x="294" y="607"/>
			<point x="286" y="616"/>
		</contour>
		<contour>
			<point x="139" y="377"/>
			<point x="91" y="360"/>
			<point x="92" y="352"/>
			<point x="115" y="336" type="qcurve" smooth="yes"/>
			<point x="150" y="313"/>
			<point x="171" y="316"/>
			<point x="182" y="328"/>
			<point x="226" y="379"/>
			<point x="306" y="467"/>
			<point x="351" y="543"/>
			<point x="349" y="563"/>
			<point x="343" y="562" type="qcurve" smooth="yes"/>
			<point x="329" y="560"/>
			<point x="276" y="496"/>
			<point x="187" y="420"/>
		</contour>
		<contour>
			<point x="718" y="393" type="line"/>
			<point x="511" y="387" type="line"/>
			<point x="507" y="454" type="line"/>
			<point x="725" y="464" type="line"/>
		</contour>
		<contour>
			<point x="508" y="501" type="line"/>
			<point x="465" y="517"/>
			<point x="435" y="517"/>
			<point x="435" y="510" type="qcurve" smooth="yes"/>
			<point x="435" y="508"/>
			<point x="447" y="480"/>
			<point x="450" y="457" type="qcurve" smooth="yes"/>
			<point x="456" y="384" type="line"/>
			<point x="456" y="375" type="line" smooth="yes"/>
			<point x="456" y="363"/>
			<point x="454" y="349" type="qcurve" smooth="yes"/>
			<point x="454" y="343" type="line" smooth="yes"/>
			<point x="454" y="331"/>
			<point x="478" y="315"/>
			<point x="516" y="315"/>
			<point x="516" y="330" type="qcurve" smooth="yes"/>
			<point x="516" y="332" type="line"/>
			<point x="515" y="341" type="line"/>
			<point x="766" y="347" type="line" smooth="yes"/>
			<point x="778" y="348"/>
			<point x="793" y="351"/>
			<point x="793" y="368"/>
			<point x="772" y="393" type="qcurve"/>
			<point x="783" y="463" type="line"/>
			<point x="785" y="468"/>
			<point x="792" y="478"/>
			<point x="792" y="496"/>
			<point x="765" y="513"/>
			<point x="756" y="513" type="qcurve" smooth="yes"/>
			<point x="741" y="512" type="line"/>
		</contour>
		<contour>
			<point x="701" y="556" type="line" smooth="yes"/>
			<point x="721" y="558"/>
			<point x="721" y="568" type="qcurve" smooth="yes"/>
			<point x="721" y="572"/>
			<point x="709" y="591"/>
			<point x="689" y="608"/>
			<point x="671" y="608"/>
			<point x="651" y="602"/>
			<point x="640" y="601" type="qcurve" smooth="yes"/>
			<point x="565" y="596" type="line"/>
			<point x="554" y="596" type="line" smooth="yes"/>
			<point x="536" y="596"/>
			<point x="521" y="600" type="qcurve"/>
			<point x="563" y="644"/>
			<point x="604" y="700" type="qcurve"/>
			<point x="715" y="598"/>
			<point x="855" y="502" type="qcurve" smooth="yes"/>
			<point x="930" y="449"/>
			<point x="960" y="449"/>
			<point x="982" y="478" type="qcurve" smooth="yes"/>
			<point x="989" y="488"/>
			<point x="989" y="489" type="qcurve" smooth="yes"/>
			<point x="989" y="496"/>
			<point x="974" y="503" type="qcurve" smooth="yes"/>
			<point x="800" y="589"/>
			<point x="633" y="743" type="qcurve"/>
			<point x="645" y="762" type="line" smooth="yes"/>
			<point x="649" y="768"/>
			<point x="649" y="782"/>
			<point x="627" y="809"/>
			<point x="598" y="830"/>
			<point x="578" y="830"/>
			<point x="578" y="815" type="qcurve" smooth="yes"/>
			<point x="578" y="808" type="line" smooth="yes"/>
			<point x="578" y="781"/>
			<point x="570" y="767" type="qcurve" smooth="yes"/>
			<point x="487" y="618"/>
			<point x="318" y="462" type="qcurve" smooth="yes"/>
			<point x="301" y="446"/>
			<point x="301" y="431"/>
			<point x="308" y="431" type="qcurve" smooth="yes"/>
			<point x="327" y="431"/>
			<point x="465" y="544"/>
			<point x="506" y="585" type="qcurve"/>
			<point x="520" y="559"/>
			<point x="538" y="547"/>
			<point x="565" y="547"/>
			<point x="581" y="549" type="qcurve" smooth="yes"/>
		</contour>
		<contour>
			<point x="650" y="9" type="line"/>
			<point x="352" y="0" type="line"/>
			<point x="351" y="75" type="line"/>
			<point x="652" y="87" type="line"/>
		</contour>
		<contour>
			<point x="654" y="137" type="line"/>
			<point x="350" y="125" type="line"/>
			<point x="349" y="196" type="line"/>
			<point x="656" y="210" type="line"/>
		</contour>
		<contour>
			<point x="86" y="244"/>
			<point x="86" y="237"/>
			<point x="87" y="235" type="qcurve" smooth="yes"/>
			<point x="97" y="202"/>
			<point x="125" y="187"/>
			<point x="141" y="187" type="qcurve" smooth="yes"/>
			<point x="164" y="188" type="line"/>
			<point x="288" y="193" type="line"/>
			<point x="292" y="-10" type="line" smooth="yes"/>
			<point x="292" y="-40"/>
			<point x="287" y="-67" type="qcurve"/>
			<point x="287" y="-70" type="line" smooth="yes"/>
			<point x="287" y="-86"/>
			<point x="314" y="-98" type="qcurve" smooth="yes"/>
			<point x="329" y="-106"/>
			<point x="336" y="-106" type="qcurve" smooth="yes"/>
			<point x="353" y="-106"/>
			<point x="353" y="-86" type="qcurve" smooth="yes"/>
			<point x="353" y="-48" type="line"/>
			<point x="714" y="-41" type="line" smooth="yes"/>
			<point x="723" y="-41"/>
			<point x="736" y="-39"/>
			<point x="736" y="-21"/>
			<point x="710" y="11" type="qcurve"/>
			<point x="719" y="212" type="line"/>
			<point x="893" y="220" type="line" smooth="yes"/>
			<point x="916" y="222"/>
			<point x="916" y="235" type="qcurve" smooth="yes"/>
			<point x="916" y="252"/>
			<point x="886" y="272" type="qcurve" smooth="yes"/>
			<point x="874" y="279"/>
			<point x="863" y="279"/>
			<point x="838" y="269"/>
			<point x="807" y="268" type="qcurve" smooth="yes"/>
			<point x="721" y="264" type="line"/>
			<point x="723" y="305" type="line"/>
			<point x="723" y="306" type="line" smooth="yes"/>
			<point x="723" y="327"/>
			<point x="679" y="340" type="qcurve" smooth="yes"/>
			<point x="662" y="345"/>
			<point x="645" y="345"/>
			<point x="645" y="337"/>
			<point x="648" y="331" type="qcurve" smooth="yes"/>
			<point x="658" y="315"/>
			<point x="658" y="280" type="qcurve" smooth="yes"/>
			<point x="658" y="261" type="line"/>
			<point x="348" y="248" type="line"/>
			<point x="348" y="264" type="line" smooth="yes"/>
			<point x="348" y="284"/>
			<point x="337" y="301"/>
			<point x="292" y="316"/>
			<point x="269" y="316"/>
			<point x="269" y="308" type="qcurve" smooth="yes"/>
			<point x="269" y="307"/>
			<point x="283" y="279"/>
			<point x="286" y="245" type="qcurve"/>
			<point x="136" y="238" type="line" smooth="yes"/>
			<point x="114" y="238"/>
			<point x="90" y="244" type="qcurve"/>
		</contour>
	</outline>
</glyph>
<glyph name="uni40AE" format="2">
	<advance width="1000"/>
	<unicode hex="40AE"/>
	<note>
		uni40AE
	</note>
	<outline>
		<contour>
			<point x="503" y="736"/>
			<point x="503" y="733" type="qcurve" smooth="yes"/>
			<point x="503" y="718"/>
			<point x="535" y="680"/>
			<point x="569" y="680"/>
			<point x="585" y="682" type="qcurve" smooth="yes"/>
			<point x="622" y="686" type="line"/>
			<point x="594" y="552"/>
			<point x="539" y="468" type="qcurve" smooth="yes"/>
			<point x="513" y="430"/>
			<point x="466" y="374"/>
			<point x="466" y="366" type="qcurve" smooth="yes"/>
			<point x="466" y="363"/>
			<point x="484" y="363"/>
			<point x="503" y="377" type="qcurve" smooth="yes"/>
			<point x="572" y="430"/>
			<point x="659" y="572"/>
			<point x="687" y="690" type="qcurve"/>
			<point x="799" y="701" type="line"/>
			<point x="797" y="668"/>
			<point x="793" y="625" type="qcurve" smooth="yes"/>
			<point x="776" y="438"/>
			<point x="744" y="438"/>
			<point x="664" y="479"/>
			<point x="645" y="479"/>
			<point x="645" y="478" type="qcurve" smooth="yes"/>
			<point x="645" y="458"/>
			<point x="752" y="366"/>
			<point x="774" y="366" type="qcurve" smooth="yes"/>
			<point x="785" y="366"/>
			<point x="814" y="395"/>
			<point x="818" y="410" type="qcurve" smooth="yes"/>
			<point x="846" y="505"/>
			<point x="860" y="700" type="qcurve"/>
			<point x="861" y="704"/>
			<point x="865" y="715"/>
			<point x="865" y="728"/>
			<point x="849" y="754"/>
			<point x="826" y="754" type="qcurve" smooth="yes"/>
			<point x="813" y="754" type="line"/>
			<point x="544" y="733" type="line"/>
			<point x="531" y="733"/>
			<point x="510" y="736" type="qcurve"/>
		</contour>
		<contour>
			<point x="275" y="439" type="line" smooth="yes"/>
			<point x="275" y="411"/>
			<point x="269" y="386"/>
			<point x="269" y="382" type="qcurve" smooth="yes"/>
			<point x="269" y="378" type="line" smooth="yes"/>
			<point x="269" y="359"/>
			<point x="304" y="339"/>
			<point x="314" y="339" type="qcurve" smooth="yes"/>
			<point x="329" y="339"/>
			<point x="329" y="362" type="qcurve" smooth="yes"/>
			<point x="328" y="462" type="line"/>
			<point x="391" y="481"/>
			<point x="499" y="518"/>
			<point x="499" y="531" type="qcurve" smooth="yes"/>
			<point x="499" y="539"/>
			<point x="482" y="539"/>
			<point x="328" y="506" type="qcurve"/>
			<point x="328" y="574" type="line"/>
			<point x="447" y="583" type="line"/>
			<point x="465" y="586"/>
			<point x="465" y="595" type="qcurve" smooth="yes"/>
			<point x="465" y="609"/>
			<point x="437" y="628" type="qcurve"/>
			<point x="427" y="633"/>
			<point x="416" y="633"/>
			<point x="399" y="627"/>
			<point x="385" y="625" type="qcurve"/>
			<point x="328" y="622" type="line"/>
			<point x="328" y="676" type="line"/>
			<point x="465" y="684" type="line"/>
			<point x="480" y="686"/>
			<point x="480" y="696" type="qcurve" smooth="yes"/>
			<point x="480" y="710"/>
			<point x="452" y="729" type="qcurve"/>
			<point x="440" y="735"/>
			<point x="425" y="735"/>
			<point x="403" y="729"/>
			<point x="380" y="726" type="qcurve" smooth="yes"/>
			<point x="327" y="723" type="line"/>
			<point x="327" y="777" type="line" smooth="yes"/>
			<point x="327" y="787"/>
			<point x="317" y="800"/>
			<point x="281" y="811"/>
			<point x="261" y="811"/>
			<point x="261" y="799"/>
			<point x="273" y="774"/>
			<point x="273" y="756" type="qcurve" smooth="yes"/>
			<point x="273" y="719" type="line"/>
			<point x="172" y="712" type="line"/>
			<point x="163" y="712" type="line" smooth="yes"/>
			<point x="140" y="712"/>
			<point x="115" y="717" type="qcurve"/>
			<point x="113" y="717" type="line" smooth="yes"/>
			<point x="109" y="717"/>
			<point x="109" y="711" type="qcurve" smooth="yes"/>
			<point x="109" y="710"/>
			<point x="116" y="687"/>
			<point x="136" y="666"/>
			<point x="164" y="666"/>
			<point x="189" y="667" type="qcurve" smooth="yes"/>
			<point x="274" y="672" type="line"/>
			<point x="274" y="619" type="line"/>
			<point x="195" y="614" type="line"/>
			<point x="189" y="614" type="line" smooth="yes"/>
			<point x="172" y="614"/>
			<point x="146" y="619" type="qcurve"/>
			<point x="141" y="619"/>
			<point x="141" y="612" type="qcurve" smooth="yes"/>
			<point x="141" y="609"/>
			<point x="153" y="586"/>
			<point x="173" y="565"/>
			<point x="196" y="565"/>
			<point x="213" y="567" type="qcurve" smooth="yes"/>
			<point x="274" y="571" type="line"/>
			<point x="275" y="496" type="line"/>
			<point x="178" y="478"/>
			<point x="145" y="478" type="qcurve"/>
			<point x="114" y="481" type="line" smooth="yes"/>
			<point x="112" y="481"/>
			<point x="110" y="481" type="qcurve" smooth="yes"/>
			<point x="102" y="481"/>
			<point x="102" y="475" type="qcurve" smooth="yes"/>
			<point x="102" y="453"/>
			<point x="128" y="426" type="qcurve"/>
			<point x="140" y="416"/>
			<point x="172" y="416"/>
			<point x="275" y="445" type="qcurve"/>
		</contour>
		<contour>
			<point x="373" y="265" type="line"/>
			<point x="228" y="130"/>
			<point x="61" y="40" type="qcurve" smooth="yes"/>
			<point x="37" y="27"/>
			<point x="37" y="18" type="qcurve" smooth="yes"/>
			<point x="37" y="11"/>
			<point x="60" y="11"/>
			<point x="100" y="26" type="qcurve" smooth="yes"/>
			<point x="199" y="64"/>
			<point x="312" y="141" type="qcurve"/>
			<point x="316" y="128"/>
			<point x="318" y="113" type="qcurve" smooth="yes"/>
			<point x="331" y="-6" type="line" smooth="yes"/>
			<point x="333" y="-24"/>
			<point x="333" y="-40" type="qcurve" smooth="yes"/>
			<point x="332" y="-63" type="line"/>
			<point x="332" y="-66" type="line" smooth="yes"/>
			<point x="332" y="-83"/>
			<point x="357" y="-107"/>
			<point x="400" y="-107"/>
			<point x="400" y="-87" type="qcurve" smooth="yes"/>
			<point x="400" y="-84" type="line"/>
			<point x="397" y="-58" type="line"/>
			<point x="735" y="-50" type="line" smooth="yes"/>
			<point x="749" y="-49"/>
			<point x="767" y="-46"/>
			<point x="767" y="-26"/>
			<point x="744" y="7" type="qcurve"/>
			<point x="766" y="126" type="line" smooth="yes"/>
			<point x="767" y="131"/>
			<point x="774" y="141"/>
			<point x="774" y="155"/>
			<point x="751" y="183"/>
			<point x="728" y="183" type="qcurve" smooth="yes"/>
			<point x="715" y="183" type="line"/>
			<point x="379" y="166" type="line"/>
			<point x="357" y="173" type="line"/>
			<point x="392" y="200"/>
			<point x="467" y="269" type="qcurve"/>
			<point x="863" y="287" type="line" smooth="yes"/>
			<point x="887" y="289"/>
			<point x="887" y="301" type="qcurve" smooth="yes"/>
			<point x="887" y="308"/>
			<point x="869" y="330"/>
			<point x="843" y="348"/>
			<point x="826" y="348"/>
			<point x="803" y="339"/>
			<point x="777" y="337" type="qcurve" smooth="yes"/>
			<point x="213" y="312" type="line"/>
			<point x="197" y="312" type="line" smooth="yes"/>
			<point x="168" y="312"/>
			<point x="150" y="317"/>
			<point x="139" y="317"/>
			<point x="139" y="310" type="qcurve" smooth="yes"/>
			<point x="139" y="291"/>
			<point x="171" y="263" type="qcurve" smooth="yes"/>
			<point x="177" y="258"/>
			<point x="196" y="258" type="qcurve" smooth="yes"/>
			<point x="233" y="259" type="line"/>
		</contour>
		<contour>
			<point x="684" y="5" type="line"/>
			<point x="392" y="-3" type="line"/>
			<point x="380" y="114" type="line"/>
			<point x="697" y="127" type="line"/>
		</contour>
	</outline>
</glyph>
<glyph name="uni40C5" format="2">
	<advance width="1000"/>
	<unicode hex="40C5"/>
	<note>
		uni40C5
	</note>
	<outline>
		<contour>
			<point x="634" y="333" type="line"/>
			<point x="532" y="328" type="line"/>
			<point x="525" y="417" type="line"/>
			<point x="634" y="423" type="line"/>
		</contour>
		<contour>
			<point x="797" y="341" type="line"/>
			<point x="690" y="336" type="line"/>
			<point x="690" y="426" type="line"/>
			<point x="805" y="432" type="line"/>
		</contour>
		<contour>
			<point x="635" y="468" type="line"/>
			<point x="522" y="462" type="line"/>
			<point x="516" y="544" type="line"/>
			<point x="635" y="551" type="line"/>
		</contour>
		<contour>
			<point x="809" y="478" type="line"/>
			<point x="691" y="471" type="line"/>
			<point x="691" y="554" type="line"/>
			<point x="816" y="561" type="line"/>
		</contour>
		<contour>
			<point x="633" y="131" type="line"/>
			<point x="633" y="102" type="line" smooth="yes"/>
			<point x="633" y="3"/>
			<point x="627" y="-43" type="qcurve" smooth="yes"/>
			<point x="626" y="-54" type="line" smooth="yes"/>
			<point x="626" y="-68"/>
			<point x="654" y="-91"/>
			<point x="673" y="-91" type="qcurve" smooth="yes"/>
			<point x="689" y="-91"/>
			<point x="689" y="-69" type="qcurve" smooth="yes"/>
			<point x="690" y="133" type="line"/>
			<point x="953" y="143" type="line" smooth="yes"/>
			<point x="976" y="145"/>
			<point x="976" y="157" type="qcurve" smooth="yes"/>
			<point x="976" y="174"/>
			<point x="948" y="193" type="qcurve" smooth="yes"/>
			<point x="937" y="201"/>
			<point x="922" y="201"/>
			<point x="906" y="196"/>
			<point x="874" y="194" type="qcurve" smooth="yes"/>
			<point x="690" y="187" type="line"/>
			<point x="690" y="287" type="line"/>
			<point x="855" y="294" type="line" smooth="yes"/>
			<point x="863" y="295"/>
			<point x="875" y="299"/>
			<point x="875" y="316"/>
			<point x="850" y="344" type="qcurve"/>
			<point x="875" y="555" type="line" smooth="yes"/>
			<point x="876" y="560"/>
			<point x="882" y="572"/>
			<point x="882" y="593"/>
			<point x="853" y="611"/>
			<point x="836" y="611" type="qcurve" smooth="yes"/>
			<point x="827" y="611" type="line"/>
			<point x="705" y="603" type="line"/>
			<point x="734" y="625"/>
			<point x="823" y="754"/>
			<point x="823" y="772"/>
			<point x="786" y="802"/>
			<point x="753" y="802"/>
			<point x="753" y="785" type="qcurve" smooth="yes"/>
			<point x="753" y="777" type="line" smooth="yes"/>
			<point x="753" y="752"/>
			<point x="702" y="652"/>
			<point x="682" y="620"/>
			<point x="682" y="605"/>
			<point x="683" y="602" type="qcurve"/>
			<point x="512" y="592" type="line"/>
			<point x="465" y="608"/>
			<point x="444" y="608"/>
			<point x="444" y="597"/>
			<point x="460" y="568"/>
			<point x="463" y="528" type="qcurve" smooth="yes"/>
			<point x="478" y="337" type="line" smooth="yes"/>
			<point x="480" y="317"/>
			<point x="480" y="304" type="qcurve" smooth="yes"/>
			<point x="479" y="282" type="line"/>
			<point x="479" y="278" type="line" smooth="yes"/>
			<point x="479" y="256"/>
			<point x="510" y="246" type="qcurve" smooth="yes"/>
			<point x="521" y="242"/>
			<point x="529" y="242"/>
			<point x="537" y="252"/>
			<point x="537" y="258" type="qcurve" smooth="yes"/>
			<point x="537" y="260" type="line"/>
			<point x="535" y="280" type="line"/>
			<point x="634" y="285" type="line"/>
			<point x="633" y="184" type="line"/>
			<point x="462" y="176" type="line"/>
			<point x="448" y="176" type="line" smooth="yes"/>
			<point x="425" y="176"/>
			<point x="405" y="180" type="qcurve"/>
			<point x="403" y="180" type="line" smooth="yes"/>
			<point x="397" y="180"/>
			<point x="397" y="175" type="qcurve"/>
			<point x="410" y="123"/>
			<point x="450" y="123" type="qcurve" smooth="yes"/>
		</contour>
		<contour>
			<point x="598" y="707"/>
			<point x="575" y="740"/>
			<point x="556" y="766"/>
			<point x="543" y="780"/>
			<point x="526" y="780"/>
			<point x="501" y="765"/>
			<point x="501" y="746"/>
			<point x="508" y="737" type="qcurve" smooth="yes"/>
			<point x="549" y="683"/>
			<point x="580" y="621" type="qcurve" smooth="yes"/>
			<point x="586" y="607"/>
			<point x="611" y="607"/>
			<point x="636" y="624"/>
			<point x="636" y="644"/>
			<point x="621" y="673"/>
		</contour>
		<contour>
			<point x="302" y="164" type="line"/>
			<point x="217" y="160" type="line"/>
			<point x="211" y="386" type="line"/>
			<point x="311" y="391" type="line"/>
		</contour>
		<contour>
			<point x="241" y="534"/>
			<point x="272" y="635" type="qcurve"/>
			<point x="405" y="644" type="line" smooth="yes"/>
			<point x="426" y="646"/>
			<point x="426" y="658" type="qcurve" smooth="yes"/>
			<point x="426" y="672"/>
			<point x="397" y="693" type="qcurve" smooth="yes"/>
			<point x="386" y="702"/>
			<point x="371" y="702"/>
			<point x="355" y="697"/>
			<point x="333" y="694" type="qcurve"/>
			<point x="130" y="679" type="line"/>
			<point x="119" y="679" type="line" smooth="yes"/>
			<point x="98" y="679"/>
			<point x="78" y="684"/>
			<point x="68" y="684"/>
			<point x="68" y="673"/>
			<point x="81" y="647"/>
			<point x="105" y="624"/>
			<point x="131" y="624"/>
			<point x="149" y="626" type="qcurve" smooth="yes"/>
			<point x="207" y="630" type="line"/>
			<point x="152" y="420"/>
			<point x="42" y="243" type="qcurve" smooth="yes"/>
			<point x="32" y="227"/>
			<point x="32" y="210"/>
			<point x="47" y="210"/>
			<point x="78" y="242"/>
			<point x="136" y="319"/>
			<point x="156" y="355" type="qcurve"/>
			<point x="162" y="148" type="line" smooth="yes"/>
			<point x="162" y="123"/>
			<point x="155" y="91"/>
			<point x="155" y="74"/>
			<point x="182" y="47"/>
			<point x="202" y="47" type="qcurve" smooth="yes"/>
			<point x="220" y="47"/>
			<point x="220" y="68" type="qcurve" smooth="yes"/>
			<point x="220" y="71" type="line"/>
			<point x="219" y="109" type="line"/>
			<point x="352" y="114" type="line" smooth="yes"/>
			<point x="364" y="115"/>
			<point x="380" y="118"/>
			<point x="380" y="135"/>
			<point x="357" y="165" type="qcurve"/>
			<point x="372" y="390" type="line"/>
			<point x="373" y="395"/>
			<point x="377" y="404"/>
			<point x="377" y="422"/>
			<point x="354" y="444"/>
			<point x="336" y="444" type="qcurve" smooth="yes"/>
			<point x="323" y="444" type="line"/>
			<point x="211" y="437" type="line"/>
			<point x="207" y="440"/>
			<point x="200" y="442" type="qcurve"/>
		</contour>
	</outline>
</glyph>
